<?xml version="1.0" encoding="utf-8"?>
<!-- Generator: Adobe Illustrator 28.4.1, SVG Export Plug-In . SVG Version: 6.00 Build 0)  -->
<svg version="1.1" id="Layer_1" xmlns="http://www.w3.org/2000/svg" xmlns:xlink="http://www.w3.org/1999/xlink" x="0px" y="0px"
	 viewBox="0 0 107.13 42" style="enable-background:new 0 0 107.13 42;" xml:space="preserve">
<style type="text/css">
	.st0{fill-rule:evenodd;clip-rule:evenodd;fill:#FFFFFF;}
	.st1{fill:#FFFFFF;}
</style>
<g>
	<path class="st0" d="M10.05,26.25c2.76-0.32,4.13-0.13,4.13-0.13c-2.82-1.68-4.06-4.52-4.06-4.52c2.76,0.19,5.22,1.61,5.22,1.61
		c-1.66-2.84-1.52-5.68-1.52-5.68c1.6,0.19,4.06,3.17,4.06,3.17c0.57-3.71,2.13-5.37,2.52-5.73L20.45,0
		c-1.03,2.08-2.1,4.13-3.04,6.3C16.79,6.83,16.37,7.33,15.35,7c-0.7-0.23-1.66-0.99-2.26-1.35c-0.24-0.14-0.61-0.45-0.71-0.26
		c0.69,3.66,1.61,7.1,2.2,10.85c-0.85,0.88-1.59-0.13-2.12-0.71c-1.13-1.23-2.16-2.25-3.18-3.34c-0.22-0.23-0.35-0.59-0.71-0.64
		c-0.44,1-0.52,2.23-1.49,2.63c-0.75,0.31-2.1-0.02-3.26-0.19c-1.01-0.16-1.98-0.35-2.76-0.45c0.41,1.27,0.95,3.08,1.41,4.43
		c0.2,0.59,0.52,1.05,0.42,1.54c-0.06,0.3-0.4,0.69-0.64,0.83C1.65,20.74,0.59,20.72,0,21.19c2.69,1.84,5.49,3.64,8.14,5.46
		c0.89,0.61,1.88,1.18,2.48,2.06c0.25,1.68-0.93,2.42-0.99,3.6c2.39-0.49,5.14-0.93,7.57-1.35c0.8-0.14,1.8-0.47,2.41,0.19
		c-0.14,3.42-0.24,7.39-0.42,10.85h1.15l0.04-13.06C14.41,30.71,10.05,26.25,10.05,26.25z"/>
	<path class="st1" d="M32.97,0.18l0.22,3.12h-0.22c-0.3-0.93-0.74-1.6-1.3-2.02c-0.56-0.41-1.24-0.61-2.02-0.61
		c-0.66,0-1.26,0.15-1.79,0.46c-0.53,0.31-0.95,0.79-1.26,1.47c-0.31,0.67-0.46,1.51-0.46,2.5c0,0.82,0.14,1.54,0.43,2.14
		c0.29,0.6,0.72,1.07,1.3,1.39c0.58,0.32,1.24,0.48,1.98,0.48c0.64,0,1.21-0.13,1.71-0.38c0.49-0.25,1.03-0.75,1.62-1.5l0.23,0.14
		c-0.5,0.81-1.08,1.39-1.74,1.77C31.01,9.51,30.22,9.7,29.3,9.7c-1.65,0-2.92-0.56-3.82-1.68c-0.67-0.83-1.01-1.81-1.01-2.94
		c0-0.91,0.22-1.74,0.67-2.5c0.44-0.76,1.06-1.35,1.84-1.77c0.78-0.42,1.63-0.63,2.55-0.63c0.72,0,1.43,0.16,2.13,0.48
		c0.2,0.1,0.35,0.15,0.44,0.15c0.13,0,0.25-0.04,0.34-0.13c0.13-0.12,0.22-0.29,0.27-0.5H32.97z"/>
	<path class="st1" d="M41.06,5.95l-1.67-3.68l-1.75,3.68H41.06z M41.29,6.46H37.4l-0.67,1.42c-0.17,0.35-0.25,0.62-0.25,0.8
		c0,0.14,0.07,0.26,0.22,0.37c0.14,0.11,0.46,0.17,0.94,0.21v0.24H34.5V9.25c0.42-0.07,0.68-0.16,0.81-0.26
		c0.25-0.22,0.53-0.66,0.83-1.32l3.55-7.48h0.24l3.46,7.57c0.28,0.61,0.53,1.01,0.76,1.19c0.23,0.18,0.54,0.28,0.95,0.31v0.24h-3.93
		V9.25c0.4-0.02,0.66-0.08,0.8-0.18c0.14-0.1,0.21-0.23,0.21-0.38c0-0.2-0.1-0.51-0.29-0.94L41.29,6.46z"/>
	<path class="st1" d="M45.49,0.39h2.71l6.1,6.8V1.96c0-0.56-0.07-0.91-0.21-1.05c-0.18-0.19-0.47-0.28-0.86-0.28h-0.35V0.39h3.47
		v0.24H56c-0.42,0-0.72,0.12-0.9,0.35c-0.11,0.14-0.16,0.47-0.16,0.99v7.68h-0.26l-6.59-7.35v5.62c0,0.56,0.07,0.91,0.2,1.05
		c0.19,0.19,0.47,0.28,0.86,0.28h0.35v0.24h-3.47V9.25h0.35c0.43,0,0.73-0.12,0.91-0.35c0.11-0.14,0.16-0.47,0.16-0.99V1.58
		c-0.29-0.31-0.51-0.51-0.66-0.61c-0.15-0.1-0.37-0.19-0.66-0.28C46,0.65,45.78,0.63,45.49,0.63V0.39z"/>
	<path class="st1" d="M63.66,5.95l-1.67-3.68l-1.75,3.68H63.66z M63.89,6.46H60l-0.67,1.42c-0.17,0.35-0.25,0.62-0.25,0.8
		c0,0.14,0.07,0.26,0.22,0.37c0.14,0.11,0.46,0.17,0.94,0.21v0.24h-3.13V9.25c0.42-0.07,0.68-0.16,0.81-0.26
		c0.25-0.22,0.53-0.66,0.83-1.32l3.54-7.48h0.24l3.46,7.57c0.28,0.61,0.53,1.01,0.76,1.19c0.23,0.18,0.54,0.28,0.95,0.31v0.24h-3.93
		V9.25c0.4-0.02,0.66-0.08,0.8-0.18c0.14-0.1,0.21-0.23,0.21-0.38c0-0.2-0.1-0.51-0.29-0.94L63.89,6.46z"/>
	<path class="st1" d="M71.37,8.82c0.62,0.13,1.14,0.19,1.57,0.19c1.14,0,2.08-0.36,2.83-1.09c0.75-0.73,1.12-1.72,1.12-2.97
		c0-1.26-0.37-2.25-1.12-2.97c-0.75-0.72-1.71-1.09-2.89-1.09c-0.44,0-0.94,0.06-1.51,0.2V8.82z M68.55,9.49V9.25h0.37
		c0.42,0,0.71-0.12,0.88-0.37c0.11-0.15,0.16-0.48,0.16-1V2c0-0.57-0.07-0.93-0.2-1.08c-0.19-0.2-0.47-0.3-0.84-0.3h-0.37V0.39h4.05
		c1.49,0,2.62,0.15,3.4,0.46c0.78,0.31,1.4,0.82,1.87,1.55c0.47,0.72,0.71,1.55,0.71,2.5c0,1.27-0.42,2.33-1.26,3.18
		c-0.94,0.95-2.38,1.42-4.32,1.42H68.55z"/>
	<path class="st1" d="M84.19,9.25v0.24h-4.24V9.25h0.35c0.41,0,0.7-0.11,0.89-0.33c0.12-0.14,0.18-0.49,0.18-1.04V2
		c0-0.46-0.03-0.77-0.1-0.92c-0.05-0.11-0.15-0.21-0.3-0.29c-0.21-0.11-0.44-0.16-0.67-0.16h-0.35V0.39h4.24v0.24h-0.35
		c-0.4,0-0.69,0.11-0.88,0.33C82.84,1.11,82.78,1.45,82.78,2v5.87c0,0.47,0.03,0.77,0.09,0.92c0.05,0.11,0.15,0.21,0.3,0.29
		c0.21,0.11,0.43,0.16,0.66,0.16H84.19z"/>
	<path class="st1" d="M91.71,5.95l-1.67-3.68l-1.75,3.68H91.71z M91.94,6.46h-3.89l-0.67,1.42c-0.17,0.35-0.25,0.62-0.25,0.8
		c0,0.14,0.07,0.26,0.22,0.37c0.14,0.11,0.46,0.17,0.94,0.21v0.24h-3.13V9.25c0.42-0.07,0.68-0.16,0.81-0.26
		c0.25-0.22,0.53-0.66,0.83-1.32l3.55-7.48h0.24l3.46,7.57c0.28,0.61,0.53,1.01,0.76,1.19c0.23,0.18,0.54,0.28,0.95,0.31v0.24H91.8
		V9.25c0.4-0.02,0.66-0.08,0.8-0.18c0.14-0.1,0.21-0.23,0.21-0.38c0-0.2-0.1-0.51-0.29-0.94L91.94,6.46z"/>
	<path class="st1" d="M96.14,0.39h2.71l6.1,6.8V1.96c0-0.56-0.07-0.91-0.21-1.05c-0.18-0.19-0.47-0.28-0.86-0.28h-0.35V0.39H107
		v0.24h-0.35c-0.42,0-0.72,0.12-0.9,0.35c-0.11,0.14-0.16,0.47-0.16,0.99v7.68h-0.26l-6.59-7.35v5.62c0,0.56,0.07,0.91,0.2,1.05
		c0.19,0.19,0.47,0.28,0.86,0.28h0.35v0.24h-3.47V9.25h0.35c0.43,0,0.73-0.12,0.91-0.35c0.11-0.14,0.16-0.47,0.16-0.99V1.58
		c-0.29-0.31-0.51-0.51-0.66-0.61c-0.15-0.1-0.37-0.19-0.66-0.28c-0.14-0.04-0.36-0.06-0.65-0.06V0.39z"/>
	<path class="st1" d="M30.91,14.41v-0.24h3.31v0.24h-0.35c-0.37,0-0.65,0.14-0.85,0.42c-0.1,0.13-0.14,0.43-0.14,0.91v3.47
		c0,0.86-0.09,1.52-0.28,2c-0.19,0.47-0.55,0.88-1.1,1.22c-0.54,0.34-1.29,0.51-2.22,0.51c-1.02,0-1.8-0.16-2.32-0.49
		c-0.53-0.32-0.9-0.76-1.12-1.31c-0.15-0.37-0.22-1.08-0.22-2.11v-3.35c0-0.52-0.08-0.87-0.24-1.03c-0.16-0.16-0.41-0.25-0.76-0.25
		h-0.35v-0.24h4.02v0.24h-0.36c-0.38,0-0.66,0.11-0.82,0.33c-0.11,0.15-0.17,0.46-0.17,0.94v3.73c0,0.33,0.03,0.71,0.1,1.14
		c0.07,0.43,0.19,0.76,0.36,1c0.17,0.24,0.43,0.44,0.76,0.59c0.33,0.16,0.73,0.23,1.21,0.23c0.61,0,1.16-0.12,1.64-0.37
		c0.48-0.25,0.81-0.56,0.99-0.94c0.18-0.38,0.27-1.03,0.27-1.93v-3.46c0-0.53-0.06-0.87-0.19-1c-0.18-0.18-0.45-0.28-0.8-0.28H30.91
		z"/>
	<path class="st1" d="M34.01,14.17h2.54l5.74,6.4v-4.92c0-0.52-0.07-0.84-0.2-0.97c-0.17-0.17-0.45-0.26-0.82-0.26h-0.33v-0.24h3.31
		v0.24h-0.34c-0.4,0-0.69,0.11-0.86,0.32c-0.1,0.13-0.15,0.44-0.15,0.91v7.24h-0.25l-6.18-6.9v5.28c0,0.52,0.06,0.84,0.19,0.97
		c0.18,0.17,0.45,0.26,0.82,0.26h0.34v0.24H34.5v-0.24h0.33c0.41,0,0.69-0.11,0.86-0.32c0.1-0.13,0.15-0.44,0.15-0.91V15.3
		c-0.27-0.29-0.48-0.48-0.62-0.57c-0.14-0.09-0.35-0.18-0.62-0.26c-0.13-0.04-0.34-0.06-0.61-0.06V14.17z"/>
	<path class="st1" d="M48.6,22.51v0.24h-4.02v-0.24h0.33c0.39,0,0.67-0.1,0.85-0.31c0.11-0.13,0.17-0.46,0.17-0.97v-5.55
		c0-0.43-0.03-0.72-0.09-0.85c-0.05-0.11-0.14-0.2-0.28-0.27c-0.2-0.1-0.42-0.15-0.64-0.15h-0.33v-0.24h4.02v0.24h-0.34
		c-0.38,0-0.66,0.1-0.84,0.31c-0.12,0.13-0.17,0.46-0.17,0.97v5.55c0,0.43,0.03,0.72,0.09,0.86c0.05,0.11,0.14,0.19,0.29,0.27
		c0.2,0.1,0.41,0.15,0.63,0.15H48.6z"/>
	<path class="st1" d="M58.77,14.17v0.24c-0.33,0.05-0.58,0.15-0.75,0.29c-0.24,0.2-0.46,0.52-0.65,0.94l-3.26,7.29h-0.29l-3.48-7.37
		c-0.18-0.38-0.31-0.61-0.38-0.7c-0.12-0.13-0.26-0.23-0.42-0.31c-0.17-0.07-0.39-0.12-0.68-0.14v-0.24h3.84v0.24
		c-0.43,0.04-0.71,0.11-0.84,0.2c-0.13,0.1-0.19,0.22-0.19,0.37c0,0.21,0.11,0.54,0.32,0.99L54.35,21l2.22-4.97
		c0.22-0.49,0.33-0.83,0.33-1.02c0-0.12-0.07-0.24-0.2-0.35c-0.13-0.11-0.36-0.19-0.68-0.24c-0.02,0-0.06-0.01-0.12-0.02v-0.24
		H58.77z"/>
	<path class="st1" d="M61.73,14.65v3.38h2.01c0.53,0,0.88-0.07,1.06-0.22c0.24-0.19,0.37-0.53,0.4-1.02h0.26v2.98H65.2
		c-0.06-0.42-0.13-0.69-0.19-0.8c-0.08-0.15-0.22-0.26-0.4-0.35c-0.19-0.08-0.47-0.13-0.86-0.13h-2.01v2.81
		c0,0.38,0.02,0.61,0.06,0.69c0.04,0.08,0.1,0.15,0.19,0.2c0.09,0.05,0.27,0.07,0.52,0.07h1.58c0.53,0,0.91-0.03,1.15-0.1
		c0.24-0.07,0.47-0.2,0.69-0.39c0.28-0.26,0.57-0.65,0.87-1.17h0.29l-0.81,2.15h-7.21v-0.24h0.33c0.22,0,0.43-0.05,0.63-0.15
		c0.15-0.07,0.25-0.17,0.3-0.3c0.05-0.13,0.08-0.41,0.08-0.83v-5.55c0-0.55-0.06-0.89-0.18-1.02c-0.17-0.17-0.44-0.26-0.83-0.26
		h-0.33v-0.24h7.2l0.09,1.88h-0.29c-0.09-0.45-0.2-0.75-0.32-0.92c-0.12-0.17-0.29-0.29-0.51-0.38c-0.18-0.06-0.5-0.09-0.96-0.09
		H61.73z"/>
	<path class="st1" d="M70.14,18.34c0.09,0,0.16,0,0.22,0c0.06,0,0.12,0,0.16,0c0.88,0,1.55-0.18,1.99-0.53
		c0.45-0.35,0.67-0.8,0.67-1.35c0-0.53-0.18-0.97-0.54-1.3c-0.36-0.34-0.84-0.5-1.44-0.5c-0.26,0-0.62,0.05-1.07,0.14V18.34z
		 M76.78,22.75h-2.51l-3.18-4.01c-0.23,0.01-0.42,0.01-0.56,0.01c-0.06,0-0.12,0-0.19,0c-0.07,0-0.14,0-0.21-0.01v2.49
		c0,0.54,0.06,0.87,0.19,1c0.17,0.18,0.44,0.28,0.79,0.28h0.37v0.24h-4.02v-0.24h0.35c0.4,0,0.68-0.12,0.85-0.35
		c0.1-0.13,0.14-0.44,0.14-0.92v-5.55c0-0.54-0.06-0.87-0.19-1c-0.18-0.18-0.45-0.28-0.8-0.28h-0.35v-0.24h3.41
		c0.99,0,1.73,0.07,2.2,0.2c0.47,0.13,0.87,0.38,1.2,0.73c0.33,0.36,0.49,0.78,0.49,1.27c0,0.53-0.19,0.99-0.57,1.37
		c-0.38,0.39-0.96,0.66-1.75,0.82l1.94,2.46c0.44,0.56,0.82,0.94,1.14,1.12c0.32,0.19,0.73,0.3,1.24,0.35V22.75z"/>
	<path class="st1" d="M82.94,13.98v2.94h-0.27c-0.08-0.56-0.23-1.01-0.44-1.34c-0.21-0.33-0.52-0.6-0.91-0.79
		c-0.4-0.2-0.8-0.29-1.23-0.29c-0.48,0-0.87,0.13-1.19,0.4c-0.31,0.27-0.47,0.57-0.47,0.91c0,0.26,0.1,0.5,0.3,0.71
		c0.29,0.32,0.96,0.74,2.03,1.26c0.87,0.43,1.47,0.76,1.79,0.99c0.32,0.23,0.57,0.5,0.74,0.81c0.17,0.31,0.26,0.64,0.26,0.98
		c0,0.65-0.28,1.21-0.82,1.67c-0.55,0.47-1.26,0.7-2.12,0.7c-0.27,0-0.53-0.02-0.77-0.06c-0.14-0.02-0.44-0.1-0.89-0.23
		c-0.45-0.13-0.73-0.2-0.85-0.2c-0.12,0-0.21,0.03-0.27,0.09c-0.07,0.06-0.12,0.19-0.15,0.39h-0.27V20h0.27
		c0.12,0.62,0.28,1.08,0.48,1.38c0.2,0.31,0.51,0.56,0.93,0.76c0.42,0.2,0.87,0.3,1.37,0.3c0.57,0,1.03-0.14,1.36-0.42
		c0.33-0.28,0.5-0.61,0.5-0.99c0-0.21-0.06-0.42-0.19-0.64c-0.13-0.21-0.32-0.42-0.59-0.6c-0.18-0.13-0.67-0.39-1.47-0.8
		c-0.8-0.41-1.37-0.74-1.71-0.98c-0.34-0.24-0.6-0.51-0.77-0.81c-0.18-0.29-0.26-0.62-0.26-0.97c0-0.62,0.26-1.14,0.77-1.59
		c0.52-0.44,1.17-0.67,1.97-0.67c0.5,0,1.02,0.11,1.58,0.33c0.26,0.1,0.44,0.16,0.55,0.16c0.12,0,0.22-0.03,0.29-0.1
		c0.08-0.07,0.14-0.19,0.18-0.39H82.94z"/>
	<path class="st1" d="M88.52,22.51v0.24H84.5v-0.24h0.33c0.39,0,0.67-0.1,0.85-0.31c0.11-0.13,0.17-0.46,0.17-0.97v-5.55
		c0-0.43-0.03-0.72-0.09-0.85c-0.05-0.11-0.14-0.2-0.29-0.27c-0.2-0.1-0.42-0.15-0.64-0.15H84.5v-0.24h4.02v0.24h-0.34
		c-0.38,0-0.66,0.1-0.84,0.31c-0.11,0.13-0.17,0.46-0.17,0.97v5.55c0,0.43,0.03,0.72,0.09,0.86c0.05,0.11,0.14,0.19,0.29,0.27
		c0.2,0.1,0.41,0.15,0.63,0.15H88.52z"/>
	<path class="st1" d="M96.85,14.17l0.09,2.02h-0.26c-0.05-0.36-0.12-0.61-0.21-0.76c-0.14-0.24-0.33-0.42-0.56-0.54
		c-0.24-0.11-0.54-0.17-0.93-0.17h-1.31v6.56c0,0.52,0.06,0.84,0.19,0.97c0.18,0.17,0.45,0.26,0.83,0.26h0.33v0.24h-4.02v-0.24h0.34
		c0.4,0,0.69-0.11,0.86-0.32c0.1-0.13,0.15-0.44,0.15-0.91v-6.56h-1.13c-0.44,0-0.75,0.03-0.93,0.09c-0.24,0.08-0.45,0.23-0.62,0.46
		c-0.17,0.23-0.27,0.54-0.3,0.92h-0.26l0.09-2.02H96.85z"/>
	<path class="st1" d="M103.86,14.17h3.27v0.24h-0.18c-0.12,0-0.3,0.05-0.52,0.15c-0.23,0.1-0.44,0.24-0.63,0.42
		c-0.19,0.18-0.42,0.48-0.7,0.88l-2.26,3.23v2.19c0,0.52,0.06,0.84,0.2,0.97c0.18,0.17,0.46,0.26,0.84,0.26h0.31v0.24h-4.02v-0.24
		h0.34c0.4,0,0.69-0.11,0.86-0.32c0.1-0.13,0.15-0.44,0.15-0.91v-2.02l-2.55-3.63c-0.3-0.41-0.51-0.67-0.62-0.78
		c-0.11-0.1-0.33-0.23-0.67-0.37c-0.09-0.04-0.23-0.06-0.4-0.06v-0.24h3.98v0.24h-0.21c-0.22,0-0.42,0.05-0.6,0.14
		c-0.18,0.09-0.27,0.23-0.27,0.42c0,0.15,0.14,0.42,0.42,0.82l1.94,2.77l1.85-2.65c0.28-0.4,0.41-0.69,0.41-0.88
		c0-0.12-0.03-0.22-0.1-0.31c-0.07-0.09-0.16-0.16-0.29-0.22c-0.12-0.05-0.31-0.08-0.56-0.08V14.17z"/>
	<rect x="24.8" y="33.88" class="st1" width="82.33" height="0.29"/>
	<path class="st1" d="M27.04,26.56c0.84-0.03,1.53,0.2,2.06,0.68c0.53,0.48,0.79,1.08,0.79,1.8c0,0.62-0.2,1.16-0.59,1.63
		c-0.52,0.62-1.26,0.93-2.21,0.93c-0.95,0-1.69-0.3-2.21-0.89c-0.41-0.47-0.62-1.02-0.62-1.67c0-0.72,0.27-1.32,0.8-1.8
		C25.6,26.76,26.26,26.53,27.04,26.56z M27.09,26.79c-0.49,0-0.86,0.23-1.11,0.68c-0.21,0.37-0.31,0.91-0.31,1.6
		c0,0.83,0.16,1.44,0.48,1.84c0.22,0.28,0.53,0.42,0.93,0.42c0.27,0,0.49-0.06,0.67-0.18c0.23-0.15,0.41-0.4,0.54-0.73
		c0.13-0.34,0.19-0.77,0.19-1.31c0-0.64-0.07-1.12-0.2-1.44c-0.13-0.32-0.3-0.54-0.5-0.67C27.58,26.86,27.35,26.79,27.09,26.79z"/>
	<path class="st1" d="M32.4,26.92v1.99h0.17c0.23,0,0.42-0.03,0.57-0.1c0.15-0.06,0.27-0.17,0.37-0.32c0.1-0.15,0.17-0.36,0.2-0.62
		h0.13v2.45h-0.13c-0.05-0.47-0.18-0.78-0.4-0.92c-0.22-0.15-0.47-0.22-0.74-0.22H32.4v1.49c0,0.25,0.01,0.41,0.04,0.47
		c0.03,0.06,0.09,0.12,0.18,0.17c0.09,0.05,0.21,0.07,0.35,0.07h0.18v0.12h-2.78v-0.12h0.18c0.15,0,0.28-0.03,0.37-0.08
		c0.07-0.03,0.12-0.09,0.16-0.17c0.03-0.06,0.04-0.21,0.04-0.46v-3.19c0-0.25-0.01-0.41-0.04-0.47c-0.03-0.06-0.09-0.12-0.18-0.17
		c-0.09-0.05-0.21-0.07-0.36-0.07h-0.18v-0.12h4.47v1.4h-0.15c-0.04-0.33-0.13-0.57-0.28-0.73c-0.15-0.16-0.37-0.27-0.65-0.33
		c-0.16-0.04-0.45-0.05-0.87-0.05H32.4z"/>
	<path class="st1" d="M41.78,28.92c0.51,0.11,0.86,0.24,1.06,0.39c0.29,0.22,0.44,0.5,0.44,0.84c0,0.37-0.16,0.67-0.48,0.91
		c-0.39,0.29-0.97,0.43-1.72,0.43h-2.7v-0.12c0.25,0,0.42-0.02,0.51-0.06c0.09-0.04,0.15-0.1,0.19-0.17
		c0.04-0.07,0.05-0.24,0.05-0.5v-3.15c0-0.27-0.02-0.44-0.05-0.5c-0.04-0.07-0.1-0.12-0.19-0.17c-0.09-0.04-0.26-0.06-0.51-0.06
		v-0.12h2.55c0.61,0,1.04,0.05,1.3,0.15c0.25,0.1,0.45,0.25,0.6,0.44c0.15,0.2,0.22,0.41,0.22,0.63c0,0.23-0.09,0.44-0.28,0.62
		C42.58,28.67,42.25,28.81,41.78,28.92z M40.37,29.1l-0.01,1.56l0,0.18c0,0.13,0.03,0.22,0.11,0.29c0.07,0.06,0.17,0.1,0.31,0.1
		c0.2,0,0.39-0.04,0.57-0.13c0.17-0.08,0.31-0.21,0.4-0.37c0.09-0.16,0.14-0.34,0.14-0.54c0-0.23-0.05-0.43-0.15-0.61
		c-0.1-0.18-0.25-0.31-0.45-0.38C41.07,29.13,40.77,29.1,40.37,29.1z M40.37,28.83c0.37,0,0.65-0.04,0.82-0.11
		c0.18-0.08,0.31-0.18,0.4-0.32c0.09-0.14,0.14-0.32,0.14-0.53c0-0.21-0.05-0.39-0.14-0.53c-0.09-0.14-0.22-0.24-0.39-0.31
		c-0.17-0.07-0.44-0.11-0.82-0.1L40.37,28.83z"/>
	<path class="st1" d="M48.33,30.1h-1.85l-0.23,0.47c-0.07,0.16-0.11,0.29-0.11,0.4c0,0.14,0.06,0.24,0.18,0.31
		c0.07,0.04,0.24,0.07,0.52,0.09v0.12h-1.76v-0.12c0.19-0.03,0.35-0.1,0.47-0.22c0.12-0.12,0.27-0.37,0.45-0.75l1.89-3.88h0.07
		l1.9,3.98c0.18,0.38,0.33,0.63,0.45,0.73c0.09,0.08,0.21,0.12,0.38,0.13v0.12h-2.55v-0.12h0.11c0.21,0,0.35-0.03,0.43-0.08
		c0.06-0.04,0.09-0.1,0.09-0.17c0-0.04-0.01-0.09-0.02-0.14c-0.01-0.02-0.04-0.11-0.12-0.28L48.33,30.1z M48.2,29.84l-0.79-1.67
		l-0.81,1.67H48.2z"/>
	<path class="st1" d="M54.23,26.64l2.61,2.99v-2.07c0-0.3-0.05-0.5-0.14-0.6c-0.12-0.14-0.33-0.21-0.63-0.2v-0.12h1.74v0.12
		c-0.22,0.03-0.37,0.06-0.45,0.1c-0.08,0.04-0.14,0.11-0.18,0.21c-0.04,0.1-0.06,0.26-0.06,0.5v4.03H57l-3.58-4.05v3.11
		c0,0.28,0.07,0.47,0.21,0.56c0.14,0.1,0.3,0.15,0.48,0.15h0.13v0.12h-1.9v-0.12c0.29,0,0.5-0.06,0.61-0.16
		c0.12-0.11,0.17-0.29,0.17-0.55v-3.44l-0.11-0.13c-0.11-0.13-0.21-0.22-0.3-0.26c-0.09-0.04-0.21-0.07-0.37-0.07v-0.12H54.23z"/>
	<path class="st1" d="M64.99,26.53v1.72h-0.13c-0.18-0.47-0.44-0.83-0.79-1.08c-0.35-0.25-0.73-0.37-1.15-0.37
		c-0.4,0-0.73,0.1-0.99,0.31c-0.26,0.2-0.45,0.49-0.56,0.85c-0.11,0.37-0.16,0.74-0.16,1.12c0,0.47,0.06,0.87,0.18,1.22
		c0.12,0.35,0.31,0.61,0.58,0.77c0.27,0.16,0.58,0.25,0.95,0.25c0.13,0,0.26-0.01,0.39-0.04c0.13-0.02,0.27-0.06,0.41-0.11v-1
		c0-0.19-0.01-0.32-0.04-0.38c-0.03-0.06-0.09-0.11-0.18-0.16s-0.2-0.07-0.32-0.07h-0.14v-0.12h2.58v0.12
		c-0.2,0.01-0.33,0.04-0.41,0.07c-0.08,0.04-0.14,0.1-0.18,0.19C65,29.89,64.99,30,64.99,30.18v1c-0.34,0.14-0.69,0.24-1.06,0.31
		c-0.37,0.07-0.75,0.11-1.14,0.11c-0.5,0-0.92-0.06-1.25-0.19c-0.33-0.12-0.63-0.29-0.88-0.49c-0.25-0.2-0.45-0.43-0.6-0.69
		c-0.18-0.33-0.27-0.7-0.27-1.1c0-0.73,0.28-1.34,0.84-1.85c0.56-0.5,1.27-0.75,2.12-0.75c0.26,0,0.5,0.02,0.71,0.06
		c0.12,0.02,0.3,0.07,0.56,0.16c0.26,0.09,0.41,0.13,0.46,0.13c0.07,0,0.14-0.02,0.2-0.07c0.06-0.05,0.12-0.14,0.17-0.28H64.99z"/>
	<path class="st1" d="M72.21,29.78L72,31.49h-4.71v-0.12h0.18c0.15,0,0.28-0.03,0.37-0.08c0.07-0.03,0.12-0.09,0.16-0.17
		c0.03-0.06,0.04-0.21,0.04-0.46v-3.19c0-0.25-0.01-0.41-0.04-0.47c-0.03-0.06-0.09-0.12-0.18-0.17c-0.09-0.05-0.21-0.07-0.36-0.07
		h-0.18v-0.12h2.83v0.12h-0.23c-0.15,0-0.28,0.03-0.37,0.08c-0.07,0.03-0.12,0.09-0.16,0.17c-0.03,0.06-0.04,0.21-0.04,0.46v3.09
		c0,0.25,0.02,0.41,0.05,0.47c0.03,0.07,0.09,0.12,0.18,0.15c0.06,0.02,0.22,0.03,0.47,0.03h0.44c0.28,0,0.51-0.05,0.7-0.14
		c0.19-0.09,0.35-0.24,0.49-0.43c0.14-0.2,0.27-0.49,0.39-0.87H72.21z"/>
	<path class="st1" d="M77.23,30.1h-1.85l-0.23,0.47c-0.07,0.16-0.11,0.29-0.11,0.4c0,0.14,0.06,0.24,0.18,0.31
		c0.07,0.04,0.24,0.07,0.52,0.09v0.12h-1.76v-0.12c0.19-0.03,0.35-0.1,0.47-0.22c0.12-0.12,0.27-0.37,0.45-0.75l1.89-3.88h0.07
		l1.9,3.98c0.18,0.38,0.33,0.63,0.45,0.73c0.09,0.08,0.21,0.12,0.38,0.13v0.12h-2.55v-0.12h0.11c0.21,0,0.35-0.03,0.43-0.08
		c0.06-0.04,0.09-0.1,0.09-0.17c0-0.04-0.01-0.09-0.02-0.14c-0.01-0.02-0.04-0.11-0.12-0.28L77.23,30.1z M77.11,29.84l-0.79-1.67
		l-0.81,1.67H77.11z"/>
	<path class="st1" d="M81.24,31.49v-0.12h0.18c0.15,0,0.27-0.02,0.36-0.07c0.08-0.05,0.14-0.11,0.18-0.18
		c0.02-0.05,0.04-0.2,0.04-0.46v-3.19c0-0.25-0.01-0.41-0.04-0.47c-0.03-0.06-0.09-0.12-0.18-0.17c-0.09-0.05-0.21-0.07-0.36-0.07
		h-0.18v-0.12h2.38c0.64,0,1.15,0.08,1.53,0.24c0.47,0.19,0.83,0.49,1.08,0.88c0.24,0.39,0.37,0.83,0.37,1.33
		c0,0.34-0.06,0.66-0.18,0.94c-0.12,0.29-0.28,0.53-0.47,0.71c-0.19,0.19-0.41,0.34-0.66,0.45c-0.25,0.11-0.55,0.2-0.92,0.26
		c-0.16,0.03-0.41,0.04-0.75,0.04H81.24z M83.27,26.91v3.78c0,0.2,0.01,0.32,0.03,0.37c0.02,0.05,0.06,0.08,0.11,0.1
		c0.07,0.04,0.17,0.05,0.31,0.05c0.44,0,0.77-0.14,1-0.41c0.31-0.37,0.47-0.94,0.47-1.71c0-0.62-0.11-1.12-0.32-1.49
		c-0.17-0.29-0.39-0.49-0.66-0.59C84.02,26.95,83.71,26.91,83.27,26.91z"/>
	<path class="st1" d="M90.55,26.92v1.97h0.11c0.34,0,0.59-0.1,0.74-0.29c0.15-0.19,0.25-0.48,0.29-0.86h0.13v2.55H91.7
		c-0.03-0.28-0.1-0.5-0.2-0.68c-0.1-0.18-0.22-0.29-0.36-0.36c-0.14-0.06-0.33-0.09-0.59-0.09v1.36c0,0.27,0.01,0.43,0.04,0.49
		c0.02,0.06,0.07,0.11,0.14,0.15c0.07,0.04,0.18,0.06,0.33,0.06h0.32c0.5,0,0.89-0.1,1.19-0.31c0.3-0.21,0.51-0.53,0.64-0.96h0.14
		l-0.24,1.54h-4.59v-0.12h0.18c0.16,0,0.28-0.03,0.37-0.08c0.07-0.03,0.12-0.09,0.16-0.17c0.03-0.06,0.04-0.21,0.04-0.46v-3.19
		c0-0.22-0.01-0.36-0.02-0.41c-0.03-0.08-0.07-0.15-0.15-0.2c-0.1-0.07-0.24-0.1-0.41-0.1h-0.18v-0.12h4.45v1.43h-0.13
		c-0.08-0.35-0.18-0.6-0.32-0.75c-0.14-0.15-0.33-0.26-0.59-0.33c-0.15-0.04-0.42-0.06-0.83-0.06H90.55z"/>
	<path class="st1" d="M98.92,26.53l0.05,1.62h-0.16c-0.08-0.4-0.26-0.73-0.56-0.98c-0.3-0.25-0.62-0.37-0.97-0.37
		c-0.27,0-0.48,0.06-0.64,0.19c-0.16,0.13-0.24,0.28-0.24,0.45c0,0.11,0.03,0.2,0.08,0.29c0.08,0.11,0.2,0.22,0.36,0.33
		c0.12,0.08,0.41,0.22,0.85,0.42c0.62,0.28,1.04,0.54,1.26,0.79c0.21,0.25,0.32,0.53,0.32,0.85c0,0.4-0.17,0.75-0.52,1.05
		c-0.35,0.29-0.79,0.44-1.33,0.44c-0.17,0-0.33-0.02-0.48-0.05c-0.15-0.03-0.34-0.09-0.56-0.18c-0.13-0.05-0.23-0.07-0.31-0.07
		c-0.07,0-0.14,0.02-0.22,0.07c-0.08,0.05-0.14,0.12-0.19,0.22h-0.13v-1.84h0.13c0.12,0.52,0.34,0.91,0.67,1.18
		c0.33,0.27,0.69,0.41,1.07,0.41c0.3,0,0.53-0.07,0.71-0.22c0.17-0.15,0.26-0.31,0.26-0.51c0-0.11-0.03-0.22-0.1-0.33
		c-0.07-0.11-0.17-0.21-0.3-0.31c-0.14-0.1-0.38-0.22-0.72-0.38c-0.48-0.22-0.83-0.4-1.04-0.55c-0.21-0.15-0.37-0.32-0.48-0.51
		c-0.11-0.19-0.17-0.4-0.17-0.62c0-0.39,0.16-0.72,0.47-0.99c0.31-0.27,0.7-0.41,1.18-0.41c0.17,0,0.34,0.02,0.5,0.06
		c0.12,0.03,0.27,0.08,0.45,0.16c0.18,0.08,0.3,0.11,0.37,0.11c0.07,0,0.12-0.02,0.16-0.06c0.04-0.04,0.08-0.13,0.11-0.27H98.92z"/>
	<path class="st1" d="M103.25,29.16v1.5c0,0.25,0.01,0.41,0.05,0.47c0.03,0.06,0.09,0.12,0.18,0.17c0.09,0.05,0.21,0.07,0.35,0.07
		H104v0.12h-2.78v-0.12h0.18c0.15,0,0.28-0.03,0.37-0.08c0.07-0.03,0.12-0.09,0.16-0.17c0.03-0.06,0.04-0.21,0.04-0.46v-3.19
		c0-0.25-0.01-0.41-0.04-0.47c-0.03-0.06-0.09-0.12-0.18-0.17c-0.09-0.05-0.21-0.07-0.36-0.07h-0.18v-0.12H104v0.12h-0.18
		c-0.15,0-0.28,0.03-0.37,0.08c-0.07,0.03-0.12,0.09-0.16,0.17c-0.03,0.06-0.04,0.21-0.04,0.46v1.38h1.86v-1.38
		c0-0.25-0.01-0.41-0.04-0.47c-0.03-0.06-0.09-0.12-0.18-0.17c-0.09-0.05-0.21-0.07-0.36-0.07h-0.17v-0.12h2.78v0.12h-0.17
		c-0.16,0-0.28,0.03-0.37,0.08c-0.07,0.03-0.12,0.09-0.16,0.17c-0.03,0.06-0.04,0.21-0.04,0.46v3.19c0,0.25,0.01,0.41,0.04,0.47
		c0.03,0.06,0.09,0.12,0.18,0.17c0.09,0.05,0.21,0.07,0.36,0.07h0.17v0.12h-2.78v-0.12h0.17c0.16,0,0.28-0.03,0.37-0.08
		c0.07-0.03,0.12-0.09,0.16-0.17c0.03-0.06,0.04-0.21,0.04-0.46v-1.5H103.25z"/>
	<path class="st1" d="M29.27,40.86c0,0.01-0.01,0.02-0.02,0.03c-0.01,0.01-0.02,0.02-0.04,0.02c-0.02,0.01-0.04,0.01-0.06,0.01
		c-0.03,0-0.06,0.01-0.09,0.01c-0.04,0-0.07,0-0.1-0.01c-0.02,0-0.04-0.01-0.06-0.01c-0.01-0.01-0.02-0.01-0.03-0.02
		c0-0.01,0-0.02,0-0.03l0.81-3.71c0-0.01,0.01-0.02,0.02-0.03c0.01-0.01,0.02-0.02,0.04-0.02c0.02-0.01,0.04-0.01,0.06-0.01
		c0.03,0,0.06-0.01,0.09-0.01c0.04,0,0.07,0,0.09,0.01c0.02,0,0.04,0.01,0.06,0.01c0.01,0.01,0.02,0.01,0.03,0.02
		c0,0.01,0.01,0.02,0,0.03L29.27,40.86z"/>
	<path class="st1" d="M33.12,38.77c0,0.07,0,0.14-0.01,0.2c-0.01,0.07-0.02,0.13-0.04,0.2l-0.37,1.68c0,0.01-0.01,0.02-0.02,0.03
		c-0.01,0.01-0.02,0.02-0.04,0.02c-0.02,0.01-0.04,0.01-0.06,0.01c-0.02,0-0.06,0.01-0.1,0.01c-0.04,0-0.07,0-0.09-0.01
		c-0.02,0-0.04-0.01-0.05-0.01c-0.01-0.01-0.02-0.01-0.03-0.02c0-0.01-0.01-0.02,0-0.03l0.37-1.68c0.02-0.07,0.03-0.13,0.03-0.2
		c0.01-0.06,0.01-0.11,0.01-0.16c0-0.14-0.03-0.25-0.1-0.33c-0.06-0.08-0.17-0.12-0.32-0.12c-0.13,0-0.26,0.03-0.39,0.1
		c-0.13,0.07-0.25,0.16-0.37,0.27c-0.11,0.12-0.21,0.25-0.3,0.41c-0.09,0.16-0.15,0.33-0.19,0.52l-0.26,1.19
		c0,0.01-0.01,0.02-0.02,0.03c-0.01,0.01-0.02,0.02-0.04,0.02c-0.02,0.01-0.04,0.01-0.06,0.01c-0.03,0-0.06,0.01-0.09,0.01
		c-0.04,0-0.07,0-0.09-0.01c-0.02,0-0.04-0.01-0.05-0.01c-0.01-0.01-0.02-0.01-0.03-0.02c0-0.01,0-0.02,0-0.03l0.59-2.68
		c0-0.01,0.01-0.02,0.01-0.03c0.01-0.01,0.02-0.02,0.03-0.03c0.02-0.01,0.03-0.01,0.06-0.01c0.02,0,0.05,0,0.08,0
		c0.03,0,0.06,0,0.08,0c0.02,0,0.04,0.01,0.05,0.01c0.01,0.01,0.02,0.02,0.02,0.03c0,0.01,0,0.02,0,0.03l-0.12,0.55
		c0.03-0.07,0.08-0.14,0.15-0.21c0.07-0.08,0.16-0.15,0.26-0.21c0.1-0.07,0.22-0.12,0.34-0.16c0.12-0.04,0.26-0.06,0.39-0.06
		c0.14,0,0.26,0.02,0.35,0.06c0.09,0.04,0.17,0.09,0.23,0.16c0.06,0.07,0.1,0.14,0.12,0.22C33.11,38.59,33.12,38.68,33.12,38.77z"/>
	<path class="st1" d="M35.89,38.34c0,0.02,0,0.04-0.01,0.06c-0.01,0.02-0.01,0.05-0.02,0.07c-0.01,0.02-0.02,0.04-0.04,0.06
		c-0.01,0.02-0.03,0.02-0.04,0.02c-0.03,0-0.06-0.01-0.09-0.03c-0.03-0.02-0.08-0.04-0.13-0.07c-0.05-0.03-0.11-0.05-0.18-0.07
		c-0.07-0.02-0.16-0.03-0.26-0.03c-0.11,0-0.2,0.01-0.28,0.04c-0.08,0.03-0.15,0.07-0.21,0.12c-0.05,0.05-0.1,0.1-0.12,0.17
		c-0.03,0.06-0.04,0.13-0.04,0.19c0,0.09,0.03,0.16,0.09,0.22c0.06,0.06,0.13,0.11,0.22,0.15c0.09,0.04,0.18,0.09,0.29,0.13
		c0.1,0.04,0.2,0.09,0.29,0.15c0.09,0.06,0.16,0.13,0.22,0.21c0.06,0.08,0.09,0.18,0.09,0.3c0,0.13-0.03,0.26-0.09,0.37
		c-0.06,0.11-0.14,0.21-0.25,0.29c-0.11,0.08-0.23,0.15-0.38,0.19c-0.15,0.05-0.32,0.07-0.5,0.07c-0.1,0-0.19-0.01-0.28-0.02
		c-0.09-0.01-0.17-0.03-0.24-0.05c-0.07-0.02-0.13-0.05-0.18-0.07c-0.05-0.03-0.09-0.05-0.12-0.08c-0.02-0.02-0.03-0.03-0.04-0.05
		c-0.01-0.02-0.01-0.03-0.01-0.06c0-0.02,0-0.03,0-0.05c0-0.02,0.01-0.04,0.01-0.05c0.01-0.02,0.01-0.03,0.02-0.05
		c0.01-0.02,0.01-0.03,0.02-0.04c0.01-0.01,0.02-0.02,0.03-0.03c0.01-0.01,0.02-0.01,0.03-0.01c0.03,0,0.06,0.01,0.09,0.04
		c0.04,0.03,0.08,0.06,0.14,0.09c0.06,0.03,0.13,0.06,0.22,0.09c0.09,0.03,0.2,0.04,0.34,0.04c0.13,0,0.25-0.02,0.35-0.05
		c0.1-0.03,0.18-0.07,0.24-0.12c0.06-0.05,0.11-0.11,0.14-0.18c0.03-0.07,0.05-0.14,0.05-0.21c0-0.09-0.03-0.16-0.09-0.22
		c-0.06-0.06-0.13-0.11-0.22-0.15c-0.09-0.05-0.18-0.09-0.29-0.13c-0.1-0.04-0.2-0.09-0.29-0.15c-0.09-0.06-0.16-0.12-0.22-0.2
		c-0.06-0.08-0.09-0.18-0.09-0.31c0-0.13,0.03-0.24,0.08-0.35c0.05-0.11,0.13-0.2,0.23-0.28c0.1-0.08,0.21-0.14,0.35-0.18
		c0.13-0.04,0.28-0.06,0.44-0.06c0.08,0,0.15,0.01,0.22,0.02c0.07,0.01,0.14,0.03,0.2,0.04c0.06,0.02,0.12,0.04,0.16,0.06
		c0.05,0.02,0.08,0.04,0.11,0.07C35.88,38.27,35.89,38.3,35.89,38.34z"/>
	<path class="st1" d="M39.15,39.01c0,0.11-0.01,0.23-0.03,0.37c-0.02,0.14-0.06,0.28-0.11,0.43c-0.05,0.14-0.11,0.29-0.19,0.43
		c-0.08,0.14-0.18,0.26-0.29,0.37c-0.11,0.11-0.24,0.2-0.39,0.26c-0.15,0.07-0.32,0.1-0.51,0.1c-0.1,0-0.19-0.01-0.28-0.03
		c-0.08-0.02-0.16-0.05-0.23-0.08c-0.07-0.03-0.13-0.07-0.19-0.12c-0.06-0.05-0.11-0.09-0.16-0.15l-0.29,1.33
		c0,0.01-0.01,0.02-0.01,0.03c-0.01,0.01-0.02,0.02-0.03,0.03c-0.02,0.01-0.04,0.01-0.06,0.01c-0.02,0-0.06,0-0.1,0
		c-0.04,0-0.07,0-0.09,0c-0.02,0-0.04-0.01-0.06-0.01c-0.01-0.01-0.02-0.02-0.03-0.03c0-0.01-0.01-0.02,0-0.03l0.82-3.74
		c0-0.03,0.02-0.05,0.05-0.06c0.03-0.01,0.08-0.02,0.14-0.02c0.03,0,0.06,0,0.08,0c0.02,0,0.04,0.01,0.05,0.01
		c0.01,0.01,0.02,0.01,0.02,0.02c0,0.01,0,0.02,0,0.04l-0.12,0.55c0.03-0.07,0.08-0.14,0.15-0.21c0.07-0.08,0.16-0.15,0.26-0.21
		c0.1-0.07,0.22-0.12,0.34-0.16c0.12-0.04,0.25-0.06,0.38-0.06c0.16,0,0.3,0.02,0.41,0.07c0.11,0.05,0.2,0.12,0.27,0.2
		c0.07,0.08,0.12,0.18,0.15,0.3C39.14,38.75,39.15,38.87,39.15,39.01z M38.74,39.02c0-0.09-0.01-0.18-0.03-0.26
		c-0.02-0.08-0.05-0.15-0.09-0.21c-0.04-0.06-0.09-0.1-0.16-0.14c-0.07-0.03-0.15-0.05-0.24-0.05c-0.13,0-0.26,0.03-0.39,0.1
		c-0.13,0.06-0.25,0.15-0.37,0.27c-0.11,0.11-0.21,0.25-0.3,0.41c-0.09,0.16-0.15,0.33-0.19,0.53l-0.12,0.54
		c0.12,0.15,0.24,0.27,0.37,0.34c0.13,0.08,0.28,0.11,0.44,0.11c0.13,0,0.24-0.03,0.35-0.08c0.1-0.05,0.2-0.13,0.27-0.22
		c0.08-0.09,0.15-0.19,0.21-0.31c0.06-0.12,0.11-0.23,0.14-0.36c0.04-0.12,0.07-0.24,0.08-0.36C38.73,39.22,38.74,39.11,38.74,39.02
		z"/>
	<path class="st1" d="M40.07,40.86c0,0.01-0.01,0.02-0.02,0.03c-0.01,0.01-0.02,0.02-0.04,0.02c-0.02,0.01-0.04,0.01-0.06,0.01
		c-0.03,0-0.06,0.01-0.09,0.01c-0.04,0-0.07,0-0.09-0.01c-0.02,0-0.04-0.01-0.05-0.01c-0.01-0.01-0.02-0.01-0.03-0.02
		c0-0.01,0-0.02,0-0.03l0.58-2.68c0-0.01,0.01-0.02,0.01-0.03c0.01-0.01,0.02-0.02,0.04-0.03c0.02-0.01,0.04-0.01,0.06-0.01
		c0.03,0,0.06,0,0.1,0c0.04,0,0.07,0,0.09,0c0.02,0,0.04,0.01,0.05,0.01c0.01,0.01,0.02,0.02,0.02,0.03c0,0.01,0,0.02,0,0.03
		L40.07,40.86z M40.91,37.28c-0.01,0.05-0.02,0.08-0.03,0.11c-0.01,0.03-0.03,0.06-0.06,0.07c-0.02,0.02-0.05,0.03-0.09,0.04
		c-0.03,0.01-0.08,0.01-0.13,0.01c-0.05,0-0.09,0-0.12-0.01c-0.03-0.01-0.05-0.02-0.07-0.04c-0.01-0.02-0.02-0.04-0.02-0.07
		c0-0.03,0-0.07,0.01-0.11c0.01-0.05,0.02-0.08,0.04-0.11c0.02-0.03,0.03-0.06,0.06-0.08c0.02-0.02,0.05-0.03,0.09-0.04
		c0.03-0.01,0.08-0.01,0.13-0.01c0.05,0,0.09,0,0.12,0.01c0.03,0.01,0.05,0.02,0.07,0.04c0.02,0.02,0.02,0.04,0.02,0.08
		C40.93,37.19,40.92,37.23,40.91,37.28z"/>
	<path class="st1" d="M43.29,38.2c0,0.01,0,0.02,0,0.03c0,0.02,0,0.03-0.01,0.05c0,0.02-0.01,0.04-0.01,0.06
		c-0.01,0.02-0.01,0.04-0.02,0.06c-0.01,0.02-0.02,0.03-0.03,0.04c-0.01,0.01-0.02,0.02-0.04,0.02c-0.02,0-0.03,0-0.05-0.01
		c-0.02-0.01-0.04-0.02-0.07-0.03c-0.03-0.01-0.06-0.02-0.09-0.03c-0.03-0.01-0.07-0.01-0.12-0.01c-0.08,0-0.16,0.03-0.27,0.09
		c-0.1,0.06-0.2,0.15-0.31,0.26c-0.1,0.11-0.2,0.25-0.28,0.4c-0.09,0.16-0.15,0.33-0.19,0.51l-0.26,1.19c0,0.01-0.01,0.02-0.02,0.03
		c-0.01,0.01-0.02,0.02-0.04,0.02c-0.02,0.01-0.04,0.01-0.06,0.01c-0.03,0-0.06,0.01-0.09,0.01c-0.04,0-0.07,0-0.09-0.01
		c-0.02,0-0.04-0.01-0.05-0.01c-0.01-0.01-0.02-0.01-0.03-0.02c0-0.01,0-0.02,0-0.03l0.58-2.68c0-0.01,0.01-0.02,0.02-0.03
		c0.01-0.01,0.02-0.02,0.04-0.03c0.02-0.01,0.04-0.01,0.06-0.01c0.02,0,0.05,0,0.08,0c0.03,0,0.06,0,0.08,0
		c0.02,0,0.04,0.01,0.05,0.01c0.01,0.01,0.02,0.02,0.02,0.03c0,0.01,0,0.02,0,0.03l-0.11,0.52c0.05-0.08,0.11-0.16,0.17-0.24
		c0.07-0.08,0.14-0.14,0.22-0.2c0.08-0.06,0.17-0.11,0.26-0.14c0.09-0.04,0.18-0.05,0.27-0.05c0.04,0,0.08,0,0.12,0.01
		c0.04,0,0.08,0.01,0.11,0.02c0.03,0.01,0.06,0.02,0.09,0.03c0.03,0.01,0.05,0.02,0.06,0.03C43.28,38.16,43.29,38.18,43.29,38.2z"/>
	<path class="st1" d="M43.77,40.86c0,0.01-0.01,0.02-0.02,0.03c-0.01,0.01-0.02,0.02-0.04,0.02c-0.02,0.01-0.04,0.01-0.06,0.01
		c-0.03,0-0.06,0.01-0.09,0.01c-0.04,0-0.07,0-0.09-0.01c-0.02,0-0.04-0.01-0.05-0.01c-0.01-0.01-0.02-0.01-0.03-0.02
		c0-0.01,0-0.02,0-0.03l0.58-2.68c0-0.01,0.01-0.02,0.01-0.03c0.01-0.01,0.02-0.02,0.04-0.03c0.02-0.01,0.04-0.01,0.06-0.01
		c0.03,0,0.06,0,0.1,0c0.04,0,0.07,0,0.09,0c0.02,0,0.04,0.01,0.05,0.01c0.01,0.01,0.02,0.02,0.02,0.03c0,0.01,0,0.02,0,0.03
		L43.77,40.86z M44.61,37.28c-0.01,0.05-0.02,0.08-0.03,0.11c-0.01,0.03-0.03,0.06-0.06,0.07c-0.02,0.02-0.05,0.03-0.09,0.04
		c-0.03,0.01-0.08,0.01-0.13,0.01c-0.05,0-0.09,0-0.12-0.01c-0.03-0.01-0.05-0.02-0.07-0.04c-0.01-0.02-0.02-0.04-0.02-0.07
		c0-0.03,0-0.07,0.01-0.11c0.01-0.05,0.02-0.08,0.04-0.11c0.02-0.03,0.03-0.06,0.06-0.08c0.02-0.02,0.05-0.03,0.09-0.04
		c0.03-0.01,0.08-0.01,0.13-0.01c0.05,0,0.09,0,0.12,0.01c0.03,0.01,0.05,0.02,0.07,0.04c0.02,0.02,0.02,0.04,0.02,0.08
		C44.62,37.19,44.62,37.23,44.61,37.28z"/>
	<path class="st1" d="M47.55,38.77c0,0.07,0,0.14-0.01,0.2c-0.01,0.07-0.02,0.13-0.04,0.2l-0.37,1.68c0,0.01-0.01,0.02-0.02,0.03
		c-0.01,0.01-0.02,0.02-0.04,0.02c-0.02,0.01-0.04,0.01-0.06,0.01c-0.02,0-0.06,0.01-0.1,0.01c-0.04,0-0.07,0-0.09-0.01
		c-0.02,0-0.04-0.01-0.05-0.01c-0.01-0.01-0.02-0.01-0.03-0.02c0-0.01-0.01-0.02,0-0.03l0.37-1.68c0.02-0.07,0.03-0.13,0.03-0.2
		c0.01-0.06,0.01-0.11,0.01-0.16c0-0.14-0.03-0.25-0.1-0.33c-0.06-0.08-0.17-0.12-0.32-0.12c-0.13,0-0.26,0.03-0.39,0.1
		c-0.13,0.07-0.25,0.16-0.37,0.27c-0.11,0.12-0.21,0.25-0.3,0.41c-0.09,0.16-0.15,0.33-0.19,0.52l-0.26,1.19
		c0,0.01-0.01,0.02-0.02,0.03c-0.01,0.01-0.02,0.02-0.04,0.02c-0.02,0.01-0.04,0.01-0.06,0.01c-0.03,0-0.06,0.01-0.09,0.01
		c-0.04,0-0.07,0-0.09-0.01c-0.02,0-0.04-0.01-0.05-0.01c-0.01-0.01-0.02-0.01-0.03-0.02c0-0.01,0-0.02,0-0.03l0.59-2.68
		c0-0.01,0.01-0.02,0.01-0.03c0.01-0.01,0.02-0.02,0.03-0.03c0.02-0.01,0.03-0.01,0.06-0.01c0.02,0,0.05,0,0.08,0
		c0.03,0,0.06,0,0.08,0c0.02,0,0.04,0.01,0.05,0.01c0.01,0.01,0.02,0.02,0.02,0.03c0,0.01,0,0.02,0,0.03l-0.12,0.55
		c0.03-0.07,0.08-0.14,0.15-0.21c0.07-0.08,0.16-0.15,0.26-0.21c0.1-0.07,0.22-0.12,0.34-0.16c0.12-0.04,0.26-0.06,0.39-0.06
		c0.14,0,0.26,0.02,0.35,0.06c0.09,0.04,0.17,0.09,0.23,0.16c0.06,0.07,0.1,0.14,0.12,0.22C47.53,38.59,47.55,38.68,47.55,38.77z"/>
	<path class="st1" d="M50.41,41.12c-0.03,0.15-0.08,0.27-0.16,0.38c-0.07,0.11-0.16,0.2-0.27,0.27c-0.11,0.07-0.24,0.13-0.39,0.16
		C49.44,41.98,49.28,42,49.1,42c-0.17,0-0.34-0.02-0.48-0.05c-0.15-0.04-0.26-0.08-0.35-0.13c-0.03-0.02-0.05-0.04-0.07-0.06
		c-0.01-0.02-0.02-0.04-0.02-0.07c0-0.01,0-0.03,0-0.04c0-0.02,0-0.03,0.01-0.05c0-0.02,0.01-0.03,0.02-0.05
		c0.01-0.02,0.01-0.03,0.02-0.04c0.01-0.01,0.02-0.02,0.04-0.03c0.01-0.01,0.03-0.01,0.05-0.01c0.03,0,0.06,0.01,0.1,0.04
		c0.04,0.02,0.09,0.05,0.16,0.08c0.07,0.03,0.15,0.06,0.25,0.08c0.1,0.02,0.22,0.04,0.36,0.04c0.12,0,0.23-0.01,0.33-0.04
		c0.1-0.02,0.18-0.06,0.26-0.11c0.07-0.05,0.13-0.11,0.18-0.18c0.05-0.07,0.08-0.16,0.1-0.26c0.04-0.21,0.08-0.38,0.13-0.51
		c0.04-0.14,0.07-0.24,0.1-0.31c-0.03,0.08-0.09,0.15-0.16,0.23c-0.08,0.08-0.17,0.15-0.27,0.22c-0.1,0.07-0.22,0.12-0.34,0.17
		c-0.12,0.04-0.25,0.07-0.38,0.07c-0.16,0-0.3-0.02-0.41-0.07c-0.11-0.05-0.2-0.11-0.27-0.2c-0.07-0.08-0.12-0.18-0.15-0.3
		c-0.03-0.11-0.04-0.24-0.04-0.37c0-0.11,0.01-0.23,0.03-0.37c0.02-0.14,0.06-0.28,0.11-0.43c0.05-0.14,0.12-0.29,0.19-0.43
		c0.08-0.14,0.17-0.26,0.29-0.37c0.11-0.11,0.24-0.2,0.39-0.26c0.15-0.07,0.32-0.1,0.5-0.1c0.2,0,0.37,0.04,0.5,0.11
		c0.14,0.07,0.26,0.17,0.37,0.29l0.07-0.29c0.01-0.03,0.03-0.05,0.06-0.06c0.03-0.01,0.08-0.02,0.14-0.02c0.03,0,0.06,0,0.08,0
		c0.02,0,0.04,0.01,0.05,0.01c0.01,0.01,0.02,0.02,0.02,0.03c0,0.01,0,0.02,0,0.03L50.41,41.12z M50.53,38.82
		c-0.12-0.15-0.24-0.27-0.37-0.34c-0.13-0.08-0.28-0.11-0.44-0.11c-0.13,0-0.25,0.03-0.35,0.08c-0.1,0.06-0.2,0.13-0.27,0.22
		c-0.08,0.09-0.15,0.19-0.21,0.31c-0.06,0.12-0.11,0.24-0.14,0.36c-0.04,0.12-0.06,0.24-0.08,0.36c-0.02,0.12-0.03,0.22-0.03,0.31
		c0,0.09,0.01,0.18,0.03,0.26c0.02,0.08,0.05,0.15,0.09,0.21c0.04,0.06,0.09,0.1,0.16,0.14c0.06,0.03,0.14,0.05,0.24,0.05
		c0.13,0,0.26-0.03,0.39-0.1c0.13-0.06,0.25-0.15,0.37-0.27c0.11-0.12,0.21-0.25,0.3-0.41c0.09-0.16,0.15-0.33,0.2-0.53L50.53,38.82
		z"/>
	<path class="st1" d="M56.1,40.79c0.01,0.03,0.01,0.05,0,0.07c0,0.02-0.01,0.03-0.03,0.04c-0.02,0.01-0.04,0.02-0.07,0.02
		c-0.03,0-0.07,0-0.12,0c-0.03,0-0.06,0-0.08,0c-0.02,0-0.04-0.01-0.06-0.01c-0.01-0.01-0.02-0.01-0.03-0.02
		c-0.01-0.01-0.01-0.02-0.01-0.04l-0.18-1.02h-1.83l-0.61,1.02c-0.01,0.01-0.02,0.03-0.03,0.04c-0.01,0.01-0.03,0.02-0.04,0.02
		c-0.02,0.01-0.04,0.01-0.07,0.01c-0.03,0-0.06,0-0.1,0c-0.05,0-0.08,0-0.11-0.01c-0.03,0-0.05-0.01-0.07-0.02
		c-0.01-0.01-0.02-0.02-0.02-0.04c0-0.02,0.01-0.04,0.03-0.07l2.26-3.65c0.01-0.02,0.02-0.03,0.04-0.04
		c0.02-0.01,0.03-0.02,0.05-0.03c0.02-0.01,0.05-0.01,0.08-0.01c0.03,0,0.06,0,0.1,0c0.04,0,0.07,0,0.1,0
		c0.03,0,0.05,0.01,0.07,0.01c0.02,0.01,0.04,0.01,0.05,0.03c0.01,0.01,0.02,0.02,0.02,0.04L56.1,40.79z M55.11,37.47L55.11,37.47
		l-1.24,2.06h1.6L55.11,37.47z"/>
	<path class="st1" d="M59.59,39.01c0,0.11-0.01,0.23-0.03,0.37c-0.02,0.14-0.06,0.28-0.11,0.43c-0.05,0.14-0.11,0.29-0.19,0.43
		c-0.08,0.14-0.18,0.26-0.29,0.37c-0.11,0.11-0.24,0.2-0.39,0.26c-0.15,0.07-0.32,0.1-0.51,0.1c-0.1,0-0.19-0.01-0.28-0.03
		c-0.08-0.02-0.16-0.05-0.23-0.08c-0.07-0.03-0.13-0.07-0.19-0.12c-0.06-0.05-0.11-0.09-0.16-0.15l-0.29,1.33
		c0,0.01-0.01,0.02-0.01,0.03c-0.01,0.01-0.02,0.02-0.03,0.03c-0.01,0.01-0.04,0.01-0.06,0.01c-0.02,0-0.06,0-0.1,0
		c-0.04,0-0.07,0-0.09,0c-0.02,0-0.04-0.01-0.06-0.01c-0.01-0.01-0.02-0.02-0.03-0.03c0-0.01-0.01-0.02,0-0.03l0.82-3.74
		c0-0.03,0.02-0.05,0.05-0.06c0.03-0.01,0.08-0.02,0.14-0.02c0.03,0,0.06,0,0.08,0c0.02,0,0.04,0.01,0.05,0.01
		c0.01,0.01,0.02,0.01,0.02,0.02c0,0.01,0,0.02,0,0.04l-0.12,0.55c0.03-0.07,0.08-0.14,0.15-0.21c0.07-0.08,0.16-0.15,0.26-0.21
		c0.1-0.07,0.22-0.12,0.34-0.16c0.12-0.04,0.25-0.06,0.38-0.06c0.16,0,0.3,0.02,0.41,0.07c0.11,0.05,0.2,0.12,0.27,0.2
		c0.07,0.08,0.12,0.18,0.15,0.3C59.58,38.75,59.59,38.87,59.59,39.01z M59.18,39.02c0-0.09-0.01-0.18-0.03-0.26
		c-0.02-0.08-0.05-0.15-0.09-0.21c-0.04-0.06-0.09-0.1-0.16-0.14c-0.07-0.03-0.15-0.05-0.24-0.05c-0.13,0-0.26,0.03-0.39,0.1
		c-0.13,0.06-0.25,0.15-0.37,0.27c-0.11,0.11-0.21,0.25-0.3,0.41c-0.09,0.16-0.15,0.33-0.19,0.53l-0.12,0.54
		c0.12,0.15,0.24,0.27,0.37,0.34c0.13,0.08,0.28,0.11,0.44,0.11c0.13,0,0.24-0.03,0.35-0.08c0.1-0.05,0.2-0.13,0.27-0.22
		c0.08-0.09,0.15-0.19,0.21-0.31c0.06-0.12,0.11-0.23,0.14-0.36c0.04-0.12,0.06-0.24,0.08-0.36C59.18,39.22,59.18,39.11,59.18,39.02
		z"/>
	<path class="st1" d="M62.94,39.01c0,0.11-0.01,0.23-0.03,0.37c-0.02,0.14-0.06,0.28-0.11,0.43c-0.05,0.14-0.11,0.29-0.19,0.43
		c-0.08,0.14-0.18,0.26-0.29,0.37c-0.11,0.11-0.24,0.2-0.39,0.26c-0.15,0.07-0.32,0.1-0.51,0.1c-0.1,0-0.19-0.01-0.28-0.03
		c-0.08-0.02-0.16-0.05-0.23-0.08c-0.07-0.03-0.13-0.07-0.19-0.12c-0.06-0.05-0.11-0.09-0.16-0.15l-0.29,1.33
		c0,0.01-0.01,0.02-0.01,0.03c-0.01,0.01-0.02,0.02-0.03,0.03c-0.01,0.01-0.04,0.01-0.06,0.01c-0.02,0-0.06,0-0.1,0
		c-0.04,0-0.07,0-0.09,0c-0.02,0-0.04-0.01-0.06-0.01c-0.01-0.01-0.02-0.02-0.03-0.03c0-0.01-0.01-0.02,0-0.03l0.82-3.74
		c0-0.03,0.02-0.05,0.05-0.06c0.03-0.01,0.08-0.02,0.14-0.02c0.03,0,0.06,0,0.08,0c0.02,0,0.04,0.01,0.05,0.01
		c0.01,0.01,0.02,0.01,0.02,0.02c0,0.01,0,0.02,0,0.04l-0.12,0.55c0.03-0.07,0.08-0.14,0.15-0.21c0.07-0.08,0.16-0.15,0.26-0.21
		c0.1-0.07,0.22-0.12,0.34-0.16c0.12-0.04,0.25-0.06,0.38-0.06c0.16,0,0.3,0.02,0.41,0.07c0.11,0.05,0.2,0.12,0.27,0.2
		c0.07,0.08,0.12,0.18,0.15,0.3C62.93,38.75,62.94,38.87,62.94,39.01z M62.54,39.02c0-0.09-0.01-0.18-0.03-0.26
		c-0.02-0.08-0.05-0.15-0.09-0.21c-0.04-0.06-0.09-0.1-0.16-0.14c-0.07-0.03-0.15-0.05-0.24-0.05c-0.13,0-0.26,0.03-0.39,0.1
		c-0.13,0.06-0.25,0.15-0.37,0.27c-0.11,0.11-0.21,0.25-0.3,0.41c-0.09,0.16-0.15,0.33-0.19,0.53l-0.12,0.54
		c0.12,0.15,0.24,0.27,0.37,0.34c0.13,0.08,0.28,0.11,0.44,0.11c0.13,0,0.24-0.03,0.35-0.08c0.1-0.05,0.2-0.13,0.27-0.22
		c0.08-0.09,0.15-0.19,0.21-0.31c0.06-0.12,0.11-0.23,0.14-0.36c0.04-0.12,0.06-0.24,0.08-0.36C62.53,39.22,62.54,39.11,62.54,39.02
		z"/>
	<path class="st1" d="M63.87,40.86c0,0.01-0.01,0.02-0.02,0.03c-0.01,0.01-0.02,0.02-0.04,0.02c-0.02,0.01-0.04,0.01-0.06,0.01
		c-0.03,0-0.06,0.01-0.09,0.01c-0.04,0-0.07,0-0.09-0.01c-0.02,0-0.04-0.01-0.06-0.01c-0.01-0.01-0.02-0.01-0.03-0.02
		c0-0.01,0-0.02,0-0.03l0.87-3.99c0-0.01,0.01-0.02,0.01-0.03c0.01-0.01,0.02-0.02,0.04-0.02c0.02-0.01,0.04-0.01,0.06-0.01
		c0.03,0,0.06,0,0.1,0c0.04,0,0.07,0,0.09,0c0.02,0,0.04,0.01,0.06,0.01c0.01,0.01,0.02,0.02,0.02,0.02c0,0.01,0,0.02,0,0.03
		L63.87,40.86z"/>
	<path class="st1" d="M65.33,40.86c0,0.01-0.01,0.02-0.02,0.03c-0.01,0.01-0.02,0.02-0.04,0.02c-0.02,0.01-0.04,0.01-0.06,0.01
		c-0.03,0-0.06,0.01-0.09,0.01c-0.04,0-0.07,0-0.09-0.01c-0.02,0-0.04-0.01-0.05-0.01c-0.01-0.01-0.02-0.01-0.03-0.02
		c0-0.01,0-0.02,0-0.03l0.58-2.68c0-0.01,0.01-0.02,0.01-0.03c0.01-0.01,0.02-0.02,0.04-0.03c0.02-0.01,0.04-0.01,0.06-0.01
		c0.03,0,0.06,0,0.1,0c0.04,0,0.07,0,0.09,0c0.02,0,0.04,0.01,0.06,0.01c0.01,0.01,0.02,0.02,0.02,0.03c0,0.01,0,0.02,0,0.03
		L65.33,40.86z M66.17,37.28c-0.01,0.05-0.02,0.08-0.03,0.11c-0.01,0.03-0.03,0.06-0.06,0.07c-0.02,0.02-0.05,0.03-0.09,0.04
		c-0.03,0.01-0.08,0.01-0.13,0.01c-0.05,0-0.09,0-0.12-0.01c-0.03-0.01-0.05-0.02-0.07-0.04c-0.01-0.02-0.02-0.04-0.02-0.07
		c0-0.03,0-0.07,0.01-0.11c0.01-0.05,0.02-0.08,0.04-0.11c0.02-0.03,0.03-0.06,0.06-0.08c0.02-0.02,0.05-0.03,0.09-0.04
		c0.03-0.01,0.08-0.01,0.13-0.01c0.05,0,0.09,0,0.12,0.01c0.03,0.01,0.05,0.02,0.07,0.04c0.01,0.02,0.02,0.04,0.02,0.08
		C66.18,37.19,66.18,37.23,66.17,37.28z"/>
	<path class="st1" d="M69.06,38.7c0,0.13-0.03,0.25-0.1,0.36c-0.07,0.11-0.17,0.2-0.32,0.27c-0.15,0.08-0.33,0.13-0.56,0.17
		c-0.23,0.04-0.5,0.06-0.82,0.06h-0.37c-0.01,0.08-0.03,0.15-0.03,0.22c-0.01,0.07-0.01,0.14-0.01,0.2c0,0.22,0.06,0.39,0.17,0.5
		c0.12,0.12,0.3,0.18,0.56,0.18c0.14,0,0.26-0.01,0.36-0.03c0.11-0.02,0.2-0.04,0.28-0.06c0.08-0.02,0.14-0.04,0.19-0.06
		c0.05-0.02,0.08-0.03,0.1-0.03c0.02,0,0.03,0.01,0.04,0.02c0.01,0.01,0.01,0.03,0.01,0.05c0,0.01,0,0.03,0,0.05
		c0,0.02-0.01,0.04-0.01,0.06c-0.01,0.02-0.02,0.04-0.03,0.06c-0.01,0.02-0.02,0.04-0.04,0.05c-0.03,0.02-0.07,0.05-0.13,0.07
		c-0.06,0.02-0.14,0.04-0.22,0.06c-0.09,0.02-0.18,0.03-0.28,0.04c-0.1,0.01-0.2,0.02-0.3,0.02c-0.19,0-0.35-0.02-0.48-0.06
		c-0.14-0.04-0.25-0.1-0.34-0.18c-0.09-0.08-0.16-0.18-0.21-0.3c-0.05-0.12-0.07-0.26-0.07-0.42c0-0.13,0.01-0.26,0.04-0.41
		c0.03-0.15,0.07-0.29,0.13-0.43c0.06-0.14,0.13-0.28,0.22-0.41c0.09-0.13,0.2-0.25,0.32-0.35c0.12-0.1,0.27-0.18,0.43-0.24
		c0.16-0.06,0.35-0.09,0.55-0.09c0.17,0,0.31,0.02,0.43,0.06c0.12,0.04,0.22,0.09,0.29,0.15c0.07,0.06,0.13,0.13,0.16,0.21
		C69.05,38.56,69.06,38.63,69.06,38.7z M68.66,38.74c0-0.11-0.05-0.2-0.15-0.27c-0.1-0.07-0.23-0.1-0.41-0.1
		c-0.16,0-0.29,0.02-0.42,0.07c-0.12,0.05-0.23,0.12-0.32,0.2c-0.09,0.08-0.17,0.18-0.24,0.29c-0.07,0.11-0.12,0.22-0.16,0.34h0.36
		c0.26,0,0.47-0.01,0.64-0.04c0.17-0.03,0.31-0.07,0.41-0.12c0.1-0.05,0.17-0.11,0.22-0.17C68.64,38.88,68.66,38.81,68.66,38.74z"/>
	<path class="st1" d="M71.79,40.86c0,0.03-0.02,0.05-0.05,0.06c-0.03,0.01-0.08,0.02-0.14,0.02c-0.03,0-0.06,0-0.08,0
		c-0.02,0-0.04-0.01-0.05-0.01c-0.01-0.01-0.02-0.01-0.03-0.02c0-0.01,0-0.02,0-0.04l0.11-0.54c-0.03,0.07-0.08,0.14-0.15,0.21
		c-0.07,0.08-0.16,0.15-0.26,0.21c-0.1,0.07-0.22,0.12-0.34,0.16c-0.12,0.04-0.25,0.06-0.38,0.06c-0.13,0-0.24-0.02-0.34-0.05
		c-0.09-0.03-0.17-0.08-0.24-0.13c-0.06-0.05-0.11-0.11-0.15-0.18c-0.04-0.07-0.07-0.14-0.09-0.21c-0.02-0.07-0.03-0.14-0.04-0.21
		c-0.01-0.07-0.01-0.13-0.01-0.18c0-0.11,0.01-0.23,0.03-0.37c0.02-0.14,0.06-0.28,0.11-0.42c0.05-0.14,0.12-0.28,0.19-0.42
		c0.08-0.14,0.17-0.26,0.29-0.37c0.11-0.11,0.24-0.19,0.39-0.26c0.15-0.07,0.32-0.1,0.5-0.1c0.1,0,0.19,0.01,0.27,0.03
		c0.08,0.02,0.16,0.05,0.23,0.08c0.07,0.03,0.13,0.08,0.19,0.12c0.06,0.05,0.11,0.1,0.16,0.15l0.34-1.57c0-0.01,0.01-0.02,0.01-0.03
		c0.01-0.01,0.02-0.02,0.03-0.02c0.02-0.01,0.04-0.01,0.06-0.01c0.02,0,0.06-0.01,0.1-0.01c0.04,0,0.07,0,0.09,0.01
		c0.02,0,0.04,0.01,0.06,0.01c0.01,0.01,0.02,0.01,0.03,0.02c0,0.01,0,0.02,0,0.03L71.79,40.86z M71.85,38.83
		c-0.12-0.15-0.24-0.27-0.37-0.35c-0.13-0.08-0.28-0.12-0.44-0.12c-0.13,0-0.24,0.03-0.34,0.08c-0.1,0.05-0.19,0.13-0.27,0.21
		c-0.08,0.09-0.15,0.19-0.21,0.31c-0.06,0.11-0.11,0.23-0.14,0.35c-0.04,0.12-0.07,0.24-0.08,0.36c-0.02,0.12-0.03,0.22-0.03,0.32
		c0,0.21,0.04,0.38,0.12,0.49c0.08,0.12,0.21,0.17,0.39,0.17c0.13,0,0.26-0.03,0.39-0.09c0.13-0.06,0.25-0.15,0.37-0.26
		c0.11-0.11,0.21-0.25,0.3-0.41c0.09-0.16,0.15-0.33,0.2-0.52L71.85,38.83z"/>
	<path class="st1" d="M77.7,37.15c0,0.02-0.01,0.04-0.03,0.07c-0.02,0.02-0.05,0.05-0.09,0.08l-1.87,1.61l1.21,1.83
		c0.02,0.03,0.03,0.05,0.04,0.07c0.01,0.02,0.01,0.03,0.01,0.04c0,0.01,0,0.03-0.01,0.04c0,0.01-0.01,0.02-0.03,0.02
		c-0.01,0.01-0.03,0.01-0.06,0.02c-0.02,0-0.06,0.01-0.1,0.01c-0.04,0-0.08,0-0.11,0c-0.03,0-0.05-0.01-0.07-0.01
		c-0.02-0.01-0.03-0.01-0.04-0.02c-0.01-0.01-0.02-0.02-0.03-0.04l-1.28-1.97l-0.43,1.97c0,0.01-0.01,0.02-0.02,0.03
		c-0.01,0.01-0.02,0.02-0.04,0.02c-0.02,0.01-0.04,0.01-0.06,0.01c-0.03,0-0.06,0.01-0.09,0.01c-0.04,0-0.07,0-0.1-0.01
		c-0.02,0-0.04-0.01-0.06-0.01c-0.01-0.01-0.02-0.01-0.03-0.02c0-0.01,0-0.02,0-0.03l0.81-3.71c0-0.01,0.01-0.02,0.02-0.03
		c0.01-0.01,0.02-0.02,0.04-0.02c0.02-0.01,0.04-0.01,0.06-0.01c0.03,0,0.06-0.01,0.09-0.01c0.04,0,0.07,0,0.09,0.01
		c0.02,0,0.04,0.01,0.06,0.01c0.01,0.01,0.02,0.01,0.03,0.02c0,0.01,0.01,0.02,0,0.03l-0.38,1.74l1.98-1.74
		c0.02-0.01,0.03-0.03,0.05-0.04c0.02-0.01,0.04-0.02,0.06-0.02c0.02-0.01,0.05-0.01,0.07-0.01c0.03,0,0.06,0,0.1,0
		c0.04,0,0.07,0,0.09,0.01c0.02,0,0.04,0.01,0.05,0.02c0.01,0.01,0.02,0.02,0.03,0.02C77.7,37.12,77.7,37.13,77.7,37.15z"/>
	<path class="st1" d="M80.26,38.77c0,0.07,0,0.14-0.01,0.2c-0.01,0.07-0.02,0.13-0.04,0.2l-0.36,1.68c0,0.01-0.01,0.02-0.02,0.03
		c-0.01,0.01-0.02,0.02-0.04,0.02c-0.02,0.01-0.04,0.01-0.06,0.01c-0.02,0-0.06,0.01-0.1,0.01c-0.04,0-0.07,0-0.09-0.01
		c-0.02,0-0.04-0.01-0.06-0.01c-0.01-0.01-0.02-0.01-0.03-0.02c0-0.01-0.01-0.02,0-0.03l0.37-1.68c0.01-0.07,0.03-0.13,0.03-0.2
		c0.01-0.06,0.01-0.11,0.01-0.16c0-0.14-0.03-0.25-0.1-0.33c-0.06-0.08-0.17-0.12-0.32-0.12c-0.13,0-0.26,0.03-0.39,0.1
		c-0.13,0.07-0.25,0.16-0.37,0.27c-0.11,0.12-0.21,0.25-0.3,0.41c-0.09,0.16-0.15,0.33-0.19,0.52l-0.26,1.19
		c0,0.01-0.01,0.02-0.02,0.03c-0.01,0.01-0.02,0.02-0.04,0.02c-0.02,0.01-0.04,0.01-0.06,0.01c-0.03,0-0.06,0.01-0.09,0.01
		c-0.04,0-0.07,0-0.09-0.01c-0.02,0-0.04-0.01-0.05-0.01c-0.01-0.01-0.02-0.01-0.03-0.02c0-0.01,0-0.02,0-0.03l0.59-2.68
		c0-0.01,0.01-0.02,0.01-0.03c0.01-0.01,0.02-0.02,0.03-0.03c0.01-0.01,0.03-0.01,0.06-0.01c0.02,0,0.05,0,0.08,0
		c0.03,0,0.06,0,0.08,0c0.02,0,0.04,0.01,0.05,0.01c0.01,0.01,0.02,0.02,0.02,0.03c0,0.01,0,0.02,0,0.03l-0.12,0.55
		c0.03-0.07,0.08-0.14,0.15-0.21c0.07-0.08,0.16-0.15,0.26-0.21c0.1-0.07,0.22-0.12,0.34-0.16c0.12-0.04,0.26-0.06,0.39-0.06
		c0.14,0,0.26,0.02,0.35,0.06c0.09,0.04,0.17,0.09,0.23,0.16c0.06,0.07,0.1,0.14,0.12,0.22C80.24,38.59,80.26,38.68,80.26,38.77z"/>
	<path class="st1" d="M83.73,39.06c0,0.15-0.02,0.3-0.05,0.45s-0.08,0.3-0.14,0.44c-0.06,0.14-0.14,0.27-0.23,0.4
		c-0.09,0.12-0.2,0.23-0.32,0.32c-0.12,0.09-0.26,0.16-0.42,0.22c-0.16,0.05-0.33,0.08-0.51,0.08c-0.2,0-0.37-0.02-0.51-0.07
		c-0.14-0.05-0.26-0.11-0.35-0.2c-0.09-0.09-0.16-0.19-0.2-0.31c-0.04-0.12-0.06-0.26-0.06-0.42c0-0.15,0.01-0.3,0.05-0.45
		c0.03-0.15,0.08-0.3,0.14-0.44c0.06-0.14,0.14-0.27,0.23-0.4c0.09-0.12,0.2-0.23,0.32-0.32c0.12-0.09,0.26-0.16,0.42-0.22
		c0.16-0.05,0.33-0.08,0.51-0.08c0.2,0,0.37,0.02,0.51,0.07c0.14,0.05,0.26,0.11,0.35,0.2c0.09,0.09,0.16,0.19,0.2,0.31
		C83.71,38.77,83.73,38.9,83.73,39.06z M83.32,39.08c0-0.11-0.01-0.21-0.04-0.29c-0.03-0.09-0.07-0.16-0.13-0.22
		c-0.06-0.06-0.14-0.11-0.23-0.14c-0.1-0.03-0.21-0.05-0.35-0.05c-0.14,0-0.27,0.02-0.39,0.07c-0.12,0.04-0.22,0.1-0.31,0.18
		c-0.09,0.08-0.17,0.17-0.24,0.27c-0.07,0.1-0.12,0.21-0.17,0.33c-0.04,0.12-0.08,0.24-0.1,0.36c-0.02,0.13-0.03,0.25-0.03,0.37
		c0,0.11,0.01,0.21,0.04,0.29c0.03,0.09,0.07,0.16,0.13,0.22c0.06,0.06,0.14,0.11,0.23,0.14c0.09,0.03,0.21,0.05,0.35,0.05
		c0.14,0,0.27-0.02,0.39-0.07c0.12-0.04,0.22-0.11,0.31-0.18c0.09-0.08,0.17-0.17,0.24-0.27c0.07-0.1,0.12-0.21,0.17-0.33
		c0.04-0.12,0.08-0.24,0.1-0.36C83.31,39.32,83.32,39.2,83.32,39.08z"/>
	<path class="st1" d="M88.59,38.15c0,0.02,0,0.03-0.01,0.05c0,0.02-0.01,0.03-0.02,0.04c-0.08,0.22-0.17,0.43-0.27,0.66
		c-0.1,0.22-0.21,0.45-0.33,0.67c-0.12,0.22-0.25,0.44-0.39,0.66c-0.14,0.21-0.29,0.42-0.45,0.62c-0.01,0.02-0.03,0.03-0.05,0.04
		c-0.02,0.01-0.04,0.02-0.06,0.02c-0.02,0.01-0.05,0.01-0.07,0.01c-0.03,0-0.05,0-0.08,0c-0.04,0-0.07,0-0.1,0
		c-0.03,0-0.05-0.01-0.07-0.01c-0.02-0.01-0.03-0.01-0.04-0.02c-0.01-0.01-0.01-0.02-0.01-0.04l-0.25-2.13l-1.08,2.12
		c-0.01,0.02-0.02,0.03-0.04,0.04c-0.01,0.01-0.03,0.02-0.06,0.03c-0.02,0.01-0.05,0.01-0.08,0.01c-0.03,0-0.06,0-0.1,0
		c-0.04,0-0.07,0-0.1,0c-0.03,0-0.06-0.01-0.08-0.01c-0.02-0.01-0.04-0.01-0.05-0.02c-0.01-0.01-0.02-0.02-0.02-0.04l-0.34-2.61
		c0-0.02,0-0.03-0.01-0.04c0-0.01,0-0.02,0-0.03c0-0.02,0-0.03,0.01-0.04s0.02-0.02,0.04-0.02c0.01,0,0.03-0.01,0.06-0.01
		c0.02,0,0.05,0,0.09,0c0.04,0,0.07,0,0.1,0c0.02,0,0.04,0.01,0.06,0.01c0.01,0.01,0.02,0.01,0.03,0.02
		c0.01,0.01,0.01,0.02,0.01,0.04l0.27,2.35v0.02l0.01-0.02l1.19-2.35c0.01-0.01,0.01-0.02,0.02-0.03c0.01-0.01,0.02-0.02,0.03-0.03
		c0.01-0.01,0.03-0.01,0.05-0.01c0.02,0,0.05,0,0.09,0c0.03,0,0.06,0,0.09,0c0.02,0,0.04,0.01,0.06,0.01
		c0.01,0.01,0.03,0.01,0.03,0.02c0.01,0.01,0.01,0.02,0.01,0.04l0.28,2.33v0.02L87,40.5c0.11-0.15,0.22-0.32,0.33-0.5
		c0.11-0.18,0.21-0.38,0.31-0.58c0.1-0.2,0.2-0.41,0.29-0.62c0.09-0.21,0.17-0.42,0.25-0.63c0-0.01,0.01-0.03,0.02-0.04
		c0.01-0.01,0.02-0.02,0.04-0.02c0.02-0.01,0.04-0.01,0.07-0.01c0.03,0,0.06,0,0.1,0c0.04,0,0.07,0,0.09,0
		c0.02,0,0.04,0.01,0.06,0.01c0.01,0,0.02,0.01,0.03,0.02C88.59,38.14,88.59,38.14,88.59,38.15z"/>
	<path class="st1" d="M89.23,40.86c0,0.01-0.01,0.02-0.02,0.03c-0.01,0.01-0.02,0.02-0.04,0.02c-0.02,0.01-0.04,0.01-0.06,0.01
		c-0.03,0-0.06,0.01-0.09,0.01c-0.04,0-0.07,0-0.09-0.01c-0.02,0-0.04-0.01-0.06-0.01c-0.01-0.01-0.02-0.01-0.03-0.02
		c0-0.01,0-0.02,0-0.03l0.87-3.99c0-0.01,0.01-0.02,0.01-0.03c0.01-0.01,0.02-0.02,0.04-0.02c0.02-0.01,0.04-0.01,0.06-0.01
		c0.03,0,0.06,0,0.1,0c0.04,0,0.07,0,0.09,0c0.02,0,0.04,0.01,0.05,0.01c0.01,0.01,0.02,0.02,0.02,0.02c0,0.01,0,0.02,0,0.03
		L89.23,40.86z"/>
	<path class="st1" d="M92.97,38.7c0,0.13-0.03,0.25-0.1,0.36c-0.07,0.11-0.17,0.2-0.32,0.27c-0.15,0.08-0.33,0.13-0.56,0.17
		c-0.23,0.04-0.5,0.06-0.82,0.06h-0.37c-0.01,0.08-0.03,0.15-0.03,0.22c-0.01,0.07-0.01,0.14-0.01,0.2c0,0.22,0.06,0.39,0.17,0.5
		c0.12,0.12,0.3,0.18,0.56,0.18c0.14,0,0.26-0.01,0.36-0.03c0.11-0.02,0.2-0.04,0.28-0.06c0.08-0.02,0.14-0.04,0.19-0.06
		c0.05-0.02,0.08-0.03,0.1-0.03c0.02,0,0.03,0.01,0.04,0.02c0.01,0.01,0.01,0.03,0.01,0.05c0,0.01,0,0.03,0,0.05
		c0,0.02-0.01,0.04-0.01,0.06c-0.01,0.02-0.02,0.04-0.03,0.06c-0.01,0.02-0.02,0.04-0.04,0.05c-0.03,0.02-0.07,0.05-0.13,0.07
		c-0.06,0.02-0.14,0.04-0.22,0.06c-0.09,0.02-0.18,0.03-0.28,0.04c-0.1,0.01-0.2,0.02-0.3,0.02c-0.19,0-0.35-0.02-0.48-0.06
		c-0.14-0.04-0.25-0.1-0.34-0.18c-0.09-0.08-0.16-0.18-0.21-0.3c-0.05-0.12-0.07-0.26-0.07-0.42c0-0.13,0.01-0.26,0.04-0.41
		c0.03-0.15,0.07-0.29,0.13-0.43c0.06-0.14,0.13-0.28,0.22-0.41c0.09-0.13,0.2-0.25,0.32-0.35c0.12-0.1,0.27-0.18,0.43-0.24
		c0.16-0.06,0.35-0.09,0.55-0.09c0.17,0,0.31,0.02,0.43,0.06c0.12,0.04,0.22,0.09,0.29,0.15c0.07,0.06,0.13,0.13,0.16,0.21
		C92.95,38.56,92.97,38.63,92.97,38.7z M92.56,38.74c0-0.11-0.05-0.2-0.15-0.27c-0.1-0.07-0.23-0.1-0.41-0.1
		c-0.16,0-0.29,0.02-0.42,0.07c-0.12,0.05-0.23,0.12-0.32,0.2c-0.09,0.08-0.17,0.18-0.24,0.29c-0.07,0.11-0.12,0.22-0.16,0.34h0.36
		c0.26,0,0.47-0.01,0.64-0.04c0.17-0.03,0.31-0.07,0.41-0.12c0.1-0.05,0.17-0.11,0.22-0.17C92.54,38.88,92.56,38.81,92.56,38.74z"/>
	<path class="st1" d="M95.69,40.86c0,0.03-0.02,0.05-0.05,0.06c-0.03,0.01-0.08,0.02-0.14,0.02c-0.03,0-0.06,0-0.08,0
		c-0.02,0-0.04-0.01-0.05-0.01c-0.01-0.01-0.02-0.01-0.03-0.02c0-0.01,0-0.02,0-0.04l0.11-0.54c-0.03,0.07-0.08,0.14-0.15,0.21
		c-0.07,0.08-0.16,0.15-0.26,0.21c-0.1,0.07-0.22,0.12-0.34,0.16c-0.12,0.04-0.25,0.06-0.38,0.06c-0.13,0-0.24-0.02-0.34-0.05
		c-0.09-0.03-0.17-0.08-0.24-0.13c-0.06-0.05-0.11-0.11-0.15-0.18c-0.04-0.07-0.07-0.14-0.09-0.21c-0.02-0.07-0.03-0.14-0.04-0.21
		c-0.01-0.07-0.01-0.13-0.01-0.18c0-0.11,0.01-0.23,0.03-0.37c0.02-0.14,0.06-0.28,0.11-0.42c0.05-0.14,0.12-0.28,0.19-0.42
		c0.08-0.14,0.17-0.26,0.29-0.37c0.11-0.11,0.24-0.19,0.39-0.26c0.15-0.07,0.32-0.1,0.5-0.1c0.1,0,0.19,0.01,0.27,0.03
		c0.08,0.02,0.16,0.05,0.23,0.08c0.07,0.03,0.13,0.08,0.19,0.12c0.06,0.05,0.11,0.1,0.16,0.15l0.34-1.57c0-0.01,0.01-0.02,0.01-0.03
		c0.01-0.01,0.02-0.02,0.03-0.02c0.02-0.01,0.04-0.01,0.06-0.01c0.02,0,0.06-0.01,0.1-0.01c0.04,0,0.07,0,0.09,0.01
		c0.02,0,0.04,0.01,0.06,0.01c0.01,0.01,0.02,0.01,0.03,0.02c0,0.01,0,0.02,0,0.03L95.69,40.86z M95.75,38.83
		c-0.12-0.15-0.24-0.27-0.37-0.35c-0.13-0.08-0.28-0.12-0.44-0.12c-0.13,0-0.24,0.03-0.34,0.08c-0.1,0.05-0.19,0.13-0.27,0.21
		c-0.08,0.09-0.15,0.19-0.21,0.31c-0.06,0.11-0.11,0.23-0.14,0.35c-0.04,0.12-0.07,0.24-0.08,0.36c-0.02,0.12-0.03,0.22-0.03,0.32
		c0,0.21,0.04,0.38,0.12,0.49c0.08,0.12,0.21,0.17,0.39,0.17c0.13,0,0.26-0.03,0.39-0.09c0.13-0.06,0.25-0.15,0.37-0.26
		c0.11-0.11,0.21-0.25,0.3-0.41c0.09-0.16,0.15-0.33,0.2-0.52L95.75,38.83z"/>
	<path class="st1" d="M98.98,41.12c-0.03,0.15-0.08,0.27-0.16,0.38c-0.07,0.11-0.16,0.2-0.27,0.27c-0.11,0.07-0.24,0.13-0.39,0.16
		C98.01,41.98,97.85,42,97.67,42c-0.17,0-0.34-0.02-0.48-0.05c-0.15-0.04-0.26-0.08-0.35-0.13c-0.03-0.02-0.05-0.04-0.07-0.06
		c-0.01-0.02-0.02-0.04-0.02-0.07c0-0.01,0-0.03,0-0.04c0-0.02,0-0.03,0.01-0.05c0-0.02,0.01-0.03,0.02-0.05
		c0.01-0.02,0.01-0.03,0.02-0.04c0.01-0.01,0.02-0.02,0.04-0.03c0.01-0.01,0.03-0.01,0.05-0.01c0.03,0,0.06,0.01,0.1,0.04
		c0.04,0.02,0.09,0.05,0.16,0.08c0.07,0.03,0.15,0.06,0.25,0.08c0.1,0.02,0.22,0.04,0.36,0.04c0.12,0,0.23-0.01,0.33-0.04
		c0.1-0.02,0.18-0.06,0.26-0.11c0.07-0.05,0.13-0.11,0.18-0.18c0.05-0.07,0.08-0.16,0.1-0.26c0.04-0.21,0.09-0.38,0.13-0.51
		c0.04-0.14,0.07-0.24,0.1-0.31c-0.03,0.08-0.09,0.15-0.16,0.23c-0.08,0.08-0.17,0.15-0.27,0.22c-0.1,0.07-0.22,0.12-0.34,0.17
		c-0.12,0.04-0.25,0.07-0.38,0.07c-0.16,0-0.3-0.02-0.41-0.07c-0.11-0.05-0.2-0.11-0.27-0.2c-0.07-0.08-0.12-0.18-0.15-0.3
		c-0.03-0.11-0.04-0.24-0.04-0.37c0-0.11,0.01-0.23,0.03-0.37c0.02-0.14,0.06-0.28,0.11-0.43c0.05-0.14,0.12-0.29,0.19-0.43
		c0.08-0.14,0.17-0.26,0.29-0.37c0.11-0.11,0.24-0.2,0.39-0.26c0.15-0.07,0.32-0.1,0.5-0.1c0.2,0,0.37,0.04,0.5,0.11
		c0.14,0.07,0.26,0.17,0.37,0.29l0.07-0.29c0.01-0.03,0.03-0.05,0.06-0.06c0.03-0.01,0.08-0.02,0.14-0.02c0.03,0,0.06,0,0.08,0
		c0.02,0,0.04,0.01,0.05,0.01c0.01,0.01,0.02,0.02,0.02,0.03c0,0.01,0,0.02,0,0.03L98.98,41.12z M99.1,38.82
		c-0.12-0.15-0.24-0.27-0.37-0.34c-0.13-0.08-0.28-0.11-0.44-0.11c-0.13,0-0.25,0.03-0.35,0.08c-0.1,0.06-0.19,0.13-0.27,0.22
		c-0.08,0.09-0.15,0.19-0.21,0.31c-0.06,0.12-0.11,0.24-0.14,0.36c-0.04,0.12-0.06,0.24-0.08,0.36c-0.02,0.12-0.03,0.22-0.03,0.31
		c0,0.09,0.01,0.18,0.03,0.26c0.02,0.08,0.05,0.15,0.09,0.21c0.04,0.06,0.09,0.1,0.16,0.14c0.06,0.03,0.14,0.05,0.24,0.05
		c0.13,0,0.26-0.03,0.39-0.1c0.13-0.06,0.25-0.15,0.37-0.27c0.11-0.12,0.21-0.25,0.3-0.41c0.09-0.16,0.15-0.33,0.2-0.53L99.1,38.82z
		"/>
	<path class="st1" d="M102.78,38.7c0,0.13-0.03,0.25-0.1,0.36c-0.07,0.11-0.17,0.2-0.32,0.27c-0.15,0.08-0.33,0.13-0.56,0.17
		c-0.23,0.04-0.5,0.06-0.82,0.06h-0.37c-0.01,0.08-0.03,0.15-0.03,0.22c-0.01,0.07-0.01,0.14-0.01,0.2c0,0.22,0.06,0.39,0.17,0.5
		c0.11,0.12,0.3,0.18,0.56,0.18c0.14,0,0.26-0.01,0.36-0.03c0.11-0.02,0.2-0.04,0.28-0.06c0.08-0.02,0.14-0.04,0.19-0.06
		c0.05-0.02,0.08-0.03,0.1-0.03c0.02,0,0.03,0.01,0.04,0.02c0.01,0.01,0.01,0.03,0.01,0.05c0,0.01,0,0.03,0,0.05
		c0,0.02-0.01,0.04-0.01,0.06c-0.01,0.02-0.02,0.04-0.03,0.06c-0.01,0.02-0.02,0.04-0.04,0.05c-0.03,0.02-0.07,0.05-0.13,0.07
		c-0.06,0.02-0.14,0.04-0.22,0.06c-0.09,0.02-0.18,0.03-0.28,0.04c-0.1,0.01-0.2,0.02-0.3,0.02c-0.19,0-0.35-0.02-0.48-0.06
		c-0.14-0.04-0.25-0.1-0.34-0.18c-0.09-0.08-0.16-0.18-0.21-0.3c-0.05-0.12-0.07-0.26-0.07-0.42c0-0.13,0.01-0.26,0.04-0.41
		c0.03-0.15,0.07-0.29,0.13-0.43c0.06-0.14,0.13-0.28,0.22-0.41c0.09-0.13,0.2-0.25,0.32-0.35c0.12-0.1,0.27-0.18,0.43-0.24
		c0.16-0.06,0.35-0.09,0.55-0.09c0.17,0,0.31,0.02,0.43,0.06c0.12,0.04,0.22,0.09,0.29,0.15c0.07,0.06,0.13,0.13,0.16,0.21
		C102.76,38.56,102.78,38.63,102.78,38.7z M102.37,38.74c0-0.11-0.05-0.2-0.15-0.27c-0.1-0.07-0.23-0.1-0.41-0.1
		c-0.16,0-0.29,0.02-0.42,0.07c-0.12,0.05-0.23,0.12-0.32,0.2c-0.09,0.08-0.17,0.18-0.24,0.29c-0.07,0.11-0.12,0.22-0.16,0.34h0.36
		c0.26,0,0.47-0.01,0.64-0.04c0.17-0.03,0.31-0.07,0.41-0.12c0.1-0.05,0.17-0.11,0.22-0.17C102.35,38.88,102.37,38.81,102.37,38.74z
		"/>
</g>
</svg>
