<svg xmlns="http://www.w3.org/2000/svg" xmlns:xlink="http://www.w3.org/1999/xlink" width="160" zoomAndPan="magnify" viewBox="0 0 120 30.000001" height="40" preserveAspectRatio="xMidYMid meet" version="1.0"><defs><g/><clipPath id="f57d643139"><path d="M 1.933594 0 L 28.066406 0 L 28.066406 14 L 1.933594 14 Z M 1.933594 0 " clip-rule="nonzero"/></clipPath><clipPath id="4c865e7dd0"><path d="M 1.933594 12 L 28.066406 12 L 28.066406 21 L 1.933594 21 Z M 1.933594 12 " clip-rule="nonzero"/></clipPath><clipPath id="89951fa5c5"><path d="M 1.933594 19 L 28.066406 19 L 28.066406 28.304688 L 1.933594 28.304688 Z M 1.933594 19 " clip-rule="nonzero"/></clipPath></defs><g fill="#ffffff" fill-opacity="1"><g transform="translate(28.979552, 24.512499)"><g><path d="M 2.015625 -0.6875 C 2.128906 -0.6875 2.238281 -0.703125 2.34375 -0.734375 C 2.457031 -0.773438 2.539062 -0.8125 2.59375 -0.84375 L 2.671875 -0.890625 L 3 -0.25 C 2.988281 -0.238281 2.972656 -0.222656 2.953125 -0.203125 C 2.929688 -0.191406 2.882812 -0.164062 2.8125 -0.125 C 2.75 -0.09375 2.675781 -0.0625 2.59375 -0.03125 C 2.519531 -0.0078125 2.421875 0.0078125 2.296875 0.03125 C 2.171875 0.0507812 2.039062 0.0625 1.90625 0.0625 C 1.59375 0.0625 1.296875 -0.0078125 1.015625 -0.15625 C 0.742188 -0.3125 0.519531 -0.523438 0.34375 -0.796875 C 0.175781 -1.066406 0.09375 -1.351562 0.09375 -1.65625 C 0.09375 -1.894531 0.140625 -2.117188 0.234375 -2.328125 C 0.335938 -2.546875 0.472656 -2.734375 0.640625 -2.890625 C 0.804688 -3.046875 1 -3.171875 1.21875 -3.265625 C 1.4375 -3.359375 1.664062 -3.40625 1.90625 -3.40625 C 2.113281 -3.40625 2.304688 -3.378906 2.484375 -3.328125 C 2.671875 -3.273438 2.804688 -3.222656 2.890625 -3.171875 L 3 -3.09375 L 2.671875 -2.4375 C 2.648438 -2.457031 2.617188 -2.476562 2.578125 -2.5 C 2.546875 -2.519531 2.472656 -2.550781 2.359375 -2.59375 C 2.242188 -2.632812 2.128906 -2.65625 2.015625 -2.65625 C 1.835938 -2.65625 1.675781 -2.625 1.53125 -2.5625 C 1.382812 -2.5 1.265625 -2.421875 1.171875 -2.328125 C 1.085938 -2.234375 1.023438 -2.128906 0.984375 -2.015625 C 0.941406 -1.898438 0.921875 -1.785156 0.921875 -1.671875 C 0.921875 -1.421875 1.015625 -1.191406 1.203125 -0.984375 C 1.390625 -0.785156 1.660156 -0.6875 2.015625 -0.6875 Z M 2.015625 -0.6875 "/></g></g></g><g fill="#ffffff" fill-opacity="1"><g transform="translate(32.022695, 24.512499)"><g><path d="M 1.9375 -3.34375 L 3.28125 0 L 2.46875 0 L 2.21875 -0.671875 L 0.953125 -0.671875 L 0.703125 0 L -0.109375 0 L 1.234375 -3.34375 Z M 1.96875 -1.328125 L 1.59375 -2.3125 L 1.578125 -2.3125 L 1.203125 -1.328125 Z M 1.96875 -1.328125 "/></g></g></g><g fill="#ffffff" fill-opacity="1"><g transform="translate(35.191123, 24.512499)"><g><path d="M 1 -2.078125 L 1 0 L 0.25 0 L 0.25 -3.34375 L 1 -3.34375 L 2.328125 -1.265625 L 2.34375 -1.265625 L 2.34375 -3.34375 L 3.09375 -3.34375 L 3.09375 0 L 2.34375 0 L 1.015625 -2.078125 Z M 1 -2.078125 "/></g></g></g><g fill="#ffffff" fill-opacity="1"><g transform="translate(38.529286, 24.512499)"><g><path d="M 1.9375 -3.34375 L 3.28125 0 L 2.46875 0 L 2.21875 -0.671875 L 0.953125 -0.671875 L 0.703125 0 L -0.109375 0 L 1.234375 -3.34375 Z M 1.96875 -1.328125 L 1.59375 -2.3125 L 1.578125 -2.3125 L 1.203125 -1.328125 Z M 1.96875 -1.328125 "/></g></g></g><g fill="#ffffff" fill-opacity="1"><g transform="translate(41.697714, 24.512499)"><g><path d="M 0.25 -3.34375 L 1.203125 -3.34375 C 1.671875 -3.34375 2.066406 -3.179688 2.390625 -2.859375 C 2.722656 -2.546875 2.890625 -2.148438 2.890625 -1.671875 C 2.890625 -1.191406 2.722656 -0.789062 2.390625 -0.46875 C 2.066406 -0.15625 1.671875 0 1.203125 0 L 0.25 0 Z M 1 -0.6875 L 1.125 -0.6875 C 1.394531 -0.6875 1.617188 -0.78125 1.796875 -0.96875 C 1.972656 -1.15625 2.066406 -1.390625 2.078125 -1.671875 C 2.078125 -1.953125 1.988281 -2.1875 1.8125 -2.375 C 1.632812 -2.5625 1.40625 -2.65625 1.125 -2.65625 L 1 -2.65625 Z M 1 -0.6875 "/></g></g></g><g fill="#ffffff" fill-opacity="1"><g transform="translate(44.68024, 24.512499)"><g><path d="M 1 -3.34375 L 1 0 L 0.25 0 L 0.25 -3.34375 Z M 1 -3.34375 "/></g></g></g><g fill="#ffffff" fill-opacity="1"><g transform="translate(45.924981, 24.512499)"><g><path d="M 1.9375 -3.34375 L 3.28125 0 L 2.46875 0 L 2.21875 -0.671875 L 0.953125 -0.671875 L 0.703125 0 L -0.109375 0 L 1.234375 -3.34375 Z M 1.96875 -1.328125 L 1.59375 -2.3125 L 1.578125 -2.3125 L 1.203125 -1.328125 Z M 1.96875 -1.328125 "/></g></g></g><g fill="#ffffff" fill-opacity="1"><g transform="translate(49.093409, 24.512499)"><g><path d="M 1 -2.078125 L 1 0 L 0.25 0 L 0.25 -3.34375 L 1 -3.34375 L 2.328125 -1.265625 L 2.34375 -1.265625 L 2.34375 -3.34375 L 3.09375 -3.34375 L 3.09375 0 L 2.34375 0 L 1.015625 -2.078125 Z M 1 -2.078125 "/></g></g></g><g fill="#ffffff" fill-opacity="1"><g transform="translate(52.431572, 24.512499)"><g/></g></g><g fill="#ffffff" fill-opacity="1"><g transform="translate(53.534862, 24.512499)"><g><path d="M 2.8125 -3.34375 L 2.8125 -1.1875 C 2.8125 -0.78125 2.695312 -0.46875 2.46875 -0.25 C 2.25 -0.0390625 1.925781 0.0625 1.5 0.0625 C 1.070312 0.0625 0.75 -0.0390625 0.53125 -0.25 C 0.3125 -0.46875 0.203125 -0.78125 0.203125 -1.1875 L 0.203125 -3.34375 L 0.96875 -3.34375 L 0.96875 -1.40625 C 0.96875 -1.132812 1.007812 -0.945312 1.09375 -0.84375 C 1.175781 -0.738281 1.3125 -0.6875 1.5 -0.6875 C 1.695312 -0.6875 1.835938 -0.738281 1.921875 -0.84375 C 2.003906 -0.945312 2.046875 -1.132812 2.046875 -1.40625 L 2.046875 -3.34375 Z M 2.8125 -3.34375 "/></g></g></g><g fill="#ffffff" fill-opacity="1"><g transform="translate(56.541638, 24.512499)"><g><path d="M 1 -2.078125 L 1 0 L 0.25 0 L 0.25 -3.34375 L 1 -3.34375 L 2.328125 -1.265625 L 2.34375 -1.265625 L 2.34375 -3.34375 L 3.09375 -3.34375 L 3.09375 0 L 2.34375 0 L 1.015625 -2.078125 Z M 1 -2.078125 "/></g></g></g><g fill="#ffffff" fill-opacity="1"><g transform="translate(59.879801, 24.512499)"><g><path d="M 1 -3.34375 L 1 0 L 0.25 0 L 0.25 -3.34375 Z M 1 -3.34375 "/></g></g></g><g fill="#ffffff" fill-opacity="1"><g transform="translate(61.124542, 24.512499)"><g><path d="M 1.28125 0 L -0.109375 -3.34375 L 0.75 -3.34375 L 1.59375 -1.140625 L 2.421875 -3.34375 L 3.28125 -3.34375 L 1.890625 0 Z M 1.28125 0 "/></g></g></g><g fill="#ffffff" fill-opacity="1"><g transform="translate(64.29297, 24.512499)"><g><path d="M 2.15625 -3.34375 L 2.15625 -2.671875 L 1 -2.671875 L 1 -2 L 2.109375 -2 L 2.109375 -1.34375 L 1 -1.34375 L 1 -0.671875 L 2.15625 -0.671875 L 2.15625 0 L 0.25 0 L 0.25 -3.34375 Z M 2.15625 -3.34375 "/></g></g></g><g fill="#ffffff" fill-opacity="1"><g transform="translate(66.636962, 24.512499)"><g><path d="M 0.25 -3.34375 L 1.4375 -3.34375 C 1.757812 -3.34375 2.019531 -3.253906 2.21875 -3.078125 C 2.425781 -2.910156 2.53125 -2.664062 2.53125 -2.34375 C 2.53125 -2.101562 2.46875 -1.898438 2.34375 -1.734375 C 2.21875 -1.566406 2.050781 -1.445312 1.84375 -1.375 L 2.984375 0 L 2.03125 0 L 1 -1.3125 L 1 0 L 0.25 0 Z M 1 -1.859375 L 1.09375 -1.859375 C 1.164062 -1.859375 1.222656 -1.859375 1.265625 -1.859375 C 1.316406 -1.859375 1.375 -1.867188 1.4375 -1.890625 C 1.5 -1.910156 1.546875 -1.929688 1.578125 -1.953125 C 1.617188 -1.984375 1.648438 -2.023438 1.671875 -2.078125 C 1.703125 -2.140625 1.71875 -2.210938 1.71875 -2.296875 C 1.71875 -2.378906 1.703125 -2.445312 1.671875 -2.5 C 1.648438 -2.5625 1.617188 -2.601562 1.578125 -2.625 C 1.546875 -2.65625 1.5 -2.675781 1.4375 -2.6875 C 1.375 -2.707031 1.316406 -2.71875 1.265625 -2.71875 C 1.222656 -2.726562 1.164062 -2.734375 1.09375 -2.734375 L 1 -2.734375 Z M 1 -1.859375 "/></g></g></g><g fill="#ffffff" fill-opacity="1"><g transform="translate(69.530576, 24.512499)"><g><path d="M 1.46875 -3.40625 C 1.65625 -3.40625 1.832031 -3.375 2 -3.3125 C 2.175781 -3.257812 2.304688 -3.210938 2.390625 -3.171875 L 2.515625 -3.078125 L 2.203125 -2.484375 C 2.179688 -2.492188 2.144531 -2.507812 2.09375 -2.53125 C 2.050781 -2.5625 1.96875 -2.597656 1.84375 -2.640625 C 1.726562 -2.679688 1.625 -2.703125 1.53125 -2.703125 C 1.394531 -2.703125 1.289062 -2.675781 1.21875 -2.625 C 1.15625 -2.570312 1.125 -2.5 1.125 -2.40625 C 1.125 -2.363281 1.140625 -2.320312 1.171875 -2.28125 C 1.203125 -2.238281 1.253906 -2.195312 1.328125 -2.15625 C 1.410156 -2.113281 1.484375 -2.078125 1.546875 -2.046875 C 1.609375 -2.015625 1.703125 -1.972656 1.828125 -1.921875 C 2.046875 -1.828125 2.226562 -1.703125 2.375 -1.546875 C 2.53125 -1.390625 2.609375 -1.210938 2.609375 -1.015625 C 2.609375 -0.828125 2.570312 -0.660156 2.5 -0.515625 C 2.4375 -0.367188 2.34375 -0.253906 2.21875 -0.171875 C 2.101562 -0.0976562 1.972656 -0.0390625 1.828125 0 C 1.679688 0.0390625 1.519531 0.0625 1.34375 0.0625 C 1.195312 0.0625 1.050781 0.046875 0.90625 0.015625 C 0.769531 -0.015625 0.65625 -0.0507812 0.5625 -0.09375 C 0.46875 -0.132812 0.382812 -0.175781 0.3125 -0.21875 C 0.238281 -0.269531 0.179688 -0.304688 0.140625 -0.328125 L 0.09375 -0.375 L 0.46875 -1.015625 C 0.5 -0.992188 0.539062 -0.960938 0.59375 -0.921875 C 0.65625 -0.878906 0.757812 -0.820312 0.90625 -0.75 C 1.050781 -0.675781 1.179688 -0.640625 1.296875 -0.640625 C 1.609375 -0.640625 1.765625 -0.75 1.765625 -0.96875 C 1.765625 -1.019531 1.753906 -1.0625 1.734375 -1.09375 C 1.710938 -1.132812 1.671875 -1.175781 1.609375 -1.21875 C 1.554688 -1.257812 1.503906 -1.289062 1.453125 -1.3125 C 1.410156 -1.332031 1.335938 -1.363281 1.234375 -1.40625 C 1.140625 -1.457031 1.066406 -1.492188 1.015625 -1.515625 C 0.816406 -1.617188 0.660156 -1.742188 0.546875 -1.890625 C 0.441406 -2.046875 0.390625 -2.207031 0.390625 -2.375 C 0.390625 -2.675781 0.5 -2.921875 0.71875 -3.109375 C 0.9375 -3.304688 1.1875 -3.40625 1.46875 -3.40625 Z M 1.46875 -3.40625 "/></g></g></g><g fill="#ffffff" fill-opacity="1"><g transform="translate(72.246371, 24.512499)"><g><path d="M 1 -3.34375 L 1 0 L 0.25 0 L 0.25 -3.34375 Z M 1 -3.34375 "/></g></g></g><g fill="#ffffff" fill-opacity="1"><g transform="translate(73.491112, 24.512499)"><g><path d="M 0.03125 -2.671875 L 0.03125 -3.34375 L 2.375 -3.34375 L 2.375 -2.671875 L 1.59375 -2.671875 L 1.59375 0 L 0.828125 0 L 0.828125 -2.671875 Z M 0.03125 -2.671875 "/></g></g></g><g fill="#ffffff" fill-opacity="1"><g transform="translate(75.899765, 24.512499)"><g><path d="M -0.125 -3.34375 L 0.796875 -3.34375 L 1.484375 -2.265625 L 2.1875 -3.34375 L 3.09375 -3.34375 L 1.875 -1.5 L 1.875 0 L 1.109375 0 L 1.109375 -1.5 Z M -0.125 -3.34375 "/></g></g></g><g fill="#ffffff" fill-opacity="1"><g transform="translate(78.874208, 24.512499)"><g/></g></g><g fill="#ffffff" fill-opacity="1"><g transform="translate(79.977497, 24.512499)"><g><path d="M 0.09375 -1.671875 C 0.09375 -2.148438 0.253906 -2.554688 0.578125 -2.890625 C 0.910156 -3.234375 1.3125 -3.40625 1.78125 -3.40625 C 2.25 -3.40625 2.644531 -3.238281 2.96875 -2.90625 C 3.289062 -2.570312 3.453125 -2.160156 3.453125 -1.671875 C 3.453125 -1.179688 3.289062 -0.769531 2.96875 -0.4375 C 2.65625 -0.101562 2.257812 0.0625 1.78125 0.0625 C 1.289062 0.0625 0.882812 -0.101562 0.5625 -0.4375 C 0.25 -0.769531 0.09375 -1.179688 0.09375 -1.671875 Z M 0.921875 -1.671875 C 0.921875 -1.492188 0.945312 -1.332031 1 -1.1875 C 1.050781 -1.039062 1.144531 -0.914062 1.28125 -0.8125 C 1.414062 -0.71875 1.582031 -0.671875 1.78125 -0.671875 C 2.0625 -0.671875 2.273438 -0.769531 2.421875 -0.96875 C 2.566406 -1.164062 2.640625 -1.398438 2.640625 -1.671875 C 2.640625 -1.941406 2.5625 -2.175781 2.40625 -2.375 C 2.257812 -2.570312 2.050781 -2.671875 1.78125 -2.671875 C 1.5 -2.671875 1.285156 -2.570312 1.140625 -2.375 C 0.992188 -2.175781 0.921875 -1.941406 0.921875 -1.671875 Z M 0.921875 -1.671875 "/></g></g></g><g fill="#ffffff" fill-opacity="1"><g transform="translate(83.521773, 24.512499)"><g><path d="M 2.171875 -3.34375 L 2.171875 -2.671875 L 1 -2.671875 L 1 -2 L 2.078125 -2 L 2.078125 -1.34375 L 1 -1.34375 L 1 0 L 0.25 0 L 0.25 -3.34375 Z M 2.171875 -3.34375 "/></g></g></g><g fill="#ffffff" fill-opacity="1"><g transform="translate(85.813225, 24.512499)"><g/></g></g><g fill="#ffffff" fill-opacity="1"><g transform="translate(86.916515, 24.512499)"><g><path d="M 0.25 -3.34375 L 1.28125 -3.34375 C 1.59375 -3.34375 1.84375 -3.273438 2.03125 -3.140625 C 2.21875 -3.003906 2.3125 -2.785156 2.3125 -2.484375 C 2.3125 -2.148438 2.171875 -1.910156 1.890625 -1.765625 C 2.367188 -1.679688 2.609375 -1.40625 2.609375 -0.9375 C 2.609375 -0.65625 2.507812 -0.425781 2.3125 -0.25 C 2.113281 -0.0820312 1.847656 0 1.515625 0 L 0.25 0 Z M 1 -2.03125 L 1.0625 -2.03125 C 1.226562 -2.03125 1.351562 -2.054688 1.4375 -2.109375 C 1.519531 -2.171875 1.5625 -2.269531 1.5625 -2.40625 C 1.5625 -2.632812 1.394531 -2.75 1.0625 -2.75 L 1 -2.75 Z M 1 -0.59375 L 1.25 -0.59375 C 1.613281 -0.59375 1.796875 -0.710938 1.796875 -0.953125 C 1.796875 -1.109375 1.75 -1.21875 1.65625 -1.28125 C 1.5625 -1.34375 1.425781 -1.375 1.25 -1.375 L 1 -1.375 Z M 1 -0.59375 "/></g></g></g><g fill="#ffffff" fill-opacity="1"><g transform="translate(89.60806, 24.512499)"><g><path d="M 1.9375 -3.34375 L 3.28125 0 L 2.46875 0 L 2.21875 -0.671875 L 0.953125 -0.671875 L 0.703125 0 L -0.109375 0 L 1.234375 -3.34375 Z M 1.96875 -1.328125 L 1.59375 -2.3125 L 1.578125 -2.3125 L 1.203125 -1.328125 Z M 1.96875 -1.328125 "/></g></g></g><g fill="#ffffff" fill-opacity="1"><g transform="translate(92.776488, 24.512499)"><g><path d="M 1 -2.078125 L 1 0 L 0.25 0 L 0.25 -3.34375 L 1 -3.34375 L 2.328125 -1.265625 L 2.34375 -1.265625 L 2.34375 -3.34375 L 3.09375 -3.34375 L 3.09375 0 L 2.34375 0 L 1.015625 -2.078125 Z M 1 -2.078125 "/></g></g></g><g fill="#ffffff" fill-opacity="1"><g transform="translate(96.114652, 24.512499)"><g><path d="M 3.265625 -1.875 L 3.265625 -1.140625 C 3.171875 -0.742188 2.976562 -0.441406 2.6875 -0.234375 C 2.40625 -0.0351562 2.082031 0.0625 1.71875 0.0625 C 1.269531 0.0625 0.882812 -0.101562 0.5625 -0.4375 C 0.25 -0.78125 0.09375 -1.191406 0.09375 -1.671875 C 0.09375 -2.148438 0.25 -2.554688 0.5625 -2.890625 C 0.875 -3.234375 1.257812 -3.40625 1.71875 -3.40625 C 2.257812 -3.40625 2.6875 -3.210938 3 -2.828125 L 2.515625 -2.28125 C 2.328125 -2.570312 2.078125 -2.71875 1.765625 -2.71875 C 1.523438 -2.71875 1.320312 -2.613281 1.15625 -2.40625 C 1 -2.195312 0.921875 -1.953125 0.921875 -1.671875 C 0.921875 -1.390625 1 -1.144531 1.15625 -0.9375 C 1.320312 -0.738281 1.523438 -0.640625 1.765625 -0.640625 C 1.960938 -0.640625 2.128906 -0.695312 2.265625 -0.8125 C 2.410156 -0.925781 2.484375 -1.082031 2.484375 -1.28125 L 1.71875 -1.28125 L 1.71875 -1.875 Z M 3.265625 -1.875 "/></g></g></g><g fill="#ffffff" fill-opacity="1"><g transform="translate(99.464942, 24.512499)"><g><path d="M 1 -3.34375 L 1 -0.671875 L 2.15625 -0.671875 L 2.15625 0 L 0.25 0 L 0.25 -3.34375 Z M 1 -3.34375 "/></g></g></g><g fill="#ffffff" fill-opacity="1"><g transform="translate(101.748311, 24.512499)"><g><path d="M 1.9375 -3.34375 L 3.28125 0 L 2.46875 0 L 2.21875 -0.671875 L 0.953125 -0.671875 L 0.703125 0 L -0.109375 0 L 1.234375 -3.34375 Z M 1.96875 -1.328125 L 1.59375 -2.3125 L 1.578125 -2.3125 L 1.203125 -1.328125 Z M 1.96875 -1.328125 "/></g></g></g><g fill="#ffffff" fill-opacity="1"><g transform="translate(104.916739, 24.512499)"><g><path d="M 0.25 -3.34375 L 1.203125 -3.34375 C 1.671875 -3.34375 2.066406 -3.179688 2.390625 -2.859375 C 2.722656 -2.546875 2.890625 -2.148438 2.890625 -1.671875 C 2.890625 -1.191406 2.722656 -0.789062 2.390625 -0.46875 C 2.066406 -0.15625 1.671875 0 1.203125 0 L 0.25 0 Z M 1 -0.6875 L 1.125 -0.6875 C 1.394531 -0.6875 1.617188 -0.78125 1.796875 -0.96875 C 1.972656 -1.15625 2.066406 -1.390625 2.078125 -1.671875 C 2.078125 -1.953125 1.988281 -2.1875 1.8125 -2.375 C 1.632812 -2.5625 1.40625 -2.65625 1.125 -2.65625 L 1 -2.65625 Z M 1 -0.6875 "/></g></g></g><g fill="#ffffff" fill-opacity="1"><g transform="translate(107.899265, 24.512499)"><g><path d="M 2.15625 -3.34375 L 2.15625 -2.671875 L 1 -2.671875 L 1 -2 L 2.109375 -2 L 2.109375 -1.34375 L 1 -1.34375 L 1 -0.671875 L 2.15625 -0.671875 L 2.15625 0 L 0.25 0 L 0.25 -3.34375 Z M 2.15625 -3.34375 "/></g></g></g><g fill="#ffffff" fill-opacity="1"><g transform="translate(110.243256, 24.512499)"><g><path d="M 1.46875 -3.40625 C 1.65625 -3.40625 1.832031 -3.375 2 -3.3125 C 2.175781 -3.257812 2.304688 -3.210938 2.390625 -3.171875 L 2.515625 -3.078125 L 2.203125 -2.484375 C 2.179688 -2.492188 2.144531 -2.507812 2.09375 -2.53125 C 2.050781 -2.5625 1.96875 -2.597656 1.84375 -2.640625 C 1.726562 -2.679688 1.625 -2.703125 1.53125 -2.703125 C 1.394531 -2.703125 1.289062 -2.675781 1.21875 -2.625 C 1.15625 -2.570312 1.125 -2.5 1.125 -2.40625 C 1.125 -2.363281 1.140625 -2.320312 1.171875 -2.28125 C 1.203125 -2.238281 1.253906 -2.195312 1.328125 -2.15625 C 1.410156 -2.113281 1.484375 -2.078125 1.546875 -2.046875 C 1.609375 -2.015625 1.703125 -1.972656 1.828125 -1.921875 C 2.046875 -1.828125 2.226562 -1.703125 2.375 -1.546875 C 2.53125 -1.390625 2.609375 -1.210938 2.609375 -1.015625 C 2.609375 -0.828125 2.570312 -0.660156 2.5 -0.515625 C 2.4375 -0.367188 2.34375 -0.253906 2.21875 -0.171875 C 2.101562 -0.0976562 1.972656 -0.0390625 1.828125 0 C 1.679688 0.0390625 1.519531 0.0625 1.34375 0.0625 C 1.195312 0.0625 1.050781 0.046875 0.90625 0.015625 C 0.769531 -0.015625 0.65625 -0.0507812 0.5625 -0.09375 C 0.46875 -0.132812 0.382812 -0.175781 0.3125 -0.21875 C 0.238281 -0.269531 0.179688 -0.304688 0.140625 -0.328125 L 0.09375 -0.375 L 0.46875 -1.015625 C 0.5 -0.992188 0.539062 -0.960938 0.59375 -0.921875 C 0.65625 -0.878906 0.757812 -0.820312 0.90625 -0.75 C 1.050781 -0.675781 1.179688 -0.640625 1.296875 -0.640625 C 1.609375 -0.640625 1.765625 -0.75 1.765625 -0.96875 C 1.765625 -1.019531 1.753906 -1.0625 1.734375 -1.09375 C 1.710938 -1.132812 1.671875 -1.175781 1.609375 -1.21875 C 1.554688 -1.257812 1.503906 -1.289062 1.453125 -1.3125 C 1.410156 -1.332031 1.335938 -1.363281 1.234375 -1.40625 C 1.140625 -1.457031 1.066406 -1.492188 1.015625 -1.515625 C 0.816406 -1.617188 0.660156 -1.742188 0.546875 -1.890625 C 0.441406 -2.046875 0.390625 -2.207031 0.390625 -2.375 C 0.390625 -2.675781 0.5 -2.921875 0.71875 -3.109375 C 0.9375 -3.304688 1.1875 -3.40625 1.46875 -3.40625 Z M 1.46875 -3.40625 "/></g></g></g><g fill="#ffffff" fill-opacity="1"><g transform="translate(112.959052, 24.512499)"><g><path d="M 1 -1.34375 L 1 0 L 0.25 0 L 0.25 -3.34375 L 1 -3.34375 L 1 -2 L 2.078125 -2 L 2.078125 -3.34375 L 2.84375 -3.34375 L 2.84375 0 L 2.078125 0 L 2.078125 -1.34375 Z M 1 -1.34375 "/></g></g></g><g fill="#ffffff" fill-opacity="1"><g transform="translate(32.95734, 8.045278)"><g><path d="M 0.421875 -5.78125 L 2.53125 -5.78125 C 3.125 -5.78125 3.601562 -5.628906 3.96875 -5.328125 C 4.332031 -5.023438 4.515625 -4.582031 4.515625 -4 C 4.515625 -3.425781 4.328125 -2.972656 3.953125 -2.640625 C 3.585938 -2.304688 3.113281 -2.140625 2.53125 -2.140625 L 1.734375 -2.140625 L 1.734375 0 L 0.421875 0 Z M 1.734375 -3.203125 L 2.109375 -3.203125 C 2.398438 -3.203125 2.640625 -3.257812 2.828125 -3.375 C 3.023438 -3.5 3.125 -3.695312 3.125 -3.96875 C 3.125 -4.238281 3.023438 -4.429688 2.828125 -4.546875 C 2.640625 -4.671875 2.398438 -4.734375 2.109375 -4.734375 L 1.734375 -4.734375 Z M 1.734375 -3.203125 "/></g></g></g><g fill="#ffffff" fill-opacity="1"><g transform="translate(37.627286, 8.045278)"><g><path d="M 0.421875 -5.78125 L 2.484375 -5.78125 C 3.046875 -5.78125 3.5 -5.628906 3.84375 -5.328125 C 4.195312 -5.035156 4.375 -4.613281 4.375 -4.0625 C 4.375 -3.644531 4.265625 -3.289062 4.046875 -3 C 3.835938 -2.707031 3.550781 -2.503906 3.1875 -2.390625 L 5.1875 0 L 3.515625 0 L 1.734375 -2.28125 L 1.734375 0 L 0.421875 0 Z M 1.734375 -3.21875 L 1.890625 -3.21875 C 2.015625 -3.21875 2.117188 -3.21875 2.203125 -3.21875 C 2.285156 -3.226562 2.378906 -3.242188 2.484375 -3.265625 C 2.597656 -3.296875 2.6875 -3.335938 2.75 -3.390625 C 2.8125 -3.441406 2.863281 -3.515625 2.90625 -3.609375 C 2.957031 -3.710938 2.984375 -3.832031 2.984375 -3.96875 C 2.984375 -4.113281 2.957031 -4.234375 2.90625 -4.328125 C 2.863281 -4.429688 2.8125 -4.507812 2.75 -4.5625 C 2.6875 -4.613281 2.597656 -4.648438 2.484375 -4.671875 C 2.378906 -4.703125 2.285156 -4.71875 2.203125 -4.71875 C 2.117188 -4.726562 2.015625 -4.734375 1.890625 -4.734375 L 1.734375 -4.734375 Z M 1.734375 -3.21875 "/></g></g></g><g fill="#ffffff" fill-opacity="1"><g transform="translate(42.64783, 8.045278)"><g><path d="M 0.15625 -2.890625 C 0.15625 -3.734375 0.441406 -4.441406 1.015625 -5.015625 C 1.585938 -5.597656 2.273438 -5.890625 3.078125 -5.890625 C 3.890625 -5.890625 4.578125 -5.597656 5.140625 -5.015625 C 5.703125 -4.441406 5.984375 -3.734375 5.984375 -2.890625 C 5.984375 -2.046875 5.707031 -1.332031 5.15625 -0.75 C 4.601562 -0.175781 3.910156 0.109375 3.078125 0.109375 C 2.234375 0.109375 1.535156 -0.175781 0.984375 -0.75 C 0.429688 -1.320312 0.15625 -2.035156 0.15625 -2.890625 Z M 1.578125 -2.890625 C 1.578125 -2.585938 1.625 -2.3125 1.71875 -2.0625 C 1.8125 -1.8125 1.972656 -1.597656 2.203125 -1.421875 C 2.441406 -1.253906 2.734375 -1.171875 3.078125 -1.171875 C 3.566406 -1.171875 3.9375 -1.335938 4.1875 -1.671875 C 4.4375 -2.015625 4.5625 -2.421875 4.5625 -2.890625 C 4.5625 -3.367188 4.429688 -3.773438 4.171875 -4.109375 C 3.921875 -4.453125 3.554688 -4.625 3.078125 -4.625 C 2.597656 -4.625 2.226562 -4.453125 1.96875 -4.109375 C 1.707031 -3.773438 1.578125 -3.367188 1.578125 -2.890625 Z M 1.578125 -2.890625 "/></g></g></g><g fill="#ffffff" fill-opacity="1"><g transform="translate(48.7973, 8.045278)"><g><path d="M 3.765625 -5.78125 L 3.765625 -4.625 L 1.734375 -4.625 L 1.734375 -3.484375 L 3.609375 -3.484375 L 3.609375 -2.328125 L 1.734375 -2.328125 L 1.734375 0 L 0.421875 0 L 0.421875 -5.78125 Z M 3.765625 -5.78125 "/></g></g></g><g fill="#ffffff" fill-opacity="1"><g transform="translate(52.773067, 8.045278)"><g><path d="M 3.734375 -5.78125 L 3.734375 -4.625 L 1.734375 -4.625 L 1.734375 -3.484375 L 3.640625 -3.484375 L 3.640625 -2.328125 L 1.734375 -2.328125 L 1.734375 -1.15625 L 3.734375 -1.15625 L 3.734375 0 L 0.421875 0 L 0.421875 -5.78125 Z M 3.734375 -5.78125 "/></g></g></g><g fill="#ffffff" fill-opacity="1"><g transform="translate(56.839991, 8.045278)"><g><path d="M 2.546875 -5.890625 C 2.867188 -5.890625 3.175781 -5.84375 3.46875 -5.75 C 3.769531 -5.664062 3.992188 -5.578125 4.140625 -5.484375 L 4.34375 -5.34375 L 3.8125 -4.296875 C 3.769531 -4.316406 3.710938 -4.347656 3.640625 -4.390625 C 3.566406 -4.441406 3.425781 -4.503906 3.21875 -4.578125 C 3.007812 -4.648438 2.816406 -4.6875 2.640625 -4.6875 C 2.421875 -4.6875 2.25 -4.640625 2.125 -4.546875 C 2.007812 -4.453125 1.953125 -4.328125 1.953125 -4.171875 C 1.953125 -4.097656 1.976562 -4.023438 2.03125 -3.953125 C 2.09375 -3.890625 2.191406 -3.816406 2.328125 -3.734375 C 2.460938 -3.660156 2.582031 -3.597656 2.6875 -3.546875 C 2.789062 -3.503906 2.953125 -3.4375 3.171875 -3.34375 C 3.535156 -3.175781 3.847656 -2.957031 4.109375 -2.6875 C 4.378906 -2.414062 4.515625 -2.109375 4.515625 -1.765625 C 4.515625 -1.429688 4.453125 -1.140625 4.328125 -0.890625 C 4.210938 -0.640625 4.050781 -0.441406 3.84375 -0.296875 C 3.632812 -0.160156 3.40625 -0.0625 3.15625 0 C 2.90625 0.0703125 2.632812 0.109375 2.34375 0.109375 C 2.082031 0.109375 1.832031 0.0820312 1.59375 0.03125 C 1.351562 -0.0195312 1.148438 -0.0820312 0.984375 -0.15625 C 0.816406 -0.238281 0.664062 -0.316406 0.53125 -0.390625 C 0.40625 -0.460938 0.3125 -0.523438 0.25 -0.578125 L 0.15625 -0.65625 L 0.828125 -1.765625 C 0.878906 -1.722656 0.953125 -1.664062 1.046875 -1.59375 C 1.148438 -1.519531 1.328125 -1.421875 1.578125 -1.296875 C 1.828125 -1.171875 2.046875 -1.109375 2.234375 -1.109375 C 2.796875 -1.109375 3.078125 -1.300781 3.078125 -1.6875 C 3.078125 -1.757812 3.054688 -1.828125 3.015625 -1.890625 C 2.972656 -1.960938 2.898438 -2.03125 2.796875 -2.09375 C 2.703125 -2.164062 2.613281 -2.222656 2.53125 -2.265625 C 2.457031 -2.304688 2.332031 -2.367188 2.15625 -2.453125 C 1.976562 -2.535156 1.847656 -2.597656 1.765625 -2.640625 C 1.410156 -2.804688 1.140625 -3.019531 0.953125 -3.28125 C 0.765625 -3.539062 0.671875 -3.820312 0.671875 -4.125 C 0.671875 -4.644531 0.859375 -5.066406 1.234375 -5.390625 C 1.617188 -5.722656 2.054688 -5.890625 2.546875 -5.890625 Z M 2.546875 -5.890625 "/></g></g></g><g fill="#ffffff" fill-opacity="1"><g transform="translate(61.552012, 8.045278)"><g><path d="M 2.546875 -5.890625 C 2.867188 -5.890625 3.175781 -5.84375 3.46875 -5.75 C 3.769531 -5.664062 3.992188 -5.578125 4.140625 -5.484375 L 4.34375 -5.34375 L 3.8125 -4.296875 C 3.769531 -4.316406 3.710938 -4.347656 3.640625 -4.390625 C 3.566406 -4.441406 3.425781 -4.503906 3.21875 -4.578125 C 3.007812 -4.648438 2.816406 -4.6875 2.640625 -4.6875 C 2.421875 -4.6875 2.25 -4.640625 2.125 -4.546875 C 2.007812 -4.453125 1.953125 -4.328125 1.953125 -4.171875 C 1.953125 -4.097656 1.976562 -4.023438 2.03125 -3.953125 C 2.09375 -3.890625 2.191406 -3.816406 2.328125 -3.734375 C 2.460938 -3.660156 2.582031 -3.597656 2.6875 -3.546875 C 2.789062 -3.503906 2.953125 -3.4375 3.171875 -3.34375 C 3.535156 -3.175781 3.847656 -2.957031 4.109375 -2.6875 C 4.378906 -2.414062 4.515625 -2.109375 4.515625 -1.765625 C 4.515625 -1.429688 4.453125 -1.140625 4.328125 -0.890625 C 4.210938 -0.640625 4.050781 -0.441406 3.84375 -0.296875 C 3.632812 -0.160156 3.40625 -0.0625 3.15625 0 C 2.90625 0.0703125 2.632812 0.109375 2.34375 0.109375 C 2.082031 0.109375 1.832031 0.0820312 1.59375 0.03125 C 1.351562 -0.0195312 1.148438 -0.0820312 0.984375 -0.15625 C 0.816406 -0.238281 0.664062 -0.316406 0.53125 -0.390625 C 0.40625 -0.460938 0.3125 -0.523438 0.25 -0.578125 L 0.15625 -0.65625 L 0.828125 -1.765625 C 0.878906 -1.722656 0.953125 -1.664062 1.046875 -1.59375 C 1.148438 -1.519531 1.328125 -1.421875 1.578125 -1.296875 C 1.828125 -1.171875 2.046875 -1.109375 2.234375 -1.109375 C 2.796875 -1.109375 3.078125 -1.300781 3.078125 -1.6875 C 3.078125 -1.757812 3.054688 -1.828125 3.015625 -1.890625 C 2.972656 -1.960938 2.898438 -2.03125 2.796875 -2.09375 C 2.703125 -2.164062 2.613281 -2.222656 2.53125 -2.265625 C 2.457031 -2.304688 2.332031 -2.367188 2.15625 -2.453125 C 1.976562 -2.535156 1.847656 -2.597656 1.765625 -2.640625 C 1.410156 -2.804688 1.140625 -3.019531 0.953125 -3.28125 C 0.765625 -3.539062 0.671875 -3.820312 0.671875 -4.125 C 0.671875 -4.644531 0.859375 -5.066406 1.234375 -5.390625 C 1.617188 -5.722656 2.054688 -5.890625 2.546875 -5.890625 Z M 2.546875 -5.890625 "/></g></g></g><g fill="#ffffff" fill-opacity="1"><g transform="translate(66.264033, 8.045278)"><g><path d="M 1.734375 -5.78125 L 1.734375 0 L 0.421875 0 L 0.421875 -5.78125 Z M 1.734375 -5.78125 "/></g></g></g><g fill="#ffffff" fill-opacity="1"><g transform="translate(68.423711, 8.045278)"><g><path d="M 0.15625 -2.890625 C 0.15625 -3.734375 0.441406 -4.441406 1.015625 -5.015625 C 1.585938 -5.597656 2.273438 -5.890625 3.078125 -5.890625 C 3.890625 -5.890625 4.578125 -5.597656 5.140625 -5.015625 C 5.703125 -4.441406 5.984375 -3.734375 5.984375 -2.890625 C 5.984375 -2.046875 5.707031 -1.332031 5.15625 -0.75 C 4.601562 -0.175781 3.910156 0.109375 3.078125 0.109375 C 2.234375 0.109375 1.535156 -0.175781 0.984375 -0.75 C 0.429688 -1.320312 0.15625 -2.035156 0.15625 -2.890625 Z M 1.578125 -2.890625 C 1.578125 -2.585938 1.625 -2.3125 1.71875 -2.0625 C 1.8125 -1.8125 1.972656 -1.597656 2.203125 -1.421875 C 2.441406 -1.253906 2.734375 -1.171875 3.078125 -1.171875 C 3.566406 -1.171875 3.9375 -1.335938 4.1875 -1.671875 C 4.4375 -2.015625 4.5625 -2.421875 4.5625 -2.890625 C 4.5625 -3.367188 4.429688 -3.773438 4.171875 -4.109375 C 3.921875 -4.453125 3.554688 -4.625 3.078125 -4.625 C 2.597656 -4.625 2.226562 -4.453125 1.96875 -4.109375 C 1.707031 -3.773438 1.578125 -3.367188 1.578125 -2.890625 Z M 1.578125 -2.890625 "/></g></g></g><g fill="#ffffff" fill-opacity="1"><g transform="translate(74.573181, 8.045278)"><g><path d="M 1.734375 -3.59375 L 1.734375 0 L 0.421875 0 L 0.421875 -5.78125 L 1.734375 -5.78125 L 4.046875 -2.203125 L 4.0625 -2.203125 L 4.0625 -5.78125 L 5.375 -5.78125 L 5.375 0 L 4.0625 0 L 1.75 -3.59375 Z M 1.734375 -3.59375 "/></g></g></g><g fill="#ffffff" fill-opacity="1"><g transform="translate(80.365037, 8.045278)"><g><path d="M 3.359375 -5.78125 L 5.703125 0 L 4.28125 0 L 3.859375 -1.15625 L 1.65625 -1.15625 L 1.21875 0 L -0.203125 0 L 2.140625 -5.78125 Z M 3.40625 -2.3125 L 2.75 -4 L 2.09375 -2.3125 Z M 3.40625 -2.3125 "/></g></g></g><g fill="#ffffff" fill-opacity="1"><g transform="translate(85.862394, 8.045278)"><g><path d="M 1.734375 -5.78125 L 1.734375 -1.15625 L 3.734375 -1.15625 L 3.734375 0 L 0.421875 0 L 0.421875 -5.78125 Z M 1.734375 -5.78125 "/></g></g></g><g fill="#ffffff" fill-opacity="1"><g transform="translate(89.824136, 8.045278)"><g/></g></g><g fill="#ffffff" fill-opacity="1"><g transform="translate(91.73839, 8.045278)"><g><path d="M 2.546875 -5.890625 C 2.867188 -5.890625 3.175781 -5.84375 3.46875 -5.75 C 3.769531 -5.664062 3.992188 -5.578125 4.140625 -5.484375 L 4.34375 -5.34375 L 3.8125 -4.296875 C 3.769531 -4.316406 3.710938 -4.347656 3.640625 -4.390625 C 3.566406 -4.441406 3.425781 -4.503906 3.21875 -4.578125 C 3.007812 -4.648438 2.816406 -4.6875 2.640625 -4.6875 C 2.421875 -4.6875 2.25 -4.640625 2.125 -4.546875 C 2.007812 -4.453125 1.953125 -4.328125 1.953125 -4.171875 C 1.953125 -4.097656 1.976562 -4.023438 2.03125 -3.953125 C 2.09375 -3.890625 2.191406 -3.816406 2.328125 -3.734375 C 2.460938 -3.660156 2.582031 -3.597656 2.6875 -3.546875 C 2.789062 -3.503906 2.953125 -3.4375 3.171875 -3.34375 C 3.535156 -3.175781 3.847656 -2.957031 4.109375 -2.6875 C 4.378906 -2.414062 4.515625 -2.109375 4.515625 -1.765625 C 4.515625 -1.429688 4.453125 -1.140625 4.328125 -0.890625 C 4.210938 -0.640625 4.050781 -0.441406 3.84375 -0.296875 C 3.632812 -0.160156 3.40625 -0.0625 3.15625 0 C 2.90625 0.0703125 2.632812 0.109375 2.34375 0.109375 C 2.082031 0.109375 1.832031 0.0820312 1.59375 0.03125 C 1.351562 -0.0195312 1.148438 -0.0820312 0.984375 -0.15625 C 0.816406 -0.238281 0.664062 -0.316406 0.53125 -0.390625 C 0.40625 -0.460938 0.3125 -0.523438 0.25 -0.578125 L 0.15625 -0.65625 L 0.828125 -1.765625 C 0.878906 -1.722656 0.953125 -1.664062 1.046875 -1.59375 C 1.148438 -1.519531 1.328125 -1.421875 1.578125 -1.296875 C 1.828125 -1.171875 2.046875 -1.109375 2.234375 -1.109375 C 2.796875 -1.109375 3.078125 -1.300781 3.078125 -1.6875 C 3.078125 -1.757812 3.054688 -1.828125 3.015625 -1.890625 C 2.972656 -1.960938 2.898438 -2.03125 2.796875 -2.09375 C 2.703125 -2.164062 2.613281 -2.222656 2.53125 -2.265625 C 2.457031 -2.304688 2.332031 -2.367188 2.15625 -2.453125 C 1.976562 -2.535156 1.847656 -2.597656 1.765625 -2.640625 C 1.410156 -2.804688 1.140625 -3.019531 0.953125 -3.28125 C 0.765625 -3.539062 0.671875 -3.820312 0.671875 -4.125 C 0.671875 -4.644531 0.859375 -5.066406 1.234375 -5.390625 C 1.617188 -5.722656 2.054688 -5.890625 2.546875 -5.890625 Z M 2.546875 -5.890625 "/></g></g></g><g fill="#ffffff" fill-opacity="1"><g transform="translate(96.450411, 8.045278)"><g><path d="M 5.6875 0 L 3.875 0 L 1.734375 -2.453125 L 1.734375 0 L 0.421875 0 L 0.421875 -5.78125 L 1.734375 -5.78125 L 1.734375 -3.421875 L 3.71875 -5.78125 L 5.328125 -5.78125 L 3 -3.046875 Z M 5.6875 0 "/></g></g></g><g fill="#ffffff" fill-opacity="1"><g transform="translate(101.968801, 8.045278)"><g><path d="M 1.734375 -5.78125 L 1.734375 0 L 0.421875 0 L 0.421875 -5.78125 Z M 1.734375 -5.78125 "/></g></g></g><g fill="#ffffff" fill-opacity="1"><g transform="translate(104.12848, 8.045278)"><g><path d="M 1.734375 -5.78125 L 1.734375 -1.15625 L 3.734375 -1.15625 L 3.734375 0 L 0.421875 0 L 0.421875 -5.78125 Z M 1.734375 -5.78125 "/></g></g></g><g fill="#ffffff" fill-opacity="1"><g transform="translate(108.090222, 8.045278)"><g><path d="M 1.734375 -5.78125 L 1.734375 -1.15625 L 3.734375 -1.15625 L 3.734375 0 L 0.421875 0 L 0.421875 -5.78125 Z M 1.734375 -5.78125 "/></g></g></g><g fill="#ffffff" fill-opacity="1"><g transform="translate(30.218322, 17.39446)"><g><path d="M 0.421875 -5.78125 L 2.09375 -5.78125 C 2.894531 -5.78125 3.582031 -5.503906 4.15625 -4.953125 C 4.726562 -4.410156 5.015625 -3.722656 5.015625 -2.890625 C 5.015625 -2.066406 4.726562 -1.378906 4.15625 -0.828125 C 3.59375 -0.273438 2.90625 0 2.09375 0 L 0.421875 0 Z M 1.734375 -1.171875 L 1.9375 -1.171875 C 2.425781 -1.171875 2.820312 -1.332031 3.125 -1.65625 C 3.425781 -1.988281 3.582031 -2.398438 3.59375 -2.890625 C 3.59375 -3.378906 3.4375 -3.785156 3.125 -4.109375 C 2.820312 -4.441406 2.425781 -4.609375 1.9375 -4.609375 L 1.734375 -4.609375 Z M 1.734375 -1.171875 "/></g></g></g><g fill="#ffffff" fill-opacity="1"><g transform="translate(35.393132, 17.39446)"><g><path d="M 3.734375 -5.78125 L 3.734375 -4.625 L 1.734375 -4.625 L 1.734375 -3.484375 L 3.640625 -3.484375 L 3.640625 -2.328125 L 1.734375 -2.328125 L 1.734375 -1.15625 L 3.734375 -1.15625 L 3.734375 0 L 0.421875 0 L 0.421875 -5.78125 Z M 3.734375 -5.78125 "/></g></g></g><g fill="#ffffff" fill-opacity="1"><g transform="translate(39.460056, 17.39446)"><g><path d="M 2.234375 0 L -0.203125 -5.78125 L 1.296875 -5.78125 L 2.75 -1.984375 L 4.203125 -5.78125 L 5.703125 -5.78125 L 3.265625 0 Z M 2.234375 0 "/></g></g></g><g fill="#ffffff" fill-opacity="1"><g transform="translate(44.957414, 17.39446)"><g><path d="M 3.734375 -5.78125 L 3.734375 -4.625 L 1.734375 -4.625 L 1.734375 -3.484375 L 3.640625 -3.484375 L 3.640625 -2.328125 L 1.734375 -2.328125 L 1.734375 -1.15625 L 3.734375 -1.15625 L 3.734375 0 L 0.421875 0 L 0.421875 -5.78125 Z M 3.734375 -5.78125 "/></g></g></g><g fill="#ffffff" fill-opacity="1"><g transform="translate(49.024339, 17.39446)"><g><path d="M 1.734375 -5.78125 L 1.734375 -1.15625 L 3.734375 -1.15625 L 3.734375 0 L 0.421875 0 L 0.421875 -5.78125 Z M 1.734375 -5.78125 "/></g></g></g><g fill="#ffffff" fill-opacity="1"><g transform="translate(52.98608, 17.39446)"><g><path d="M 0.15625 -2.890625 C 0.15625 -3.734375 0.441406 -4.441406 1.015625 -5.015625 C 1.585938 -5.597656 2.273438 -5.890625 3.078125 -5.890625 C 3.890625 -5.890625 4.578125 -5.597656 5.140625 -5.015625 C 5.703125 -4.441406 5.984375 -3.734375 5.984375 -2.890625 C 5.984375 -2.046875 5.707031 -1.332031 5.15625 -0.75 C 4.601562 -0.175781 3.910156 0.109375 3.078125 0.109375 C 2.234375 0.109375 1.535156 -0.175781 0.984375 -0.75 C 0.429688 -1.320312 0.15625 -2.035156 0.15625 -2.890625 Z M 1.578125 -2.890625 C 1.578125 -2.585938 1.625 -2.3125 1.71875 -2.0625 C 1.8125 -1.8125 1.972656 -1.597656 2.203125 -1.421875 C 2.441406 -1.253906 2.734375 -1.171875 3.078125 -1.171875 C 3.566406 -1.171875 3.9375 -1.335938 4.1875 -1.671875 C 4.4375 -2.015625 4.5625 -2.421875 4.5625 -2.890625 C 4.5625 -3.367188 4.429688 -3.773438 4.171875 -4.109375 C 3.921875 -4.453125 3.554688 -4.625 3.078125 -4.625 C 2.597656 -4.625 2.226562 -4.453125 1.96875 -4.109375 C 1.707031 -3.773438 1.578125 -3.367188 1.578125 -2.890625 Z M 1.578125 -2.890625 "/></g></g></g><g fill="#ffffff" fill-opacity="1"><g transform="translate(59.135551, 17.39446)"><g><path d="M 0.421875 -5.78125 L 2.53125 -5.78125 C 3.125 -5.78125 3.601562 -5.628906 3.96875 -5.328125 C 4.332031 -5.023438 4.515625 -4.582031 4.515625 -4 C 4.515625 -3.425781 4.328125 -2.972656 3.953125 -2.640625 C 3.585938 -2.304688 3.113281 -2.140625 2.53125 -2.140625 L 1.734375 -2.140625 L 1.734375 0 L 0.421875 0 Z M 1.734375 -3.203125 L 2.109375 -3.203125 C 2.398438 -3.203125 2.640625 -3.257812 2.828125 -3.375 C 3.023438 -3.5 3.125 -3.695312 3.125 -3.96875 C 3.125 -4.238281 3.023438 -4.429688 2.828125 -4.546875 C 2.640625 -4.671875 2.398438 -4.734375 2.109375 -4.734375 L 1.734375 -4.734375 Z M 1.734375 -3.203125 "/></g></g></g><g fill="#ffffff" fill-opacity="1"><g transform="translate(63.805496, 17.39446)"><g><path d="M 5.203125 0 L 4.9375 -3.4375 L 4.890625 -3.4375 L 3.71875 -0.03125 L 2.921875 -0.03125 L 1.734375 -3.4375 L 1.703125 -3.4375 L 1.4375 0 L 0.109375 0 L 0.625 -5.78125 L 2.03125 -5.78125 L 3.3125 -2.453125 L 4.609375 -5.78125 L 6 -5.78125 L 6.53125 0 Z M 5.203125 0 "/></g></g></g><g fill="#ffffff" fill-opacity="1"><g transform="translate(70.438788, 17.39446)"><g><path d="M 3.734375 -5.78125 L 3.734375 -4.625 L 1.734375 -4.625 L 1.734375 -3.484375 L 3.640625 -3.484375 L 3.640625 -2.328125 L 1.734375 -2.328125 L 1.734375 -1.15625 L 3.734375 -1.15625 L 3.734375 0 L 0.421875 0 L 0.421875 -5.78125 Z M 3.734375 -5.78125 "/></g></g></g><g fill="#ffffff" fill-opacity="1"><g transform="translate(74.505713, 17.39446)"><g><path d="M 1.734375 -3.59375 L 1.734375 0 L 0.421875 0 L 0.421875 -5.78125 L 1.734375 -5.78125 L 4.046875 -2.203125 L 4.0625 -2.203125 L 4.0625 -5.78125 L 5.375 -5.78125 L 5.375 0 L 4.0625 0 L 1.75 -3.59375 Z M 1.734375 -3.59375 "/></g></g></g><g fill="#ffffff" fill-opacity="1"><g transform="translate(80.297569, 17.39446)"><g><path d="M 0.0625 -4.625 L 0.0625 -5.78125 L 4.125 -5.78125 L 4.125 -4.625 L 2.75 -4.625 L 2.75 0 L 1.4375 0 L 1.4375 -4.625 Z M 0.0625 -4.625 "/></g></g></g><g fill="#ffffff" fill-opacity="1"><g transform="translate(84.476684, 17.39446)"><g/></g></g><g fill="#ffffff" fill-opacity="1"><g transform="translate(86.390939, 17.39446)"><g><path d="M 3.5 -1.1875 C 3.695312 -1.1875 3.890625 -1.21875 4.078125 -1.28125 C 4.273438 -1.34375 4.414062 -1.398438 4.5 -1.453125 L 4.640625 -1.546875 L 5.203125 -0.421875 C 5.179688 -0.410156 5.15625 -0.394531 5.125 -0.375 C 5.09375 -0.351562 5.015625 -0.304688 4.890625 -0.234375 C 4.773438 -0.171875 4.648438 -0.113281 4.515625 -0.0625 C 4.378906 -0.0195312 4.195312 0.015625 3.96875 0.046875 C 3.75 0.0859375 3.523438 0.109375 3.296875 0.109375 C 2.753906 0.109375 2.242188 -0.0195312 1.765625 -0.28125 C 1.285156 -0.550781 0.894531 -0.914062 0.59375 -1.375 C 0.300781 -1.84375 0.15625 -2.347656 0.15625 -2.890625 C 0.15625 -3.296875 0.242188 -3.679688 0.421875 -4.046875 C 0.597656 -4.421875 0.828125 -4.742188 1.109375 -5.015625 C 1.398438 -5.285156 1.734375 -5.5 2.109375 -5.65625 C 2.492188 -5.8125 2.890625 -5.890625 3.296875 -5.890625 C 3.671875 -5.890625 4.015625 -5.84375 4.328125 -5.75 C 4.648438 -5.664062 4.875 -5.582031 5 -5.5 L 5.203125 -5.359375 L 4.640625 -4.234375 C 4.609375 -4.265625 4.554688 -4.300781 4.484375 -4.34375 C 4.421875 -4.382812 4.289062 -4.4375 4.09375 -4.5 C 3.894531 -4.5625 3.695312 -4.59375 3.5 -4.59375 C 3.1875 -4.59375 2.898438 -4.539062 2.640625 -4.4375 C 2.390625 -4.332031 2.191406 -4.195312 2.046875 -4.03125 C 1.898438 -3.863281 1.785156 -3.679688 1.703125 -3.484375 C 1.628906 -3.296875 1.59375 -3.097656 1.59375 -2.890625 C 1.59375 -2.453125 1.753906 -2.054688 2.078125 -1.703125 C 2.410156 -1.359375 2.882812 -1.1875 3.5 -1.1875 Z M 3.5 -1.1875 "/></g></g></g><g fill="#ffffff" fill-opacity="1"><g transform="translate(91.670922, 17.39446)"><g><path d="M 3.734375 -5.78125 L 3.734375 -4.625 L 1.734375 -4.625 L 1.734375 -3.484375 L 3.640625 -3.484375 L 3.640625 -2.328125 L 1.734375 -2.328125 L 1.734375 -1.15625 L 3.734375 -1.15625 L 3.734375 0 L 0.421875 0 L 0.421875 -5.78125 Z M 3.734375 -5.78125 "/></g></g></g><g fill="#ffffff" fill-opacity="1"><g transform="translate(95.737847, 17.39446)"><g><path d="M 1.734375 -3.59375 L 1.734375 0 L 0.421875 0 L 0.421875 -5.78125 L 1.734375 -5.78125 L 4.046875 -2.203125 L 4.0625 -2.203125 L 4.0625 -5.78125 L 5.375 -5.78125 L 5.375 0 L 4.0625 0 L 1.75 -3.59375 Z M 1.734375 -3.59375 "/></g></g></g><g fill="#ffffff" fill-opacity="1"><g transform="translate(101.529702, 17.39446)"><g><path d="M 0.0625 -4.625 L 0.0625 -5.78125 L 4.125 -5.78125 L 4.125 -4.625 L 2.75 -4.625 L 2.75 0 L 1.4375 0 L 1.4375 -4.625 Z M 0.0625 -4.625 "/></g></g></g><g fill="#ffffff" fill-opacity="1"><g transform="translate(105.708818, 17.39446)"><g><path d="M 3.734375 -5.78125 L 3.734375 -4.625 L 1.734375 -4.625 L 1.734375 -3.484375 L 3.640625 -3.484375 L 3.640625 -2.328125 L 1.734375 -2.328125 L 1.734375 -1.15625 L 3.734375 -1.15625 L 3.734375 0 L 0.421875 0 L 0.421875 -5.78125 Z M 3.734375 -5.78125 "/></g></g></g><g fill="#ffffff" fill-opacity="1"><g transform="translate(109.775743, 17.39446)"><g><path d="M 0.421875 -5.78125 L 2.484375 -5.78125 C 3.046875 -5.78125 3.5 -5.628906 3.84375 -5.328125 C 4.195312 -5.035156 4.375 -4.613281 4.375 -4.0625 C 4.375 -3.644531 4.265625 -3.289062 4.046875 -3 C 3.835938 -2.707031 3.550781 -2.503906 3.1875 -2.390625 L 5.1875 0 L 3.515625 0 L 1.734375 -2.28125 L 1.734375 0 L 0.421875 0 Z M 1.734375 -3.21875 L 1.890625 -3.21875 C 2.015625 -3.21875 2.117188 -3.21875 2.203125 -3.21875 C 2.285156 -3.226562 2.378906 -3.242188 2.484375 -3.265625 C 2.597656 -3.296875 2.6875 -3.335938 2.75 -3.390625 C 2.8125 -3.441406 2.863281 -3.515625 2.90625 -3.609375 C 2.957031 -3.710938 2.984375 -3.832031 2.984375 -3.96875 C 2.984375 -4.113281 2.957031 -4.234375 2.90625 -4.328125 C 2.863281 -4.429688 2.8125 -4.507812 2.75 -4.5625 C 2.6875 -4.613281 2.597656 -4.648438 2.484375 -4.671875 C 2.378906 -4.703125 2.285156 -4.71875 2.203125 -4.71875 C 2.117188 -4.726562 2.015625 -4.734375 1.890625 -4.734375 L 1.734375 -4.734375 Z M 1.734375 -3.21875 "/></g></g></g><g clip-path="url(#f57d643139)"><path fill="#ffffff" d="M 2.21875 7.191406 L 14.898438 13.292969 C 15.054688 13.371094 15.214844 13.371094 15.371094 13.292969 L 28.050781 7.191406 C 28.253906 7.089844 28.355469 6.929688 28.355469 6.703125 C 28.355469 6.480469 28.253906 6.316406 28.050781 6.21875 L 15.371094 0.113281 C 15.214844 0.0390625 15.054688 0.0390625 14.898438 0.113281 L 2.21875 6.21875 C 2.015625 6.316406 1.917969 6.480469 1.917969 6.703125 C 1.917969 6.929688 2.015625 7.089844 2.21875 7.191406 Z M 2.21875 7.191406 " fill-opacity="1" fill-rule="nonzero"/></g><g clip-path="url(#4c865e7dd0)"><path fill="#ffffff" d="M 2.21875 14.601562 L 14.898438 20.695312 C 15.054688 20.769531 15.214844 20.769531 15.371094 20.695312 L 28.050781 14.601562 C 28.253906 14.503906 28.355469 14.34375 28.355469 14.121094 C 28.355469 13.894531 28.253906 13.734375 28.050781 13.636719 L 26.035156 12.660156 C 25.597656 12.441406 25.15625 12.441406 24.714844 12.660156 L 16.902344 16.429688 C 16.351562 16.691406 15.769531 16.824219 15.160156 16.824219 C 14.546875 16.824219 13.964844 16.691406 13.414062 16.429688 L 5.558594 12.652344 C 5.117188 12.441406 4.675781 12.441406 4.234375 12.652344 L 2.21875 13.625 C 2.015625 13.722656 1.914062 13.882812 1.914062 14.109375 C 1.914062 14.332031 2.015625 14.492188 2.21875 14.589844 Z M 2.21875 14.601562 " fill-opacity="1" fill-rule="nonzero"/></g><g clip-path="url(#89951fa5c5)"><path fill="#ffffff" d="M 28.050781 21.03125 L 26.035156 20.058594 C 25.597656 19.847656 25.15625 19.847656 24.714844 20.058594 L 16.902344 23.832031 C 16.351562 24.097656 15.769531 24.230469 15.160156 24.230469 C 14.546875 24.230469 13.964844 24.097656 13.414062 23.832031 L 5.582031 20.058594 C 5.140625 19.847656 4.699219 19.847656 4.257812 20.058594 L 2.242188 21.03125 C 2.039062 21.128906 1.9375 21.289062 1.9375 21.515625 C 1.9375 21.738281 2.039062 21.902344 2.242188 22 L 14.898438 28.101562 C 15.054688 28.179688 15.214844 28.179688 15.371094 28.101562 L 28.050781 22 C 28.253906 21.902344 28.355469 21.738281 28.355469 21.515625 C 28.355469 21.289062 28.253906 21.128906 28.050781 21.03125 Z M 28.050781 21.03125 " fill-opacity="1" fill-rule="nonzero"/></g></svg>