<svg xmlns="http://www.w3.org/2000/svg" xmlns:xlink="http://www.w3.org/1999/xlink" width="87" zoomAndPan="magnify" viewBox="0 0 65.25 31.5" height="42" preserveAspectRatio="xMidYMid meet" version="1.0"><defs><g/><clipPath id="0eb6d28dee"><path d="M 0.335938 0 L 24.699219 0 L 24.699219 13 L 0.335938 13 Z M 0.335938 0 " clip-rule="nonzero"/></clipPath><clipPath id="6218a4c4be"><path d="M 0.335938 11 L 24.699219 11 L 24.699219 20 L 0.335938 20 Z M 0.335938 11 " clip-rule="nonzero"/></clipPath><clipPath id="bfc254efe9"><path d="M 0.335938 18 L 24.699219 18 L 24.699219 25.839844 L 0.335938 25.839844 Z M 0.335938 18 " clip-rule="nonzero"/></clipPath></defs><g fill="#ffffff" fill-opacity="1"><g transform="translate(25.431368, 6.349215)"><g><path d="M 0.265625 -3.640625 L 1.59375 -3.640625 C 1.96875 -3.640625 2.269531 -3.546875 2.5 -3.359375 C 2.726562 -3.171875 2.84375 -2.894531 2.84375 -2.53125 C 2.84375 -2.164062 2.722656 -1.878906 2.484375 -1.671875 C 2.253906 -1.460938 1.957031 -1.359375 1.59375 -1.359375 L 1.09375 -1.359375 L 1.09375 0 L 0.265625 0 Z M 1.09375 -2.015625 L 1.328125 -2.015625 C 1.515625 -2.015625 1.664062 -2.050781 1.78125 -2.125 C 1.90625 -2.195312 1.96875 -2.320312 1.96875 -2.5 C 1.96875 -2.675781 1.90625 -2.800781 1.78125 -2.875 C 1.664062 -2.945312 1.515625 -2.984375 1.328125 -2.984375 L 1.09375 -2.984375 Z M 1.09375 -2.015625 "/></g></g></g><g fill="#ffffff" fill-opacity="1"><g transform="translate(28.381555, 6.349215)"><g><path d="M 0.265625 -3.640625 L 1.5625 -3.640625 C 1.914062 -3.640625 2.203125 -3.546875 2.421875 -3.359375 C 2.648438 -3.179688 2.765625 -2.914062 2.765625 -2.5625 C 2.765625 -2.289062 2.695312 -2.066406 2.5625 -1.890625 C 2.425781 -1.710938 2.242188 -1.585938 2.015625 -1.515625 L 3.265625 0 L 2.21875 0 L 1.09375 -1.4375 L 1.09375 0 L 0.265625 0 Z M 1.09375 -2.03125 L 1.1875 -2.03125 C 1.269531 -2.03125 1.335938 -2.03125 1.390625 -2.03125 C 1.441406 -2.03125 1.5 -2.039062 1.5625 -2.0625 C 1.632812 -2.082031 1.691406 -2.109375 1.734375 -2.140625 C 1.773438 -2.171875 1.8125 -2.21875 1.84375 -2.28125 C 1.875 -2.34375 1.890625 -2.414062 1.890625 -2.5 C 1.890625 -2.59375 1.875 -2.671875 1.84375 -2.734375 C 1.8125 -2.796875 1.773438 -2.84375 1.734375 -2.875 C 1.691406 -2.90625 1.632812 -2.925781 1.5625 -2.9375 C 1.5 -2.957031 1.441406 -2.96875 1.390625 -2.96875 C 1.335938 -2.976562 1.269531 -2.984375 1.1875 -2.984375 L 1.09375 -2.984375 Z M 1.09375 -2.03125 "/></g></g></g><g fill="#ffffff" fill-opacity="1"><g transform="translate(31.553228, 6.349215)"><g><path d="M 0.109375 -1.828125 C 0.109375 -2.359375 0.285156 -2.804688 0.640625 -3.171875 C 1.003906 -3.535156 1.4375 -3.71875 1.9375 -3.71875 C 2.445312 -3.71875 2.878906 -3.535156 3.234375 -3.171875 C 3.597656 -2.804688 3.78125 -2.359375 3.78125 -1.828125 C 3.78125 -1.296875 3.601562 -0.847656 3.25 -0.484375 C 2.894531 -0.117188 2.457031 0.0625 1.9375 0.0625 C 1.40625 0.0625 0.96875 -0.113281 0.625 -0.46875 C 0.28125 -0.832031 0.109375 -1.285156 0.109375 -1.828125 Z M 1 -1.828125 C 1 -1.628906 1.023438 -1.453125 1.078125 -1.296875 C 1.140625 -1.140625 1.242188 -1.003906 1.390625 -0.890625 C 1.546875 -0.785156 1.726562 -0.734375 1.9375 -0.734375 C 2.25 -0.734375 2.484375 -0.835938 2.640625 -1.046875 C 2.796875 -1.265625 2.875 -1.523438 2.875 -1.828125 C 2.875 -2.117188 2.789062 -2.375 2.625 -2.59375 C 2.46875 -2.8125 2.238281 -2.921875 1.9375 -2.921875 C 1.632812 -2.921875 1.398438 -2.8125 1.234375 -2.59375 C 1.078125 -2.375 1 -2.117188 1 -1.828125 Z M 1 -1.828125 "/></g></g></g><g fill="#ffffff" fill-opacity="1"><g transform="translate(35.438088, 6.349215)"><g><path d="M 2.375 -3.640625 L 2.375 -2.921875 L 1.09375 -2.921875 L 1.09375 -2.1875 L 2.28125 -2.1875 L 2.28125 -1.46875 L 1.09375 -1.46875 L 1.09375 0 L 0.265625 0 L 0.265625 -3.640625 Z M 2.375 -3.640625 "/></g></g></g><g fill="#ffffff" fill-opacity="1"><g transform="translate(37.949735, 6.349215)"><g><path d="M 2.359375 -3.640625 L 2.359375 -2.921875 L 1.09375 -2.921875 L 1.09375 -2.1875 L 2.296875 -2.1875 L 2.296875 -1.46875 L 1.09375 -1.46875 L 1.09375 -0.734375 L 2.359375 -0.734375 L 2.359375 0 L 0.265625 0 L 0.265625 -3.640625 Z M 2.359375 -3.640625 "/></g></g></g><g fill="#ffffff" fill-opacity="1"><g transform="translate(40.518969, 6.349215)"><g><path d="M 1.609375 -3.71875 C 1.804688 -3.71875 2 -3.6875 2.1875 -3.625 C 2.375 -3.570312 2.515625 -3.515625 2.609375 -3.453125 L 2.734375 -3.375 L 2.40625 -2.703125 C 2.375 -2.722656 2.332031 -2.742188 2.28125 -2.765625 C 2.238281 -2.796875 2.148438 -2.832031 2.015625 -2.875 C 1.890625 -2.925781 1.773438 -2.953125 1.671875 -2.953125 C 1.523438 -2.953125 1.414062 -2.921875 1.34375 -2.859375 C 1.269531 -2.804688 1.234375 -2.726562 1.234375 -2.625 C 1.234375 -2.582031 1.25 -2.535156 1.28125 -2.484375 C 1.320312 -2.441406 1.382812 -2.394531 1.46875 -2.34375 C 1.550781 -2.300781 1.625 -2.265625 1.6875 -2.234375 C 1.757812 -2.203125 1.863281 -2.160156 2 -2.109375 C 2.226562 -2.003906 2.425781 -1.863281 2.59375 -1.6875 C 2.757812 -1.519531 2.84375 -1.328125 2.84375 -1.109375 C 2.84375 -0.898438 2.804688 -0.71875 2.734375 -0.5625 C 2.660156 -0.40625 2.554688 -0.28125 2.421875 -0.1875 C 2.296875 -0.101562 2.148438 -0.0390625 1.984375 0 C 1.828125 0.0390625 1.65625 0.0625 1.46875 0.0625 C 1.3125 0.0625 1.15625 0.046875 1 0.015625 C 0.851562 -0.015625 0.726562 -0.0507812 0.625 -0.09375 C 0.519531 -0.144531 0.425781 -0.191406 0.34375 -0.234375 C 0.257812 -0.285156 0.195312 -0.328125 0.15625 -0.359375 L 0.109375 -0.421875 L 0.515625 -1.109375 C 0.554688 -1.078125 0.601562 -1.039062 0.65625 -1 C 0.71875 -0.957031 0.828125 -0.894531 0.984375 -0.8125 C 1.148438 -0.738281 1.289062 -0.703125 1.40625 -0.703125 C 1.757812 -0.703125 1.9375 -0.820312 1.9375 -1.0625 C 1.9375 -1.113281 1.921875 -1.160156 1.890625 -1.203125 C 1.867188 -1.242188 1.828125 -1.285156 1.765625 -1.328125 C 1.703125 -1.367188 1.644531 -1.398438 1.59375 -1.421875 C 1.550781 -1.453125 1.472656 -1.492188 1.359375 -1.546875 C 1.242188 -1.597656 1.160156 -1.632812 1.109375 -1.65625 C 0.890625 -1.769531 0.71875 -1.90625 0.59375 -2.0625 C 0.476562 -2.226562 0.421875 -2.40625 0.421875 -2.59375 C 0.421875 -2.925781 0.539062 -3.195312 0.78125 -3.40625 C 1.019531 -3.613281 1.296875 -3.71875 1.609375 -3.71875 Z M 1.609375 -3.71875 "/></g></g></g><g fill="#ffffff" fill-opacity="1"><g transform="translate(43.495737, 6.349215)"><g><path d="M 1.609375 -3.71875 C 1.804688 -3.71875 2 -3.6875 2.1875 -3.625 C 2.375 -3.570312 2.515625 -3.515625 2.609375 -3.453125 L 2.734375 -3.375 L 2.40625 -2.703125 C 2.375 -2.722656 2.332031 -2.742188 2.28125 -2.765625 C 2.238281 -2.796875 2.148438 -2.832031 2.015625 -2.875 C 1.890625 -2.925781 1.773438 -2.953125 1.671875 -2.953125 C 1.523438 -2.953125 1.414062 -2.921875 1.34375 -2.859375 C 1.269531 -2.804688 1.234375 -2.726562 1.234375 -2.625 C 1.234375 -2.582031 1.25 -2.535156 1.28125 -2.484375 C 1.320312 -2.441406 1.382812 -2.394531 1.46875 -2.34375 C 1.550781 -2.300781 1.625 -2.265625 1.6875 -2.234375 C 1.757812 -2.203125 1.863281 -2.160156 2 -2.109375 C 2.226562 -2.003906 2.425781 -1.863281 2.59375 -1.6875 C 2.757812 -1.519531 2.84375 -1.328125 2.84375 -1.109375 C 2.84375 -0.898438 2.804688 -0.71875 2.734375 -0.5625 C 2.660156 -0.40625 2.554688 -0.28125 2.421875 -0.1875 C 2.296875 -0.101562 2.148438 -0.0390625 1.984375 0 C 1.828125 0.0390625 1.65625 0.0625 1.46875 0.0625 C 1.3125 0.0625 1.15625 0.046875 1 0.015625 C 0.851562 -0.015625 0.726562 -0.0507812 0.625 -0.09375 C 0.519531 -0.144531 0.425781 -0.191406 0.34375 -0.234375 C 0.257812 -0.285156 0.195312 -0.328125 0.15625 -0.359375 L 0.109375 -0.421875 L 0.515625 -1.109375 C 0.554688 -1.078125 0.601562 -1.039062 0.65625 -1 C 0.71875 -0.957031 0.828125 -0.894531 0.984375 -0.8125 C 1.148438 -0.738281 1.289062 -0.703125 1.40625 -0.703125 C 1.757812 -0.703125 1.9375 -0.820312 1.9375 -1.0625 C 1.9375 -1.113281 1.921875 -1.160156 1.890625 -1.203125 C 1.867188 -1.242188 1.828125 -1.285156 1.765625 -1.328125 C 1.703125 -1.367188 1.644531 -1.398438 1.59375 -1.421875 C 1.550781 -1.453125 1.472656 -1.492188 1.359375 -1.546875 C 1.242188 -1.597656 1.160156 -1.632812 1.109375 -1.65625 C 0.890625 -1.769531 0.71875 -1.90625 0.59375 -2.0625 C 0.476562 -2.226562 0.421875 -2.40625 0.421875 -2.59375 C 0.421875 -2.925781 0.539062 -3.195312 0.78125 -3.40625 C 1.019531 -3.613281 1.296875 -3.71875 1.609375 -3.71875 Z M 1.609375 -3.71875 "/></g></g></g><g fill="#ffffff" fill-opacity="1"><g transform="translate(46.472504, 6.349215)"><g><path d="M 1.09375 -3.640625 L 1.09375 0 L 0.265625 0 L 0.265625 -3.640625 Z M 1.09375 -3.640625 "/></g></g></g><g fill="#ffffff" fill-opacity="1"><g transform="translate(47.836857, 6.349215)"><g><path d="M 0.109375 -1.828125 C 0.109375 -2.359375 0.285156 -2.804688 0.640625 -3.171875 C 1.003906 -3.535156 1.4375 -3.71875 1.9375 -3.71875 C 2.445312 -3.71875 2.878906 -3.535156 3.234375 -3.171875 C 3.597656 -2.804688 3.78125 -2.359375 3.78125 -1.828125 C 3.78125 -1.296875 3.601562 -0.847656 3.25 -0.484375 C 2.894531 -0.117188 2.457031 0.0625 1.9375 0.0625 C 1.40625 0.0625 0.96875 -0.113281 0.625 -0.46875 C 0.28125 -0.832031 0.109375 -1.285156 0.109375 -1.828125 Z M 1 -1.828125 C 1 -1.628906 1.023438 -1.453125 1.078125 -1.296875 C 1.140625 -1.140625 1.242188 -1.003906 1.390625 -0.890625 C 1.546875 -0.785156 1.726562 -0.734375 1.9375 -0.734375 C 2.25 -0.734375 2.484375 -0.835938 2.640625 -1.046875 C 2.796875 -1.265625 2.875 -1.523438 2.875 -1.828125 C 2.875 -2.117188 2.789062 -2.375 2.625 -2.59375 C 2.46875 -2.8125 2.238281 -2.921875 1.9375 -2.921875 C 1.632812 -2.921875 1.398438 -2.8125 1.234375 -2.59375 C 1.078125 -2.375 1 -2.117188 1 -1.828125 Z M 1 -1.828125 "/></g></g></g><g fill="#ffffff" fill-opacity="1"><g transform="translate(51.721717, 6.349215)"><g><path d="M 1.09375 -2.265625 L 1.09375 0 L 0.265625 0 L 0.265625 -3.640625 L 1.09375 -3.640625 L 2.546875 -1.390625 L 2.5625 -1.390625 L 2.5625 -3.640625 L 3.390625 -3.640625 L 3.390625 0 L 2.5625 0 L 1.109375 -2.265625 Z M 1.09375 -2.265625 "/></g></g></g><g fill="#ffffff" fill-opacity="1"><g transform="translate(55.380657, 6.349215)"><g><path d="M 2.125 -3.640625 L 3.59375 0 L 2.703125 0 L 2.421875 -0.734375 L 1.046875 -0.734375 L 0.765625 0 L -0.125 0 L 1.34375 -3.640625 Z M 2.140625 -1.453125 L 1.734375 -2.515625 L 1.328125 -1.453125 Z M 2.140625 -1.453125 "/></g></g></g><g fill="#ffffff" fill-opacity="1"><g transform="translate(58.853552, 6.349215)"><g><path d="M 1.09375 -3.640625 L 1.09375 -0.734375 L 2.359375 -0.734375 L 2.359375 0 L 0.265625 0 L 0.265625 -3.640625 Z M 1.09375 -3.640625 "/></g></g></g><g fill="#ffffff" fill-opacity="1"><g transform="translate(36.978534, 12.255458)"><g><path d="M 1.609375 -3.71875 C 1.804688 -3.71875 2 -3.6875 2.1875 -3.625 C 2.375 -3.570312 2.515625 -3.515625 2.609375 -3.453125 L 2.734375 -3.375 L 2.40625 -2.703125 C 2.375 -2.722656 2.332031 -2.742188 2.28125 -2.765625 C 2.238281 -2.796875 2.148438 -2.832031 2.015625 -2.875 C 1.890625 -2.925781 1.773438 -2.953125 1.671875 -2.953125 C 1.523438 -2.953125 1.414062 -2.921875 1.34375 -2.859375 C 1.269531 -2.804688 1.234375 -2.726562 1.234375 -2.625 C 1.234375 -2.582031 1.25 -2.535156 1.28125 -2.484375 C 1.320312 -2.441406 1.382812 -2.394531 1.46875 -2.34375 C 1.550781 -2.300781 1.625 -2.265625 1.6875 -2.234375 C 1.757812 -2.203125 1.863281 -2.160156 2 -2.109375 C 2.226562 -2.003906 2.425781 -1.863281 2.59375 -1.6875 C 2.757812 -1.519531 2.84375 -1.328125 2.84375 -1.109375 C 2.84375 -0.898438 2.804688 -0.71875 2.734375 -0.5625 C 2.660156 -0.40625 2.554688 -0.28125 2.421875 -0.1875 C 2.296875 -0.101562 2.148438 -0.0390625 1.984375 0 C 1.828125 0.0390625 1.65625 0.0625 1.46875 0.0625 C 1.3125 0.0625 1.15625 0.046875 1 0.015625 C 0.851562 -0.015625 0.726562 -0.0507812 0.625 -0.09375 C 0.519531 -0.144531 0.425781 -0.191406 0.34375 -0.234375 C 0.257812 -0.285156 0.195312 -0.328125 0.15625 -0.359375 L 0.109375 -0.421875 L 0.515625 -1.109375 C 0.554688 -1.078125 0.601562 -1.039062 0.65625 -1 C 0.71875 -0.957031 0.828125 -0.894531 0.984375 -0.8125 C 1.148438 -0.738281 1.289062 -0.703125 1.40625 -0.703125 C 1.757812 -0.703125 1.9375 -0.820312 1.9375 -1.0625 C 1.9375 -1.113281 1.921875 -1.160156 1.890625 -1.203125 C 1.867188 -1.242188 1.828125 -1.285156 1.765625 -1.328125 C 1.703125 -1.367188 1.644531 -1.398438 1.59375 -1.421875 C 1.550781 -1.453125 1.472656 -1.492188 1.359375 -1.546875 C 1.242188 -1.597656 1.160156 -1.632812 1.109375 -1.65625 C 0.890625 -1.769531 0.71875 -1.90625 0.59375 -2.0625 C 0.476562 -2.226562 0.421875 -2.40625 0.421875 -2.59375 C 0.421875 -2.925781 0.539062 -3.195312 0.78125 -3.40625 C 1.019531 -3.613281 1.296875 -3.71875 1.609375 -3.71875 Z M 1.609375 -3.71875 "/></g></g></g><g fill="#ffffff" fill-opacity="1"><g transform="translate(39.955301, 12.255458)"><g><path d="M 3.59375 0 L 2.4375 0 L 1.09375 -1.546875 L 1.09375 0 L 0.265625 0 L 0.265625 -3.640625 L 1.09375 -3.640625 L 1.09375 -2.15625 L 2.34375 -3.640625 L 3.359375 -3.640625 L 1.890625 -1.921875 Z M 3.59375 0 "/></g></g></g><g fill="#ffffff" fill-opacity="1"><g transform="translate(43.441483, 12.255458)"><g><path d="M 1.09375 -3.640625 L 1.09375 0 L 0.265625 0 L 0.265625 -3.640625 Z M 1.09375 -3.640625 "/></g></g></g><g fill="#ffffff" fill-opacity="1"><g transform="translate(44.805836, 12.255458)"><g><path d="M 1.09375 -3.640625 L 1.09375 -0.734375 L 2.359375 -0.734375 L 2.359375 0 L 0.265625 0 L 0.265625 -3.640625 Z M 1.09375 -3.640625 "/></g></g></g><g fill="#ffffff" fill-opacity="1"><g transform="translate(47.308623, 12.255458)"><g><path d="M 1.09375 -3.640625 L 1.09375 -0.734375 L 2.359375 -0.734375 L 2.359375 0 L 0.265625 0 L 0.265625 -3.640625 Z M 1.09375 -3.640625 "/></g></g></g><g fill="#ffffff" fill-opacity="1"><g transform="translate(26.256166, 18.1617)"><g><path d="M 0.265625 -3.640625 L 1.328125 -3.640625 C 1.828125 -3.640625 2.253906 -3.46875 2.609375 -3.125 C 2.972656 -2.78125 3.15625 -2.347656 3.15625 -1.828125 C 3.15625 -1.304688 2.976562 -0.867188 2.625 -0.515625 C 2.269531 -0.171875 1.835938 0 1.328125 0 L 0.265625 0 Z M 1.09375 -0.75 L 1.21875 -0.75 C 1.53125 -0.75 1.78125 -0.847656 1.96875 -1.046875 C 2.164062 -1.253906 2.265625 -1.515625 2.265625 -1.828125 C 2.265625 -2.128906 2.164062 -2.382812 1.96875 -2.59375 C 1.78125 -2.800781 1.53125 -2.90625 1.21875 -2.90625 L 1.09375 -2.90625 Z M 1.09375 -0.75 "/></g></g></g><g fill="#ffffff" fill-opacity="1"><g transform="translate(29.525294, 18.1617)"><g><path d="M 2.359375 -3.640625 L 2.359375 -2.921875 L 1.09375 -2.921875 L 1.09375 -2.1875 L 2.296875 -2.1875 L 2.296875 -1.46875 L 1.09375 -1.46875 L 1.09375 -0.734375 L 2.359375 -0.734375 L 2.359375 0 L 0.265625 0 L 0.265625 -3.640625 Z M 2.359375 -3.640625 "/></g></g></g><g fill="#ffffff" fill-opacity="1"><g transform="translate(32.094529, 18.1617)"><g><path d="M 1.40625 0 L -0.125 -3.640625 L 0.8125 -3.640625 L 1.734375 -1.25 L 2.65625 -3.640625 L 3.59375 -3.640625 L 2.0625 0 Z M 1.40625 0 "/></g></g></g><g fill="#ffffff" fill-opacity="1"><g transform="translate(35.567424, 18.1617)"><g><path d="M 2.359375 -3.640625 L 2.359375 -2.921875 L 1.09375 -2.921875 L 1.09375 -2.1875 L 2.296875 -2.1875 L 2.296875 -1.46875 L 1.09375 -1.46875 L 1.09375 -0.734375 L 2.359375 -0.734375 L 2.359375 0 L 0.265625 0 L 0.265625 -3.640625 Z M 2.359375 -3.640625 "/></g></g></g><g fill="#ffffff" fill-opacity="1"><g transform="translate(38.136659, 18.1617)"><g><path d="M 1.09375 -3.640625 L 1.09375 -0.734375 L 2.359375 -0.734375 L 2.359375 0 L 0.265625 0 L 0.265625 -3.640625 Z M 1.09375 -3.640625 "/></g></g></g><g fill="#ffffff" fill-opacity="1"><g transform="translate(40.639446, 18.1617)"><g><path d="M 0.109375 -1.828125 C 0.109375 -2.359375 0.285156 -2.804688 0.640625 -3.171875 C 1.003906 -3.535156 1.4375 -3.71875 1.9375 -3.71875 C 2.445312 -3.71875 2.878906 -3.535156 3.234375 -3.171875 C 3.597656 -2.804688 3.78125 -2.359375 3.78125 -1.828125 C 3.78125 -1.296875 3.601562 -0.847656 3.25 -0.484375 C 2.894531 -0.117188 2.457031 0.0625 1.9375 0.0625 C 1.40625 0.0625 0.96875 -0.113281 0.625 -0.46875 C 0.28125 -0.832031 0.109375 -1.285156 0.109375 -1.828125 Z M 1 -1.828125 C 1 -1.628906 1.023438 -1.453125 1.078125 -1.296875 C 1.140625 -1.140625 1.242188 -1.003906 1.390625 -0.890625 C 1.546875 -0.785156 1.726562 -0.734375 1.9375 -0.734375 C 2.25 -0.734375 2.484375 -0.835938 2.640625 -1.046875 C 2.796875 -1.265625 2.875 -1.523438 2.875 -1.828125 C 2.875 -2.117188 2.789062 -2.375 2.625 -2.59375 C 2.46875 -2.8125 2.238281 -2.921875 1.9375 -2.921875 C 1.632812 -2.921875 1.398438 -2.8125 1.234375 -2.59375 C 1.078125 -2.375 1 -2.117188 1 -1.828125 Z M 1 -1.828125 "/></g></g></g><g fill="#ffffff" fill-opacity="1"><g transform="translate(44.524306, 18.1617)"><g><path d="M 0.265625 -3.640625 L 1.59375 -3.640625 C 1.96875 -3.640625 2.269531 -3.546875 2.5 -3.359375 C 2.726562 -3.171875 2.84375 -2.894531 2.84375 -2.53125 C 2.84375 -2.164062 2.722656 -1.878906 2.484375 -1.671875 C 2.253906 -1.460938 1.957031 -1.359375 1.59375 -1.359375 L 1.09375 -1.359375 L 1.09375 0 L 0.265625 0 Z M 1.09375 -2.015625 L 1.328125 -2.015625 C 1.515625 -2.015625 1.664062 -2.050781 1.78125 -2.125 C 1.90625 -2.195312 1.96875 -2.320312 1.96875 -2.5 C 1.96875 -2.675781 1.90625 -2.800781 1.78125 -2.875 C 1.664062 -2.945312 1.515625 -2.984375 1.328125 -2.984375 L 1.09375 -2.984375 Z M 1.09375 -2.015625 "/></g></g></g><g fill="#ffffff" fill-opacity="1"><g transform="translate(47.474492, 18.1617)"><g><path d="M 3.28125 0 L 3.109375 -2.15625 L 3.09375 -2.15625 L 2.34375 -0.015625 L 1.84375 -0.015625 L 1.09375 -2.15625 L 1.078125 -2.15625 L 0.90625 0 L 0.078125 0 L 0.390625 -3.640625 L 1.28125 -3.640625 L 2.09375 -1.546875 L 2.90625 -3.640625 L 3.78125 -3.640625 L 4.109375 0 Z M 3.28125 0 "/></g></g></g><g fill="#ffffff" fill-opacity="1"><g transform="translate(51.665002, 18.1617)"><g><path d="M 2.359375 -3.640625 L 2.359375 -2.921875 L 1.09375 -2.921875 L 1.09375 -2.1875 L 2.296875 -2.1875 L 2.296875 -1.46875 L 1.09375 -1.46875 L 1.09375 -0.734375 L 2.359375 -0.734375 L 2.359375 0 L 0.265625 0 L 0.265625 -3.640625 Z M 2.359375 -3.640625 "/></g></g></g><g fill="#ffffff" fill-opacity="1"><g transform="translate(54.234236, 18.1617)"><g><path d="M 1.09375 -2.265625 L 1.09375 0 L 0.265625 0 L 0.265625 -3.640625 L 1.09375 -3.640625 L 2.546875 -1.390625 L 2.5625 -1.390625 L 2.5625 -3.640625 L 3.390625 -3.640625 L 3.390625 0 L 2.5625 0 L 1.109375 -2.265625 Z M 1.09375 -2.265625 "/></g></g></g><g fill="#ffffff" fill-opacity="1"><g transform="translate(57.893177, 18.1617)"><g><path d="M 0.03125 -2.921875 L 0.03125 -3.640625 L 2.59375 -3.640625 L 2.59375 -2.921875 L 1.734375 -2.921875 L 1.734375 0 L 0.90625 0 L 0.90625 -2.921875 Z M 0.03125 -2.921875 "/></g></g></g><g fill="#ffffff" fill-opacity="1"><g transform="translate(34.423392, 24.067943)"><g><path d="M 2.203125 -0.75 C 2.328125 -0.75 2.445312 -0.765625 2.5625 -0.796875 C 2.6875 -0.835938 2.78125 -0.878906 2.84375 -0.921875 L 2.921875 -0.984375 L 3.28125 -0.265625 C 3.269531 -0.253906 3.253906 -0.242188 3.234375 -0.234375 C 3.210938 -0.222656 3.160156 -0.195312 3.078125 -0.15625 C 3.003906 -0.113281 2.925781 -0.078125 2.84375 -0.046875 C 2.757812 -0.015625 2.644531 0.0078125 2.5 0.03125 C 2.363281 0.0507812 2.222656 0.0625 2.078125 0.0625 C 1.734375 0.0625 1.410156 -0.0195312 1.109375 -0.1875 C 0.804688 -0.351562 0.5625 -0.582031 0.375 -0.875 C 0.195312 -1.164062 0.109375 -1.476562 0.109375 -1.8125 C 0.109375 -2.070312 0.160156 -2.316406 0.265625 -2.546875 C 0.367188 -2.785156 0.507812 -2.988281 0.6875 -3.15625 C 0.875 -3.320312 1.085938 -3.457031 1.328125 -3.5625 C 1.578125 -3.664062 1.828125 -3.71875 2.078125 -3.71875 C 2.316406 -3.71875 2.535156 -3.6875 2.734375 -3.625 C 2.929688 -3.570312 3.070312 -3.519531 3.15625 -3.46875 L 3.28125 -3.375 L 2.921875 -2.671875 C 2.898438 -2.691406 2.867188 -2.710938 2.828125 -2.734375 C 2.785156 -2.753906 2.703125 -2.785156 2.578125 -2.828125 C 2.453125 -2.867188 2.328125 -2.890625 2.203125 -2.890625 C 2.003906 -2.890625 1.820312 -2.859375 1.65625 -2.796875 C 1.5 -2.734375 1.375 -2.648438 1.28125 -2.546875 C 1.195312 -2.441406 1.128906 -2.328125 1.078125 -2.203125 C 1.023438 -2.078125 1 -1.953125 1 -1.828125 C 1 -1.546875 1.101562 -1.296875 1.3125 -1.078125 C 1.519531 -0.859375 1.816406 -0.75 2.203125 -0.75 Z M 2.203125 -0.75 "/></g></g></g><g fill="#ffffff" fill-opacity="1"><g transform="translate(37.758963, 24.067943)"><g><path d="M 2.359375 -3.640625 L 2.359375 -2.921875 L 1.09375 -2.921875 L 1.09375 -2.1875 L 2.296875 -2.1875 L 2.296875 -1.46875 L 1.09375 -1.46875 L 1.09375 -0.734375 L 2.359375 -0.734375 L 2.359375 0 L 0.265625 0 L 0.265625 -3.640625 Z M 2.359375 -3.640625 "/></g></g></g><g fill="#ffffff" fill-opacity="1"><g transform="translate(40.328198, 24.067943)"><g><path d="M 1.09375 -2.265625 L 1.09375 0 L 0.265625 0 L 0.265625 -3.640625 L 1.09375 -3.640625 L 2.546875 -1.390625 L 2.5625 -1.390625 L 2.5625 -3.640625 L 3.390625 -3.640625 L 3.390625 0 L 2.5625 0 L 1.109375 -2.265625 Z M 1.09375 -2.265625 "/></g></g></g><g fill="#ffffff" fill-opacity="1"><g transform="translate(43.987139, 24.067943)"><g><path d="M 0.03125 -2.921875 L 0.03125 -3.640625 L 2.59375 -3.640625 L 2.59375 -2.921875 L 1.734375 -2.921875 L 1.734375 0 L 0.90625 0 L 0.90625 -2.921875 Z M 0.03125 -2.921875 "/></g></g></g><g fill="#ffffff" fill-opacity="1"><g transform="translate(46.627249, 24.067943)"><g><path d="M 2.359375 -3.640625 L 2.359375 -2.921875 L 1.09375 -2.921875 L 1.09375 -2.1875 L 2.296875 -2.1875 L 2.296875 -1.46875 L 1.09375 -1.46875 L 1.09375 -0.734375 L 2.359375 -0.734375 L 2.359375 0 L 0.265625 0 L 0.265625 -3.640625 Z M 2.359375 -3.640625 "/></g></g></g><g fill="#ffffff" fill-opacity="1"><g transform="translate(49.196484, 24.067943)"><g><path d="M 0.265625 -3.640625 L 1.5625 -3.640625 C 1.914062 -3.640625 2.203125 -3.546875 2.421875 -3.359375 C 2.648438 -3.179688 2.765625 -2.914062 2.765625 -2.5625 C 2.765625 -2.289062 2.695312 -2.066406 2.5625 -1.890625 C 2.425781 -1.710938 2.242188 -1.585938 2.015625 -1.515625 L 3.265625 0 L 2.21875 0 L 1.09375 -1.4375 L 1.09375 0 L 0.265625 0 Z M 1.09375 -2.03125 L 1.1875 -2.03125 C 1.269531 -2.03125 1.335938 -2.03125 1.390625 -2.03125 C 1.441406 -2.03125 1.5 -2.039062 1.5625 -2.0625 C 1.632812 -2.082031 1.691406 -2.109375 1.734375 -2.140625 C 1.773438 -2.171875 1.8125 -2.21875 1.84375 -2.28125 C 1.875 -2.34375 1.890625 -2.414062 1.890625 -2.5 C 1.890625 -2.59375 1.875 -2.671875 1.84375 -2.734375 C 1.8125 -2.796875 1.773438 -2.84375 1.734375 -2.875 C 1.691406 -2.90625 1.632812 -2.925781 1.5625 -2.9375 C 1.5 -2.957031 1.441406 -2.96875 1.390625 -2.96875 C 1.335938 -2.976562 1.269531 -2.984375 1.1875 -2.984375 L 1.09375 -2.984375 Z M 1.09375 -2.03125 "/></g></g></g><g fill="#ffffff" fill-opacity="1"><g transform="translate(1.679278, 29.155256)"><g><path d="M 1.390625 -0.46875 C 1.472656 -0.46875 1.550781 -0.476562 1.625 -0.5 C 1.707031 -0.53125 1.765625 -0.554688 1.796875 -0.578125 L 1.84375 -0.625 L 2.078125 -0.171875 C 2.066406 -0.160156 2.050781 -0.148438 2.03125 -0.140625 C 2.019531 -0.140625 1.988281 -0.125 1.9375 -0.09375 C 1.894531 -0.0703125 1.847656 -0.0507812 1.796875 -0.03125 C 1.742188 -0.0078125 1.671875 0.00390625 1.578125 0.015625 C 1.492188 0.0351562 1.40625 0.046875 1.3125 0.046875 C 1.101562 0.046875 0.898438 -0.00390625 0.703125 -0.109375 C 0.515625 -0.222656 0.359375 -0.367188 0.234375 -0.546875 C 0.117188 -0.734375 0.0625 -0.9375 0.0625 -1.15625 C 0.0625 -1.3125 0.09375 -1.460938 0.15625 -1.609375 C 0.226562 -1.765625 0.320312 -1.894531 0.4375 -2 C 0.550781 -2.101562 0.6875 -2.1875 0.84375 -2.25 C 1 -2.3125 1.15625 -2.34375 1.3125 -2.34375 C 1.457031 -2.34375 1.59375 -2.328125 1.71875 -2.296875 C 1.851562 -2.265625 1.945312 -2.226562 2 -2.1875 L 2.078125 -2.140625 L 1.84375 -1.6875 C 1.832031 -1.695312 1.8125 -1.707031 1.78125 -1.71875 C 1.757812 -1.738281 1.707031 -1.757812 1.625 -1.78125 C 1.550781 -1.8125 1.472656 -1.828125 1.390625 -1.828125 C 1.265625 -1.828125 1.148438 -1.804688 1.046875 -1.765625 C 0.953125 -1.722656 0.875 -1.664062 0.8125 -1.59375 C 0.757812 -1.53125 0.71875 -1.460938 0.6875 -1.390625 C 0.65625 -1.316406 0.640625 -1.238281 0.640625 -1.15625 C 0.640625 -0.976562 0.703125 -0.816406 0.828125 -0.671875 C 0.960938 -0.535156 1.148438 -0.46875 1.390625 -0.46875 Z M 1.390625 -0.46875 "/></g></g></g><g fill="#ffffff" fill-opacity="1"><g transform="translate(3.782858, 29.155256)"><g><path d="M 1.34375 -2.3125 L 2.265625 0 L 1.703125 0 L 1.53125 -0.46875 L 0.65625 -0.46875 L 0.484375 0 L -0.078125 0 L 0.859375 -2.3125 Z M 1.359375 -0.921875 L 1.09375 -1.59375 L 0.84375 -0.921875 Z M 1.359375 -0.921875 "/></g></g></g><g fill="#ffffff" fill-opacity="1"><g transform="translate(5.973042, 29.155256)"><g><path d="M 0.6875 -1.4375 L 0.6875 0 L 0.171875 0 L 0.171875 -2.3125 L 0.6875 -2.3125 L 1.609375 -0.875 L 1.609375 -2.3125 L 2.140625 -2.3125 L 2.140625 0 L 1.609375 0 L 0.703125 -1.4375 Z M 0.6875 -1.4375 "/></g></g></g><g fill="#ffffff" fill-opacity="1"><g transform="translate(8.280556, 29.155256)"><g><path d="M 1.34375 -2.3125 L 2.265625 0 L 1.703125 0 L 1.53125 -0.46875 L 0.65625 -0.46875 L 0.484375 0 L -0.078125 0 L 0.859375 -2.3125 Z M 1.359375 -0.921875 L 1.09375 -1.59375 L 0.84375 -0.921875 Z M 1.359375 -0.921875 "/></g></g></g><g fill="#ffffff" fill-opacity="1"><g transform="translate(10.47074, 29.155256)"><g><path d="M 0.171875 -2.3125 L 0.84375 -2.3125 C 1.15625 -2.3125 1.425781 -2.203125 1.65625 -1.984375 C 1.882812 -1.765625 2 -1.488281 2 -1.15625 C 2 -0.820312 1.882812 -0.546875 1.65625 -0.328125 C 1.425781 -0.109375 1.15625 0 0.84375 0 L 0.171875 0 Z M 0.6875 -0.46875 L 0.78125 -0.46875 C 0.96875 -0.46875 1.117188 -0.53125 1.234375 -0.65625 C 1.359375 -0.789062 1.425781 -0.957031 1.4375 -1.15625 C 1.4375 -1.351562 1.375 -1.515625 1.25 -1.640625 C 1.125 -1.773438 0.96875 -1.84375 0.78125 -1.84375 L 0.6875 -1.84375 Z M 0.6875 -0.46875 "/></g></g></g><g fill="#ffffff" fill-opacity="1"><g transform="translate(12.532418, 29.155256)"><g><path d="M 0.6875 -2.3125 L 0.6875 0 L 0.171875 0 L 0.171875 -2.3125 Z M 0.6875 -2.3125 "/></g></g></g><g fill="#ffffff" fill-opacity="1"><g transform="translate(13.392848, 29.155256)"><g><path d="M 1.34375 -2.3125 L 2.265625 0 L 1.703125 0 L 1.53125 -0.46875 L 0.65625 -0.46875 L 0.484375 0 L -0.078125 0 L 0.859375 -2.3125 Z M 1.359375 -0.921875 L 1.09375 -1.59375 L 0.84375 -0.921875 Z M 1.359375 -0.921875 "/></g></g></g><g fill="#ffffff" fill-opacity="1"><g transform="translate(15.583032, 29.155256)"><g><path d="M 0.6875 -1.4375 L 0.6875 0 L 0.171875 0 L 0.171875 -2.3125 L 0.6875 -2.3125 L 1.609375 -0.875 L 1.609375 -2.3125 L 2.140625 -2.3125 L 2.140625 0 L 1.609375 0 L 0.703125 -1.4375 Z M 0.6875 -1.4375 "/></g></g></g><g fill="#ffffff" fill-opacity="1"><g transform="translate(17.890546, 29.155256)"><g/></g></g><g fill="#ffffff" fill-opacity="1"><g transform="translate(18.653198, 29.155256)"><g><path d="M 1.9375 -2.3125 L 1.9375 -0.8125 C 1.9375 -0.53125 1.859375 -0.316406 1.703125 -0.171875 C 1.554688 -0.0234375 1.332031 0.046875 1.03125 0.046875 C 0.738281 0.046875 0.515625 -0.0234375 0.359375 -0.171875 C 0.210938 -0.316406 0.140625 -0.53125 0.140625 -0.8125 L 0.140625 -2.3125 L 0.671875 -2.3125 L 0.671875 -0.96875 C 0.671875 -0.78125 0.695312 -0.648438 0.75 -0.578125 C 0.8125 -0.503906 0.90625 -0.46875 1.03125 -0.46875 C 1.164062 -0.46875 1.265625 -0.503906 1.328125 -0.578125 C 1.390625 -0.648438 1.421875 -0.78125 1.421875 -0.96875 L 1.421875 -2.3125 Z M 1.9375 -2.3125 "/></g></g></g><g fill="#ffffff" fill-opacity="1"><g transform="translate(20.731639, 29.155256)"><g><path d="M 0.6875 -1.4375 L 0.6875 0 L 0.171875 0 L 0.171875 -2.3125 L 0.6875 -2.3125 L 1.609375 -0.875 L 1.609375 -2.3125 L 2.140625 -2.3125 L 2.140625 0 L 1.609375 0 L 0.703125 -1.4375 Z M 0.6875 -1.4375 "/></g></g></g><g fill="#ffffff" fill-opacity="1"><g transform="translate(23.039153, 29.155256)"><g><path d="M 0.6875 -2.3125 L 0.6875 0 L 0.171875 0 L 0.171875 -2.3125 Z M 0.6875 -2.3125 "/></g></g></g><g fill="#ffffff" fill-opacity="1"><g transform="translate(23.899583, 29.155256)"><g><path d="M 0.890625 0 L -0.078125 -2.3125 L 0.515625 -2.3125 L 1.09375 -0.796875 L 1.671875 -2.3125 L 2.265625 -2.3125 L 1.296875 0 Z M 0.890625 0 "/></g></g></g><g fill="#ffffff" fill-opacity="1"><g transform="translate(26.089767, 29.155256)"><g><path d="M 1.484375 -2.3125 L 1.484375 -1.84375 L 0.6875 -1.84375 L 0.6875 -1.390625 L 1.453125 -1.390625 L 1.453125 -0.921875 L 0.6875 -0.921875 L 0.6875 -0.46875 L 1.484375 -0.46875 L 1.484375 0 L 0.171875 0 L 0.171875 -2.3125 Z M 1.484375 -2.3125 "/></g></g></g><g fill="#ffffff" fill-opacity="1"><g transform="translate(27.710057, 29.155256)"><g><path d="M 0.171875 -2.3125 L 1 -2.3125 C 1.21875 -2.3125 1.394531 -2.25 1.53125 -2.125 C 1.675781 -2.007812 1.75 -1.84375 1.75 -1.625 C 1.75 -1.457031 1.703125 -1.316406 1.609375 -1.203125 C 1.523438 -1.085938 1.410156 -1.003906 1.265625 -0.953125 L 2.0625 0 L 1.40625 0 L 0.6875 -0.90625 L 0.6875 0 L 0.171875 0 Z M 0.6875 -1.28125 L 0.75 -1.28125 C 0.800781 -1.28125 0.84375 -1.28125 0.875 -1.28125 C 0.90625 -1.289062 0.941406 -1.300781 0.984375 -1.3125 C 1.035156 -1.320312 1.070312 -1.335938 1.09375 -1.359375 C 1.125 -1.378906 1.144531 -1.40625 1.15625 -1.4375 C 1.175781 -1.476562 1.1875 -1.523438 1.1875 -1.578125 C 1.1875 -1.640625 1.175781 -1.6875 1.15625 -1.71875 C 1.144531 -1.757812 1.125 -1.789062 1.09375 -1.8125 C 1.070312 -1.832031 1.035156 -1.847656 0.984375 -1.859375 C 0.941406 -1.867188 0.90625 -1.875 0.875 -1.875 C 0.84375 -1.882812 0.800781 -1.890625 0.75 -1.890625 L 0.6875 -1.890625 Z M 0.6875 -1.28125 "/></g></g></g><g fill="#ffffff" fill-opacity="1"><g transform="translate(29.710275, 29.155256)"><g><path d="M 1.015625 -2.34375 C 1.140625 -2.34375 1.257812 -2.320312 1.375 -2.28125 C 1.5 -2.25 1.59375 -2.21875 1.65625 -2.1875 L 1.734375 -2.125 L 1.515625 -1.71875 C 1.503906 -1.726562 1.484375 -1.738281 1.453125 -1.75 C 1.421875 -1.769531 1.363281 -1.796875 1.28125 -1.828125 C 1.195312 -1.859375 1.117188 -1.875 1.046875 -1.875 C 0.960938 -1.875 0.894531 -1.851562 0.84375 -1.8125 C 0.800781 -1.78125 0.78125 -1.734375 0.78125 -1.671875 C 0.78125 -1.628906 0.789062 -1.59375 0.8125 -1.5625 C 0.832031 -1.539062 0.867188 -1.515625 0.921875 -1.484375 C 0.984375 -1.453125 1.03125 -1.425781 1.0625 -1.40625 C 1.101562 -1.394531 1.171875 -1.367188 1.265625 -1.328125 C 1.410156 -1.265625 1.535156 -1.175781 1.640625 -1.0625 C 1.742188 -0.957031 1.796875 -0.835938 1.796875 -0.703125 C 1.796875 -0.566406 1.769531 -0.445312 1.71875 -0.34375 C 1.675781 -0.25 1.613281 -0.175781 1.53125 -0.125 C 1.445312 -0.0703125 1.351562 -0.03125 1.25 0 C 1.15625 0.03125 1.050781 0.046875 0.9375 0.046875 C 0.832031 0.046875 0.726562 0.0351562 0.625 0.015625 C 0.53125 -0.00390625 0.453125 -0.03125 0.390625 -0.0625 C 0.328125 -0.09375 0.269531 -0.125 0.21875 -0.15625 C 0.164062 -0.1875 0.125 -0.210938 0.09375 -0.234375 L 0.0625 -0.265625 L 0.328125 -0.703125 C 0.347656 -0.679688 0.378906 -0.65625 0.421875 -0.625 C 0.460938 -0.601562 0.53125 -0.566406 0.625 -0.515625 C 0.726562 -0.460938 0.816406 -0.4375 0.890625 -0.4375 C 1.109375 -0.4375 1.21875 -0.515625 1.21875 -0.671875 C 1.21875 -0.703125 1.207031 -0.726562 1.1875 -0.75 C 1.175781 -0.78125 1.148438 -0.804688 1.109375 -0.828125 C 1.078125 -0.859375 1.046875 -0.878906 1.015625 -0.890625 C 0.984375 -0.910156 0.929688 -0.9375 0.859375 -0.96875 C 0.785156 -1.007812 0.734375 -1.035156 0.703125 -1.046875 C 0.566406 -1.117188 0.457031 -1.207031 0.375 -1.3125 C 0.300781 -1.414062 0.265625 -1.523438 0.265625 -1.640625 C 0.265625 -1.847656 0.335938 -2.015625 0.484375 -2.140625 C 0.640625 -2.273438 0.816406 -2.34375 1.015625 -2.34375 Z M 1.015625 -2.34375 "/></g></g></g><g fill="#ffffff" fill-opacity="1"><g transform="translate(31.587575, 29.155256)"><g><path d="M 0.6875 -2.3125 L 0.6875 0 L 0.171875 0 L 0.171875 -2.3125 Z M 0.6875 -2.3125 "/></g></g></g><g fill="#ffffff" fill-opacity="1"><g transform="translate(32.448005, 29.155256)"><g><path d="M 0.015625 -1.84375 L 0.015625 -2.3125 L 1.640625 -2.3125 L 1.640625 -1.84375 L 1.09375 -1.84375 L 1.09375 0 L 0.578125 0 L 0.578125 -1.84375 Z M 0.015625 -1.84375 "/></g></g></g><g fill="#ffffff" fill-opacity="1"><g transform="translate(34.112993, 29.155256)"><g><path d="M -0.078125 -2.3125 L 0.546875 -2.3125 L 1.03125 -1.5625 L 1.515625 -2.3125 L 2.140625 -2.3125 L 1.296875 -1.03125 L 1.296875 0 L 0.765625 0 L 0.765625 -1.03125 Z M -0.078125 -2.3125 "/></g></g></g><g fill="#ffffff" fill-opacity="1"><g transform="translate(36.169084, 29.155256)"><g/></g></g><g fill="#ffffff" fill-opacity="1"><g transform="translate(36.931736, 29.155256)"><g><path d="M 0.0625 -1.15625 C 0.0625 -1.488281 0.175781 -1.769531 0.40625 -2 C 0.632812 -2.226562 0.910156 -2.34375 1.234375 -2.34375 C 1.554688 -2.34375 1.828125 -2.226562 2.046875 -2 C 2.273438 -1.769531 2.390625 -1.488281 2.390625 -1.15625 C 2.390625 -0.820312 2.273438 -0.535156 2.046875 -0.296875 C 1.828125 -0.0664062 1.554688 0.046875 1.234375 0.046875 C 0.890625 0.046875 0.609375 -0.0664062 0.390625 -0.296875 C 0.171875 -0.523438 0.0625 -0.8125 0.0625 -1.15625 Z M 0.625 -1.15625 C 0.625 -1.03125 0.644531 -0.914062 0.6875 -0.8125 C 0.726562 -0.71875 0.796875 -0.632812 0.890625 -0.5625 C 0.984375 -0.5 1.097656 -0.46875 1.234375 -0.46875 C 1.421875 -0.46875 1.566406 -0.535156 1.671875 -0.671875 C 1.773438 -0.804688 1.828125 -0.96875 1.828125 -1.15625 C 1.828125 -1.34375 1.773438 -1.503906 1.671875 -1.640625 C 1.566406 -1.773438 1.421875 -1.84375 1.234375 -1.84375 C 1.035156 -1.84375 0.882812 -1.773438 0.78125 -1.640625 C 0.675781 -1.503906 0.625 -1.34375 0.625 -1.15625 Z M 0.625 -1.15625 "/></g></g></g><g fill="#ffffff" fill-opacity="1"><g transform="translate(39.381725, 29.155256)"><g><path d="M 1.5 -2.3125 L 1.5 -1.84375 L 0.6875 -1.84375 L 0.6875 -1.390625 L 1.4375 -1.390625 L 1.4375 -0.921875 L 0.6875 -0.921875 L 0.6875 0 L 0.171875 0 L 0.171875 -2.3125 Z M 1.5 -2.3125 "/></g></g></g><g fill="#ffffff" fill-opacity="1"><g transform="translate(40.965697, 29.155256)"><g/></g></g><g fill="#ffffff" fill-opacity="1"><g transform="translate(41.728349, 29.155256)"><g><path d="M 0.171875 -2.3125 L 0.890625 -2.3125 C 1.097656 -2.3125 1.265625 -2.265625 1.390625 -2.171875 C 1.523438 -2.078125 1.59375 -1.925781 1.59375 -1.71875 C 1.59375 -1.488281 1.5 -1.320312 1.3125 -1.21875 C 1.632812 -1.164062 1.796875 -0.972656 1.796875 -0.640625 C 1.796875 -0.453125 1.726562 -0.296875 1.59375 -0.171875 C 1.457031 -0.0546875 1.273438 0 1.046875 0 L 0.171875 0 Z M 0.6875 -1.40625 L 0.734375 -1.40625 C 0.847656 -1.40625 0.929688 -1.425781 0.984375 -1.46875 C 1.046875 -1.507812 1.078125 -1.578125 1.078125 -1.671875 C 1.078125 -1.828125 0.960938 -1.90625 0.734375 -1.90625 L 0.6875 -1.90625 Z M 0.6875 -0.40625 L 0.859375 -0.40625 C 1.117188 -0.40625 1.25 -0.488281 1.25 -0.65625 C 1.25 -0.757812 1.210938 -0.832031 1.140625 -0.875 C 1.078125 -0.925781 0.984375 -0.953125 0.859375 -0.953125 L 0.6875 -0.953125 Z M 0.6875 -0.40625 "/></g></g></g><g fill="#ffffff" fill-opacity="1"><g transform="translate(43.588887, 29.155256)"><g><path d="M 1.34375 -2.3125 L 2.265625 0 L 1.703125 0 L 1.53125 -0.46875 L 0.65625 -0.46875 L 0.484375 0 L -0.078125 0 L 0.859375 -2.3125 Z M 1.359375 -0.921875 L 1.09375 -1.59375 L 0.84375 -0.921875 Z M 1.359375 -0.921875 "/></g></g></g><g fill="#ffffff" fill-opacity="1"><g transform="translate(45.77907, 29.155256)"><g><path d="M 0.6875 -1.4375 L 0.6875 0 L 0.171875 0 L 0.171875 -2.3125 L 0.6875 -2.3125 L 1.609375 -0.875 L 1.609375 -2.3125 L 2.140625 -2.3125 L 2.140625 0 L 1.609375 0 L 0.703125 -1.4375 Z M 0.6875 -1.4375 "/></g></g></g><g fill="#ffffff" fill-opacity="1"><g transform="translate(48.086584, 29.155256)"><g><path d="M 2.25 -1.296875 L 2.25 -0.796875 C 2.195312 -0.515625 2.066406 -0.300781 1.859375 -0.15625 C 1.660156 -0.0195312 1.4375 0.046875 1.1875 0.046875 C 0.875 0.046875 0.609375 -0.0664062 0.390625 -0.296875 C 0.171875 -0.535156 0.0625 -0.820312 0.0625 -1.15625 C 0.0625 -1.488281 0.164062 -1.769531 0.375 -2 C 0.59375 -2.226562 0.863281 -2.34375 1.1875 -2.34375 C 1.5625 -2.34375 1.859375 -2.210938 2.078125 -1.953125 L 1.734375 -1.578125 C 1.609375 -1.773438 1.4375 -1.875 1.21875 -1.875 C 1.050781 -1.875 0.910156 -1.800781 0.796875 -1.65625 C 0.679688 -1.519531 0.625 -1.351562 0.625 -1.15625 C 0.625 -0.957031 0.679688 -0.785156 0.796875 -0.640625 C 0.910156 -0.503906 1.050781 -0.4375 1.21875 -0.4375 C 1.351562 -0.4375 1.46875 -0.476562 1.5625 -0.5625 C 1.664062 -0.644531 1.71875 -0.753906 1.71875 -0.890625 L 1.1875 -0.890625 L 1.1875 -1.296875 Z M 2.25 -1.296875 "/></g></g></g><g fill="#ffffff" fill-opacity="1"><g transform="translate(50.402481, 29.155256)"><g><path d="M 0.6875 -2.3125 L 0.6875 -0.46875 L 1.484375 -0.46875 L 1.484375 0 L 0.171875 0 L 0.171875 -2.3125 Z M 0.6875 -2.3125 "/></g></g></g><g fill="#ffffff" fill-opacity="1"><g transform="translate(51.980865, 29.155256)"><g><path d="M 1.34375 -2.3125 L 2.265625 0 L 1.703125 0 L 1.53125 -0.46875 L 0.65625 -0.46875 L 0.484375 0 L -0.078125 0 L 0.859375 -2.3125 Z M 1.359375 -0.921875 L 1.09375 -1.59375 L 0.84375 -0.921875 Z M 1.359375 -0.921875 "/></g></g></g><g fill="#ffffff" fill-opacity="1"><g transform="translate(54.171049, 29.155256)"><g><path d="M 0.171875 -2.3125 L 0.84375 -2.3125 C 1.15625 -2.3125 1.425781 -2.203125 1.65625 -1.984375 C 1.882812 -1.765625 2 -1.488281 2 -1.15625 C 2 -0.820312 1.882812 -0.546875 1.65625 -0.328125 C 1.425781 -0.109375 1.15625 0 0.84375 0 L 0.171875 0 Z M 0.6875 -0.46875 L 0.78125 -0.46875 C 0.96875 -0.46875 1.117188 -0.53125 1.234375 -0.65625 C 1.359375 -0.789062 1.425781 -0.957031 1.4375 -1.15625 C 1.4375 -1.351562 1.375 -1.515625 1.25 -1.640625 C 1.125 -1.773438 0.96875 -1.84375 0.78125 -1.84375 L 0.6875 -1.84375 Z M 0.6875 -0.46875 "/></g></g></g><g fill="#ffffff" fill-opacity="1"><g transform="translate(56.232728, 29.155256)"><g><path d="M 1.484375 -2.3125 L 1.484375 -1.84375 L 0.6875 -1.84375 L 0.6875 -1.390625 L 1.453125 -1.390625 L 1.453125 -0.921875 L 0.6875 -0.921875 L 0.6875 -0.46875 L 1.484375 -0.46875 L 1.484375 0 L 0.171875 0 L 0.171875 -2.3125 Z M 1.484375 -2.3125 "/></g></g></g><g fill="#ffffff" fill-opacity="1"><g transform="translate(57.853018, 29.155256)"><g><path d="M 1.015625 -2.34375 C 1.140625 -2.34375 1.257812 -2.320312 1.375 -2.28125 C 1.5 -2.25 1.59375 -2.21875 1.65625 -2.1875 L 1.734375 -2.125 L 1.515625 -1.71875 C 1.503906 -1.726562 1.484375 -1.738281 1.453125 -1.75 C 1.421875 -1.769531 1.363281 -1.796875 1.28125 -1.828125 C 1.195312 -1.859375 1.117188 -1.875 1.046875 -1.875 C 0.960938 -1.875 0.894531 -1.851562 0.84375 -1.8125 C 0.800781 -1.78125 0.78125 -1.734375 0.78125 -1.671875 C 0.78125 -1.628906 0.789062 -1.59375 0.8125 -1.5625 C 0.832031 -1.539062 0.867188 -1.515625 0.921875 -1.484375 C 0.984375 -1.453125 1.03125 -1.425781 1.0625 -1.40625 C 1.101562 -1.394531 1.171875 -1.367188 1.265625 -1.328125 C 1.410156 -1.265625 1.535156 -1.175781 1.640625 -1.0625 C 1.742188 -0.957031 1.796875 -0.835938 1.796875 -0.703125 C 1.796875 -0.566406 1.769531 -0.445312 1.71875 -0.34375 C 1.675781 -0.25 1.613281 -0.175781 1.53125 -0.125 C 1.445312 -0.0703125 1.351562 -0.03125 1.25 0 C 1.15625 0.03125 1.050781 0.046875 0.9375 0.046875 C 0.832031 0.046875 0.726562 0.0351562 0.625 0.015625 C 0.53125 -0.00390625 0.453125 -0.03125 0.390625 -0.0625 C 0.328125 -0.09375 0.269531 -0.125 0.21875 -0.15625 C 0.164062 -0.1875 0.125 -0.210938 0.09375 -0.234375 L 0.0625 -0.265625 L 0.328125 -0.703125 C 0.347656 -0.679688 0.378906 -0.65625 0.421875 -0.625 C 0.460938 -0.601562 0.53125 -0.566406 0.625 -0.515625 C 0.726562 -0.460938 0.816406 -0.4375 0.890625 -0.4375 C 1.109375 -0.4375 1.21875 -0.515625 1.21875 -0.671875 C 1.21875 -0.703125 1.207031 -0.726562 1.1875 -0.75 C 1.175781 -0.78125 1.148438 -0.804688 1.109375 -0.828125 C 1.078125 -0.859375 1.046875 -0.878906 1.015625 -0.890625 C 0.984375 -0.910156 0.929688 -0.9375 0.859375 -0.96875 C 0.785156 -1.007812 0.734375 -1.035156 0.703125 -1.046875 C 0.566406 -1.117188 0.457031 -1.207031 0.375 -1.3125 C 0.300781 -1.414062 0.265625 -1.523438 0.265625 -1.640625 C 0.265625 -1.847656 0.335938 -2.015625 0.484375 -2.140625 C 0.640625 -2.273438 0.816406 -2.34375 1.015625 -2.34375 Z M 1.015625 -2.34375 "/></g></g></g><g fill="#ffffff" fill-opacity="1"><g transform="translate(59.730318, 29.155256)"><g><path d="M 0.6875 -0.921875 L 0.6875 0 L 0.171875 0 L 0.171875 -2.3125 L 0.6875 -2.3125 L 0.6875 -1.390625 L 1.4375 -1.390625 L 1.4375 -2.3125 L 1.96875 -2.3125 L 1.96875 0 L 1.4375 0 L 1.4375 -0.921875 Z M 0.6875 -0.921875 "/></g></g></g><g clip-path="url(#0eb6d28dee)"><path fill="#ffffff" d="M 0.59375 6.582031 L 12.210938 12.175781 C 12.355469 12.242188 12.5 12.242188 12.640625 12.175781 L 24.257812 6.582031 C 24.441406 6.492188 24.535156 6.34375 24.535156 6.136719 C 24.535156 5.929688 24.441406 5.78125 24.257812 5.691406 L 12.640625 0.101562 C 12.5 0.03125 12.355469 0.03125 12.210938 0.101562 L 0.59375 5.691406 C 0.410156 5.78125 0.316406 5.929688 0.316406 6.136719 C 0.316406 6.34375 0.410156 6.492188 0.59375 6.582031 Z M 0.59375 6.582031 " fill-opacity="1" fill-rule="nonzero"/></g><g clip-path="url(#6218a4c4be)"><path fill="#ffffff" d="M 0.59375 13.371094 L 12.210938 18.953125 C 12.355469 19.023438 12.5 19.023438 12.640625 18.953125 L 24.257812 13.371094 C 24.445312 13.285156 24.535156 13.136719 24.535156 12.929688 C 24.535156 12.722656 24.445312 12.578125 24.257812 12.488281 L 22.414062 11.589844 C 22.007812 11.390625 21.605469 11.390625 21.203125 11.589844 L 14.046875 15.046875 C 13.539062 15.289062 13.007812 15.40625 12.449219 15.40625 C 11.886719 15.40625 11.355469 15.289062 10.851562 15.046875 L 3.65625 11.585938 C 3.25 11.394531 2.84375 11.394531 2.441406 11.585938 L 0.59375 12.476562 C 0.410156 12.566406 0.316406 12.714844 0.316406 12.917969 C 0.316406 13.125 0.410156 13.273438 0.59375 13.363281 Z M 0.59375 13.371094 " fill-opacity="1" fill-rule="nonzero"/></g><g clip-path="url(#bfc254efe9)"><path fill="#ffffff" d="M 24.257812 19.261719 L 22.414062 18.371094 C 22.007812 18.179688 21.605469 18.179688 21.203125 18.371094 L 14.046875 21.824219 C 13.542969 22.070312 13.007812 22.191406 12.449219 22.191406 C 11.886719 22.191406 11.355469 22.070312 10.851562 21.824219 L 3.675781 18.371094 C 3.273438 18.179688 2.867188 18.179688 2.460938 18.371094 L 0.617188 19.261719 C 0.429688 19.351562 0.335938 19.5 0.335938 19.703125 C 0.335938 19.910156 0.429688 20.058594 0.617188 20.148438 L 12.210938 25.738281 C 12.355469 25.808594 12.5 25.808594 12.640625 25.738281 L 24.257812 20.148438 C 24.445312 20.058594 24.535156 19.910156 24.535156 19.703125 C 24.535156 19.5 24.445312 19.351562 24.257812 19.261719 Z M 24.257812 19.261719 " fill-opacity="1" fill-rule="nonzero"/></g></svg>